<?xml version="1.0" encoding="UTF-8"?>
<svg viewBox="0 0 148 148" xmlns="http://www.w3.org/2000/svg">
<g fill-rule="evenodd">
<path d="M25.818 17.64c.55-.48 1.108-.663 1.779-.647.088 0 .146.067.14.15l-.042.82a.128.128 0 0 1-.138.12 1.492 1.492 0 0 0-.988.364c-.623.541-.63 1.457-.094 2.075.53.611 1.435.716 2.058.175.259-.225.459-.563.509-.906.009-.067.08-.129.148-.119l.827.084c.072.005.129.081.124.154a2.511 2.511 0 0 1-.875 1.698 2.618 2.618 0 0 1-3.71-.25 2.63 2.63 0 0 1 .262-3.719M29.996 14.582a.144.144 0 0 1 .03-.194l.707-.515a.143.143 0 0 1 .194.03l2.848 3.902a.144.144 0 0 1-.03.194l-.707.516a.146.146 0 0 1-.195-.03l-2.847-3.903zM33.496 12.153c-.086-.058-.086-.169.007-.227l.829-.504a.144.144 0 0 1 .148.003l2.415 1.648.037-.023-.358-2.901a.143.143 0 0 1 .064-.133l.829-.506c.093-.056.193-.006.205.098l.599 5.387a.14.14 0 0 1-.064.134l-.062.037a.138.138 0 0 1-.148-.004l-4.501-3.009zM40.403 8.13a.145.145 0 0 1 .062-.186l.783-.391a.145.145 0 0 1 .186.061l2.161 4.32a.14.14 0 0 1-.062.184l-.782.393a.142.142 0 0 1-.186-.063L40.403 8.13zM46.873 4.988c.678-.27 1.265-.26 1.894-.023.082.03.114.11.082.188l-.31.759a.126.126 0 0 1-.17.068 1.489 1.489 0 0 0-1.053.019c-.768.305-1.077 1.167-.775 1.927.302.753 1.12 1.15 1.886.845.32-.127.618-.38.78-.688.03-.06.118-.095.178-.064l.754.353c.066.029.094.119.066.186a2.509 2.509 0 0 1-1.386 1.314 2.617 2.617 0 0 1-3.42-1.46 2.631 2.631 0 0 1 1.474-3.424M53.736 6.148c-.119-.422.121-.862.521-.975a.798.798 0 0 1 .983.55c.113.401-.136.835-.558.954a.775.775 0 0 1-.946-.529M59.047 1.609a.138.138 0 0 1 .111-.161l.855-.158a.141.141 0 0 1 .161.11l.71 3.837 1.71-.317a.139.139 0 0 1 .162.112l.145.782a.138.138 0 0 1-.11.162l-2.703.5a.137.137 0 0 1-.16-.112l-.88-4.755zM65.174.646a.143.143 0 0 1 .123-.153L66.168.4a.144.144 0 0 1 .153.124l.517 4.807a.144.144 0 0 1-.123.152l-.872.094a.142.142 0 0 1-.152-.123L65.174.646zM70.082.265a.173.173 0 0 1 .171-.18l.853-.02a.179.179 0 0 1 .18.172l.044 1.918L72.902.097a.22.22 0 0 1 .137-.076L73.958 0c.139-.004.215.155.138.266l-1.658 2.177 1.917 2.378a.172.172 0 0 1-.132.274l-1.007.023c-.051 0-.117-.027-.133-.048l-1.737-2.251.05 2.173a.177.177 0 0 1-.171.179l-.853.02a.172.172 0 0 1-.179-.171L70.082.265zM77.557.245a.138.138 0 0 1 .148-.128l3.014.22a.14.14 0 0 1 .13.148l-.06.794a.138.138 0 0 1-.149.128l-2.016-.147-.066.902 1.661.122a.143.143 0 0 1 .127.149l-.058.792a.138.138 0 0 1-.148.129l-1.66-.121-.07.982 2.015.148c.08.006.133.075.128.148l-.058.794a.139.139 0 0 1-.148.128l-3.014-.221a.14.14 0 0 1-.129-.148l.353-4.82zM86.188 3.296c.295.05.594-.18.645-.481a.56.56 0 0 0-.453-.641l-1.064-.183-.192 1.122 1.064.183zM84.341.906a.139.139 0 0 1 .16-.113l2.149.369a1.586 1.586 0 0 1 1.301 1.822c-.113.662-.643 1.118-1.312 1.263l.672 1.995c.034.102-.036.209-.159.187l-.956-.164a.137.137 0 0 1-.104-.084l-.629-2.07-.496-.085-.315 1.833a.144.144 0 0 1-.16.114l-.855-.147a.138.138 0 0 1-.113-.16l.817-4.76zM91.852 5.636c.117-.423.55-.674.952-.562a.797.797 0 0 1 .554.979c-.11.402-.55.644-.972.527a.777.777 0 0 1-.534-.944M99.02 5.631l-.977-.373a.14.14 0 0 1-.08-.178l.285-.745a.139.139 0 0 1 .178-.08l3.031 1.159a.14.14 0 0 1 .082.179l-.285.744a.14.14 0 0 1-.18.08l-.975-.373-1.394 3.646a.145.145 0 0 1-.18.08l-.819-.313a.145.145 0 0 1-.08-.18l1.393-3.645zM105.638 9.733c.268.133.62-.002.756-.277a.56.56 0 0 0-.25-.743l-.969-.479-.505 1.02.968.479zm-1.088-2.817a.138.138 0 0 1 .186-.063l1.954.967a1.587 1.587 0 0 1 .727 2.118c-.298.601-.936.888-1.618.835l.074 2.104c.004.108-.094.189-.205.135l-.869-.43a.136.136 0 0 1-.076-.111l-.012-2.163-.45-.223-.826 1.667a.145.145 0 0 1-.186.063l-.778-.385a.138.138 0 0 1-.062-.186l2.141-4.328zM111.085 10.375a.143.143 0 0 1 .19-.047l.75.453a.142.142 0 0 1 .047.19l-2.495 4.137a.143.143 0 0 1-.191.047l-.75-.452a.144.144 0 0 1-.047-.19l2.496-4.138zM115.254 16.987l.255-1.3-.005-.005-1.15.656.9.649zm-3.346-.491l4.728-2.642a.146.146 0 0 1 .147.007l.059.043a.145.145 0 0 1 .054.137l-1.025 5.319c-.02.103-.123.146-.211.08l-.657-.474c-.106-.076-.128-.146-.1-.296l.124-.622-1.608-1.162-.555.319a.271.271 0 0 1-.316-.012l-.65-.47c-.09-.064-.081-.175.01-.227zM121.084 17.483a.137.137 0 0 1 .194-.012l.653.572c.056.048.063.14.014.195l-2.569 2.932 1.307 1.144c.06.053.061.141.013.195l-.525.599a.137.137 0 0 1-.195.013l-2.064-1.808a.14.14 0 0 1-.013-.196l3.184-3.634zM13.179 35.717a1.5 1.5 0 0 1-1.256-2.317 73.914 73.914 0 0 1 7.63-9.819 1.501 1.501 0 0 1 2.205 2.034 71.072 71.072 0 0 0-7.32 9.42 1.496 1.496 0 0 1-1.26.682M3.628 57.694a1.5 1.5 0 0 1-1.457-1.862A74.046 74.046 0 0 1 7.365 41.48a1.5 1.5 0 0 1 2.7 1.307 71.026 71.026 0 0 0-4.982 13.769 1.501 1.501 0 0 1-1.455 1.139M22.446 125.737c-.387 0-.773-.15-1.067-.446C7.592 111.34-.001 92.977-.001 73.58a1.5 1.5 0 0 1 3 0c0 18.602 7.286 36.218 20.514 49.603a1.5 1.5 0 0 1-1.067 2.554M73.717 147.297c-15.41 0-30.214-4.792-42.812-13.857a1.5 1.5 0 1 1 1.752-2.435c12.084 8.696 26.283 13.292 41.06 13.292 18.616 0 36.242-7.294 49.63-20.54a1.5 1.5 0 0 1 2.11 2.133c-13.954 13.804-32.33 21.407-51.74 21.407M27.63 130.504c-.338 0-.68-.114-.96-.349a73.854 73.854 0 0 1-1.442-1.234 1.5 1.5 0 1 1 1.978-2.255c.457.4.919.796 1.386 1.186a1.5 1.5 0 0 1-.962 2.651M134.269 114.226a1.499 1.499 0 0 1-1.255-2.319c7.47-11.466 11.42-24.72 11.42-38.327a70.22 70.22 0 0 0-6.238-29.02 1.5 1.5 0 0 1 2.736-1.232 73.192 73.192 0 0 1 6.502 30.252c0 14.19-4.117 28.01-11.907 39.965a1.498 1.498 0 0 1-1.258.681M133.646 34.796c-.483 0-.957-.232-1.247-.664a71.02 71.02 0 0 0-6.751-8.546 1.5 1.5 0 0 1 2.205-2.036 74.074 74.074 0 0 1 7.037 8.91 1.5 1.5 0 0 1-1.244 2.336"/>
</g>
</svg>
