<?xml version="1.0" encoding="UTF-8"?>
<svg viewBox="0 0 148 148" xmlns="http://www.w3.org/2000/svg">
<g fill="#40BFA5" fill-rule="evenodd">
<path d="M41.986 6.97c.656-.319 1.241-.352 1.884-.162a.136.136 0 0 1 .096.181l-.253.78a.129.129 0 0 1-.164.08 1.486 1.486 0 0 0-1.049.096c-.74.36-.986 1.242-.629 1.977.354.728 1.2 1.064 1.94.703a1.54 1.54 0 0 0 .726-.742c.027-.062.113-.103.174-.077l.776.296c.07.024.104.113.08.181a2.504 2.504 0 0 1-1.285 1.411 2.615 2.615 0 0 1-3.513-1.204 2.628 2.628 0 0 1 1.217-3.52M46.798 5.1a.144.144 0 0 1 .08-.18l.816-.314a.144.144 0 0 1 .179.079L49.61 9.19a.144.144 0 0 1-.08.179l-.816.315a.144.144 0 0 1-.18-.08L46.799 5.1zM50.782 3.68c-.068-.078-.04-.185.066-.215l.929-.272a.143.143 0 0 1 .142.042l1.899 2.213.042-.012.407-2.888a.14.14 0 0 1 .096-.112l.93-.272c.104-.03.187.044.172.147l-.82 5.346a.139.139 0 0 1-.095.11l-.07.02a.136.136 0 0 1-.141-.041L50.782 3.68zM58.498 1.586a.143.143 0 0 1 .108-.163l.857-.174a.142.142 0 0 1 .163.108l.96 4.728a.143.143 0 0 1-.108.163l-.857.173a.143.143 0 0 1-.164-.107l-.96-4.728zM65.541.249c.725-.084 1.285.078 1.83.469.07.05.082.137.03.202l-.496.65a.127.127 0 0 1-.181.022 1.484 1.484 0 0 0-1.02-.255c-.816.095-1.338.844-1.244 1.654.094.803.778 1.398 1.596 1.303.34-.04.694-.205.928-.46.046-.05.14-.06.189-.014l.633.534c.058.045.06.14.017.197a2.5 2.5 0 0 1-1.677.905 2.61 2.61 0 0 1-2.913-2.293A2.622 2.622 0 0 1 65.543.249M71.858 3.135c-.007-.437.336-.801.752-.808a.798.798 0 0 1 .809.782c.006.416-.345.772-.783.779a.775.775 0 0 1-.778-.753M78.143.128A.137.137 0 0 1 78.291 0l.865.065a.144.144 0 0 1 .128.148l-.294 3.879 1.73.13c.08.007.132.076.126.149l-.059.792a.14.14 0 0 1-.149.127l-2.73-.206a.138.138 0 0 1-.128-.15l.363-4.807zM84.33.767a.143.143 0 0 1 .157-.116l.864.132a.143.143 0 0 1 .116.157l-.727 4.768a.144.144 0 0 1-.158.116l-.864-.132a.143.143 0 0 1-.117-.157L84.33.767zM89.147 1.65a.173.173 0 0 1 .212-.13l.829.2c.09.023.15.12.127.212l-.448 1.862 2.044-1.582a.22.22 0 0 1 .153-.038l.892.215c.133.033.166.206.063.293l-2.157 1.675L92.1 7.143a.171.171 0 0 1-.2.229l-.975-.235c-.05-.012-.108-.056-.117-.081L89.71 4.439l-.508 2.109a.177.177 0 0 1-.212.129l-.828-.2a.173.173 0 0 1-.129-.211l1.114-4.616zM96.359 3.554a.138.138 0 0 1 .176-.085l2.849.992c.076.026.11.107.086.176l-.261.75a.14.14 0 0 1-.177.085l-1.906-.664-.297.854 1.569.546a.144.144 0 0 1 .085.177l-.261.75a.138.138 0 0 1-.176.085l-1.57-.546-.323.93 1.907.662a.14.14 0 0 1 .085.177l-.261.75a.138.138 0 0 1-.176.085l-2.85-.992a.138.138 0 0 1-.085-.176l1.586-4.556zM103.906 8.734c.271.125.62-.02.748-.298a.56.56 0 0 0-.272-.735l-.98-.452-.476 1.033.98.452zm-1.165-2.785a.14.14 0 0 1 .184-.068l1.98.913a1.585 1.585 0 0 1 .784 2.095c-.28.61-.91.913-1.594.88l.133 2.1c.007.107-.089.192-.2.14l-.882-.406a.133.133 0 0 1-.078-.108l-.073-2.16-.457-.21-.778 1.687a.142.142 0 0 1-.184.068l-.788-.363a.14.14 0 0 1-.068-.184l2.021-4.384zM13.179 35.492a1.5 1.5 0 0 1-1.256-2.317c5.662-8.712 12.944-15.995 21.645-21.644a1.5 1.5 0 0 1 1.634 2.515A70.257 70.257 0 0 0 14.438 34.81a1.496 1.496 0 0 1-1.26.683M3.628 57.47a1.5 1.5 0 0 1-1.457-1.862 74.046 74.046 0 0 1 5.194-14.353 1.5 1.5 0 0 1 2.7 1.307A71.026 71.026 0 0 0 5.083 56.33a1.501 1.501 0 0 1-1.455 1.14M22.446 125.512c-.387 0-.773-.15-1.067-.446C7.592 111.116-.001 92.752-.001 73.355a1.5 1.5 0 0 1 3 0c0 18.602 7.286 36.218 20.514 49.603a1.5 1.5 0 0 1-1.067 2.554M27.63 130.279c-.338 0-.68-.114-.96-.349a73.854 73.854 0 0 1-1.442-1.234 1.5 1.5 0 1 1 1.978-2.255c.457.4.919.796 1.386 1.185a1.5 1.5 0 0 1-.962 2.653M73.717 147.072c-15.478 0-30.335-4.831-42.967-13.969a1.5 1.5 0 0 1 1.759-2.43c12.116 8.766 26.366 13.399 41.208 13.399 18.616 0 36.242-7.294 49.63-20.54a1.5 1.5 0 1 1 2.11 2.133c-13.954 13.804-32.33 21.407-51.74 21.407M134.269 114.001a1.499 1.499 0 0 1-1.255-2.319c7.47-11.466 11.42-24.72 11.42-38.327a70.22 70.22 0 0 0-6.238-29.02 1.5 1.5 0 0 1 2.736-1.232 73.192 73.192 0 0 1 6.502 30.252c0 14.19-4.117 28.01-11.907 39.965a1.498 1.498 0 0 1-1.258.681M133.646 34.571c-.483 0-.957-.232-1.247-.664a70.266 70.266 0 0 0-20.167-19.86 1.5 1.5 0 0 1 1.634-2.516 73.262 73.262 0 0 1 21.024 20.704 1.5 1.5 0 0 1-1.244 2.336"/>
</g>
</svg>
