<?xml version="1.0" encoding="UTF-8"?>
<svg viewBox="0 0 148 148" xmlns="http://www.w3.org/2000/svg">
<g fill="#EEC443" fill-rule="evenodd">
<path d="M32.032 18.452c.008-.072-.047-.15-.119-.158l-.823-.113c-.067-.012-.14.047-.153.114a1.54 1.54 0 0 1-.54.887c-.643.52-1.542.382-2.052-.249-.514-.635-.474-1.55.168-2.069a1.49 1.49 0 0 1 1.001-.33.129.129 0 0 0 .142-.115l.071-.819c.01-.082-.046-.149-.134-.154-.67-.04-1.234.124-1.802.583a2.631 2.631 0 0 0-.393 3.708 2.619 2.619 0 0 0 3.7.382c.504-.408.851-.98.934-1.667M34.78 17.113c.04.06.131.078.191.037l.724-.493a.142.142 0 0 0 .037-.192l-2.717-3.995a.142.142 0 0 0-.192-.037l-.724.492a.145.145 0 0 0-.037.193l2.717 3.995zM40.027 13.977a.139.139 0 0 0 .147.01l.064-.037a.14.14 0 0 0 .069-.13l-.418-5.403c-.01-.104-.106-.158-.201-.105l-.846.478a.143.143 0 0 0-.068.13l.26 2.911-.038.021-2.357-1.727a.145.145 0 0 0-.148-.009l-.845.477c-.095.054-.1.165-.015.226l4.396 3.158zM44.673 11.427a.145.145 0 0 0 .184.068l.796-.364a.145.145 0 0 0 .068-.184l-2.01-4.389a.144.144 0 0 0-.184-.069l-.795.365a.143.143 0 0 0-.069.184l2.01 4.39zM51.027 9.057a2.507 2.507 0 0 0 1.431-1.268c.031-.065.006-.157-.06-.19l-.74-.376c-.06-.034-.149-.001-.182.057-.17.302-.48.546-.803.66-.777.28-1.582-.144-1.857-.907-.276-.77.062-1.622.838-1.901a1.498 1.498 0 0 1 1.055.017.128.128 0 0 0 .172-.062l.336-.75a.136.136 0 0 0-.076-.19c-.62-.258-1.207-.288-1.894-.041a2.632 2.632 0 0 0-1.59 3.375 2.62 2.62 0 0 0 3.37 1.576M56.995 6.064c.425-.105.688-.53.588-.936a.796.796 0 0 0-.963-.58c-.405.1-.66.531-.554.956.1.404.525.66.929.56M62.41 6.048l2.714-.407a.137.137 0 0 0 .116-.157l-.118-.787a.138.138 0 0 0-.158-.117l-1.717.258-.58-3.853A.144.144 0 0 0 62.51.87l-.858.129a.138.138 0 0 0-.117.156l.718 4.777a.138.138 0 0 0 .158.116M68.197 5.344l.873-.064a.142.142 0 0 0 .128-.148L68.844.314a.144.144 0 0 0-.15-.128l-.872.064a.144.144 0 0 0-.128.149l.355 4.817a.141.141 0 0 0 .148.128M72.721 5.106l.854.013a.179.179 0 0 0 .177-.173l.031-2.173 1.652 2.314c.015.022.08.052.131.053l1.006.014a.171.171 0 0 0 .143-.267l-1.826-2.45L76.627.326c.082-.108.011-.27-.128-.271L75.58.04c-.043-.001-.109.035-.139.07l-1.648 1.998.027-1.92a.176.176 0 0 0-.172-.176L72.794 0a.173.173 0 0 0-.177.173l-.068 4.756a.172.172 0 0 0 .172.177M79.665 5.366l3.007.321a.14.14 0 0 0 .154-.123l.084-.792a.139.139 0 0 0-.123-.153l-2.013-.215.105-.98 1.656.176a.138.138 0 0 0 .153-.123l.085-.792a.145.145 0 0 0-.124-.153l-1.656-.177.096-.9 2.013.215a.14.14 0 0 0 .153-.124l.084-.792a.138.138 0 0 0-.123-.152L80.208.28a.138.138 0 0 0-.152.124l-.515 4.81a.14.14 0 0 0 .124.152M87.769 2.418l1.057.22a.56.56 0 0 1 .43.655c-.062.3-.367.52-.661.458l-1.057-.218.23-1.115zm-1.81 3.775l.85.176a.142.142 0 0 0 .164-.107l.378-1.822.492.102.559 2.09a.132.132 0 0 0 .1.088l.95.197c.122.024.196-.079.166-.183l-.604-2.017c.673-.12 1.218-.56 1.355-1.217a1.588 1.588 0 0 0-1.24-1.866l-2.135-.442a.14.14 0 0 0-.164.108l-.978 4.73a.137.137 0 0 0 .107.163zM94.672 7.246c.418.132.865-.095.99-.492a.797.797 0 0 0-.52-.998c-.397-.126-.839.11-.97.528a.775.775 0 0 0 .5.962M101.046 8.522l.543.232c.262.112.464.437.35.705a.53.53 0 0 1-.693.283l-.61-.261.41-.96zm.775-1.81l.523.223a.496.496 0 0 1 .274.657.52.52 0 0 1-.676.282l-.523-.224.402-.938zm-.85 4.046c.797.342 1.693.082 2.014-.67.265-.615-.138-1.176-.43-1.476.386-.033 1.01-.211 1.23-.727.302-.704-.116-1.525-.908-1.863l-1.562-.67a.138.138 0 0 0-.182.074l-1.899 4.439a.14.14 0 0 0 .073.182l1.663.71zM107.895 14.223c.07.038.153.009.188-.055l.381-.7a.138.138 0 0 0-.056-.188l-1.777-.968.472-.867 1.463.797c.064.035.15.015.188-.055l.381-.7a.143.143 0 0 0-.055-.188l-1.463-.797.433-.796 1.778.968c.07.039.153.009.188-.055l.38-.7a.14.14 0 0 0-.055-.188l-2.657-1.446a.138.138 0 0 0-.188.055l-2.313 4.248a.137.137 0 0 0 .055.188l2.657 1.447zM112.014 16.823a.143.143 0 0 0 .192-.038l2.16-3.24.868.578a.138.138 0 0 0 .192-.038l.441-.661a.138.138 0 0 0-.039-.192l-2.694-1.796a.138.138 0 0 0-.192.038l-.44.662a.137.137 0 0 0 .038.19l.867.58-2.16 3.24a.144.144 0 0 0 .04.192l.727.485zM118.414 17.878l.005.004-.323 1.287-.864-.696 1.182-.595zm-3.658.852l.626.503a.273.273 0 0 0 .315.029l.57-.29 1.547 1.245-.156.615c-.036.149-.018.219.084.302l.63.509c.086.068.19.03.217-.071l1.303-5.26c.009-.048-.007-.11-.047-.141l-.057-.045a.145.145 0 0 0-.147-.016l-4.862 2.394c-.094.046-.108.157-.023.226zM12.363 35.497a1.497 1.497 0 0 0 2.075-.44A70.965 70.965 0 0 1 23.14 24.18a1.5 1.5 0 1 0-2.146-2.096 73.937 73.937 0 0 0-9.071 11.338 1.5 1.5 0 0 0 .44 2.075M3.266 57.672a1.5 1.5 0 0 0 1.817-1.094 71.029 71.029 0 0 1 4.983-13.77 1.5 1.5 0 0 0-2.7-1.306 73.98 73.98 0 0 0-5.194 14.352 1.5 1.5 0 0 0 1.094 1.818M3 73.602a1.5 1.5 0 1 0-3 0c0 19.396 7.592 37.761 21.379 51.711.293.297.68.446 1.067.446a1.5 1.5 0 0 0 1.067-2.554C10.285 109.82 3 92.205 3 73.602M123.347 123.78c-13.389 13.244-31.015 20.54-49.63 20.54-14.778 0-28.976-4.598-41.06-13.293a1.5 1.5 0 1 0-1.752 2.435c12.597 9.065 27.401 13.857 42.812 13.857 19.411 0 37.786-7.603 51.74-21.407a1.5 1.5 0 1 0-2.11-2.133M27.206 126.688a1.5 1.5 0 0 0-1.979 2.255c.476.417.957.829 1.443 1.235a1.5 1.5 0 0 0 1.922-2.304 71.52 71.52 0 0 1-1.386-1.186M140.931 43.35a1.5 1.5 0 1 0-2.735 1.231 70.22 70.22 0 0 1 6.237 29.021c0 13.607-3.949 26.861-11.42 38.327a1.5 1.5 0 0 0 2.514 1.638c7.79-11.955 11.906-25.775 11.906-39.965a73.192 73.192 0 0 0-6.502-30.252M134.481 34.563a1.501 1.501 0 0 0 .409-2.082 74.029 74.029 0 0 0-8.875-10.828 1.5 1.5 0 0 0-2.129 2.114 70.846 70.846 0 0 1 8.513 10.387 1.5 1.5 0 0 0 2.082.41"/>
</g>
</svg>
