<?xml version="1.0" encoding="UTF-8"?>
<svg viewBox="0 0 55 55" xmlns="http://www.w3.org/2000/svg">
<g fill="#40BFA5" fill-rule="evenodd">
<path d="M1.524 21.701a.738.738 0 0 1-.717-.917 27.464 27.464 0 0 1 1.93-5.333.738.738 0 1 1 1.33.643 26.005 26.005 0 0 0-1.827 5.047.738.738 0 0 1-.716.56M8.272 46.615a.737.737 0 0 1-.53-.225C2.75 41.232 0 34.481 0 27.38a.738.738 0 0 1 1.476 0c0 6.716 2.602 13.102 7.326 17.983a.738.738 0 0 1-.53 1.252M10.384 48.577a.734.734 0 0 1-.473-.172c-.18-.15-.36-.304-.536-.459a.738.738 0 1 1 .975-1.108c.167.146.336.291.507.434a.738.738 0 0 1-.473 1.305M49.747 42.568a.739.739 0 0 1-.618-1.141 25.675 25.675 0 0 0 4.186-14.047c0-3.69-.77-7.267-2.287-10.636a.738.738 0 1 1 1.347-.607A27.204 27.204 0 0 1 54.79 27.38c0 5.274-1.53 10.41-4.425 14.853a.738.738 0 0 1-.62.335M27.396 54.776c-5.66 0-11.11-1.743-15.758-5.04a.738.738 0 1 1 .854-1.205c4.398 3.12 9.551 4.768 14.904 4.768 6.822 0 13.282-2.673 18.19-7.528a.738.738 0 0 1 1.038 1.05c-5.186 5.13-12.014 7.955-19.228 7.955M49.517 13.249a.737.737 0 0 1-.613-.327 25.756 25.756 0 0 0-7.392-7.279.739.739 0 0 1 .804-1.238 27.231 27.231 0 0 1 7.813 7.694.738.738 0 0 1-.612 1.15M5.09 13.536a.738.738 0 0 1-.617-1.143 27.56 27.56 0 0 1 10.115-9.22A27.446 27.446 0 0 1 27.396 0c4.338 0 8.487.985 12.332 2.927a.738.738 0 1 1-.666 1.318 25.637 25.637 0 0 0-11.666-2.768 25.966 25.966 0 0 0-12.117 3.001 26.077 26.077 0 0 0-9.57 8.724.738.738 0 0 1-.618.334"/>
</g>
</svg>
