<?xml version="1.0" encoding="UTF-8"?>
<svg viewBox="0 0 152 152" xmlns="http://www.w3.org/2000/svg">
<path d="m54.6 4.7 1.5-0.4 1.5 5.7c0 0.1 0.1 0.2 0.3 0.1l1.3-0.3c0.1 0 0.2-0.1 0.1-0.3l-1.5-5.7 1.5-0.4c0.1 0 0.2-0.1 0.1-0.3l-0.3-1.2c0-0.1-0.1-0.2-0.3-0.1l-4.7 1.2c-0.1 0-0.2 0.1-0.1 0.3l0.3 1.2c0.1 0.2 0.2 0.3 0.3 0.2m13.1-2.7c0.5-0.1 0.9 0.3 0.9 0.7 0.1 0.5-0.3 0.9-0.7 1l-1.6 0.2-0.2-1.7 1.6-0.2zm-2.3 6.5 1.3-0.2c0.1 0 0.2-0.1 0.2-0.2l-0.3-2.8 0.7-0.1 1.7 2.7s0.1 0.1 0.2 0.1l1.4-0.2c0.2 0 0.2-0.2 0.1-0.3l-1.7-2.6c0.9-0.5 1.5-1.4 1.3-2.4-0.2-1.3-1.3-2.2-2.6-2.1l-3.2 0.4c-0.1 0-0.2 0.1-0.2 0.2l0.9 7.2c-0.1 0.2 0 0.3 0.2 0.3zm10.3-0.8h1.3c0.1 0 0.2-0.1 0.2-0.2l0.2-7.3c0-0.1-0.1-0.2-0.2-0.2h-1.3c-0.1 0-0.2 0.1-0.2 0.2l-0.2 7.3c0 0.1 0.1 0.2 0.2 0.2m9.6-3.8 0.6 1.9-1.6-0.2 1-1.7zm-4 3.9 1.2 0.2c0.2 0 0.3-0.1 0.4-0.2l0.5-0.8 2.9 0.4 0.3 0.9c0.1 0.2 0.1 0.3 0.3 0.3l1.2 0.2c0.2 0 0.3-0.1 0.2-0.3l-2.3-7.8c0-0.1-0.1-0.1-0.2-0.1h-0.1c-0.1 0-0.2 0-0.2 0.1l-4.3 6.9c-0.1 0 0 0.2 0.1 0.2zm11.1 1.9 4 1.1c0.1 0 0.2 0 0.3-0.1l0.3-1.2c0-0.1 0-0.2-0.1-0.3l-2.5-0.7 1.5-5.7c0-0.1 0-0.2-0.1-0.3l-1.3-0.3c-0.1 0-0.2 0-0.3 0.1l-1.9 7c0 0.3 0 0.4 0.1 0.4m-86.9 50.4c0.8 0.2 1.6-0.3 1.8-1.1 1.2-4.8 2.9-9.4 5-13.8 0.4-0.8 0-1.7-0.7-2s-1.6 0-2 0.7c-2.2 4.6-4 9.5-5.2 14.4-0.1 0.8 0.3 1.6 1.1 1.8m-0.2 16c0-0.8-0.7-1.5-1.5-1.5s-1.5 0.7-1.5 1.5c0 19.5 7.6 38 21.4 52 0.3 0.3 0.7 0.4 1.1 0.4 0.8 0 1.5-0.7 1.5-1.5 0-0.4-0.2-0.8-0.4-1.1-13.3-13.4-20.6-31.1-20.6-49.8m120.3 50.5c-13.4 13.3-31 20.7-49.6 20.7-14.8 0-29-4.6-41.1-13.4-0.7-0.5-1.6-0.4-2.1 0.3s-0.4 1.6 0.3 2.1h0.1c12.6 9.1 27.4 13.9 42.8 13.9 19.4 0 37.8-7.6 51.7-21.5 0.6-0.6 0.5-1.6-0.1-2.1-0.5-0.6-1.4-0.6-2 0m-96.1 2.9c-0.6-0.6-1.6-0.5-2.1 0.1-0.6 0.6-0.5 1.6 0.1 2.1 0.5 0.4 1 0.8 1.4 1.2 0.3 0.2 0.6 0.3 1 0.3 0.8 0 1.5-0.7 1.5-1.5 0-0.4-0.2-0.9-0.5-1.2-0.5-0.2-1-0.6-1.4-1m113.7-83.8c-0.4-0.8-1.3-1.1-2-0.7-0.7 0.3-1 1.2-0.7 1.9 4.1 9.2 6.2 19.1 6.2 29.2 0 13.7-3.9 27-11.4 38.5-0.5 0.7-0.3 1.6 0.4 2.1s1.6 0.3 2.1-0.4c7.8-12 11.9-25.9 11.9-40.2 0-10.5-2.2-20.9-6.5-30.4m-6.4-8.9c0.7-0.5 0.9-1.4 0.4-2.1-5.5-8.3-12.7-15.4-21-20.8-0.7-0.5-1.6-0.3-2.1 0.4s-0.3 1.6 0.4 2.1c8 5.2 14.9 12 20.2 20 0.4 0.7 1.4 0.9 2.1 0.4m-32.4-25.8c1.1 0.5 2.3 1 3.4 1.6 0.8 0.3 1.6 0 2-0.7 0.3-0.7 0-1.6-0.6-2-1.2-0.6-2.3-1.1-3.5-1.7-0.8-0.3-1.6 0.1-2 0.8-0.3 0.8 0 1.7 0.7 2m-55.5-0.6c0.8-0.3 1.2-1.2 0.9-1.9-0.3-0.8-1.2-1.2-1.9-0.9h-0.1c-2.1 0.9-4.2 1.9-6.3 3-7.1 3.8-13.6 8.7-19.1 14.6-0.1 0-0.1 0.1-0.2 0.1-3 3.2-5.7 6.7-8.1 10.4-0.5 0.7-0.3 1.6 0.4 2.1s1.6 0.3 2.1-0.4v-0.1l0.1-0.1c6.6-10.1 15.5-18.3 26.1-23.9 2.1-1.1 4.1-2 6.1-2.9"/>
</svg>
