<svg viewBox="0 0 152 152" xmlns="http://www.w3.org/2000/svg"><path d="M54.6 4.7l1.5-.4 1.5 5.7c0 .1.1.2.3.1l1.3-.3c.1 0 .2-.1.1-.3l-1.5-5.7 1.5-.4c.1 0 .2-.1.1-.3l-.3-1.2c0-.1-.1-.2-.3-.1L54.1 3c-.1 0-.2.1-.1.3l.3 1.2c.1.2.2.3.3.2M67.7 2c.5-.1.9.3.9.7.1.5-.3.9-.7 1l-1.6.2-.2-1.7 1.6-.2zm-2.3 6.5l1.3-.2c.1 0 .2-.1.2-.2l-.3-2.8.7-.1L69 7.9s.1.1.2.1l1.4-.2c.2 0 .2-.2.1-.3L69 4.9c.9-.5 1.5-1.4 1.3-2.4C70.1 1.2 69 .3 67.7.4l-3.2.4c-.1 0-.2.1-.2.2l.9 7.2c-.1.2 0 .3.2.3zm10.3-.8H77c.1 0 .2-.1.2-.2l.2-7.3c0-.1-.1-.2-.2-.2h-1.3c-.1 0-.2.1-.2.2l-.2 7.3c0 .1.1.2.2.2m9.6-3.8l.6 1.9-1.6-.2 1-1.7zm-4 3.9l1.2.2c.2 0 .3-.1.4-.2l.5-.8 2.9.4.3.9c.1.2.1.3.3.3l1.2.2c.2 0 .3-.1.2-.3L86 .7c0-.1-.1-.1-.2-.1h-.1c-.1 0-.2 0-.2.1l-4.3 6.9c-.1 0 0 .2.1.2zm11.1 1.9l4 1.1c.1 0 .2 0 .3-.1l.3-1.2c0-.1 0-.2-.1-.3l-2.5-.7 1.5-5.7c0-.1 0-.2-.1-.3l-1.3-.3c-.1 0-.2 0-.3.1l-1.9 7c0 .3 0 .4.1.4M5.5 60.1c.8.2 1.6-.3 1.8-1.1 1.2-4.8 2.9-9.4 5-13.8.4-.8 0-1.7-.7-2s-1.6 0-2 .7c-2.2 4.6-4 9.5-5.2 14.4-.1.8.3 1.6 1.1 1.8m-.2 16c0-.8-.7-1.5-1.5-1.5s-1.5.7-1.5 1.5c0 19.5 7.6 38 21.4 52 .3.3.7.4 1.1.4.8 0 1.5-.7 1.5-1.5 0-.4-.2-.8-.4-1.1C12.6 112.5 5.3 94.8 5.3 76.1m120.3 50.5c-13.4 13.3-31 20.7-49.6 20.7-14.8 0-29-4.6-41.1-13.4-.7-.5-1.6-.4-2.1.3s-.4 1.6.3 2.1h.1c12.6 9.1 27.4 13.9 42.8 13.9 19.4 0 37.8-7.6 51.7-21.5.6-.6.5-1.6-.1-2.1-.5-.6-1.4-.6-2 0m-96.1 2.9c-.6-.6-1.6-.5-2.1.1-.6.6-.5 1.6.1 2.1.5.4 1 .8 1.4 1.2.3.2.6.3 1 .3.8 0 1.5-.7 1.5-1.5 0-.4-.2-.9-.5-1.2-.5-.2-1-.6-1.4-1m113.7-83.8c-.4-.8-1.3-1.1-2-.7-.7.3-1 1.2-.7 1.9 4.1 9.2 6.2 19.1 6.2 29.2 0 13.7-3.9 27-11.4 38.5-.5.7-.3 1.6.4 2.1s1.6.3 2.1-.4c7.8-12 11.9-25.9 11.9-40.2 0-10.5-2.2-20.9-6.5-30.4m-6.4-8.9c.7-.5.9-1.4.4-2.1-5.5-8.3-12.7-15.4-21-20.8-.7-.5-1.6-.3-2.1.4s-.3 1.6.4 2.1c8 5.2 14.9 12 20.2 20 .4.7 1.4.9 2.1.4M104.4 11c1.1.5 2.3 1 3.4 1.6.8.3 1.6 0 2-.7.3-.7 0-1.6-.6-2-1.2-.6-2.3-1.1-3.5-1.7-.8-.3-1.6.1-2 .8-.3.8 0 1.7.7 2m-55.5-.6c.8-.3 1.2-1.2.9-1.9-.3-.8-1.2-1.2-1.9-.9h-.1c-2.1.9-4.2 1.9-6.3 3-7.1 3.8-13.6 8.7-19.1 14.6-.1 0-.1.1-.2.1-3 3.2-5.7 6.7-8.1 10.4-.5.7-.3 1.6.4 2.1s1.6.3 2.1-.4v-.1l.1-.1c6.6-10.1 15.5-18.3 26.1-23.9 2.1-1.1 4.1-2 6.1-2.9"/></svg>