<?xml version="1.0" encoding="UTF-8"?>
<svg viewBox="0 0 152 152" xmlns="http://www.w3.org/2000/svg">
<path d="m30.5 15.5c0.9-0.7 1.7-0.9 2.7-0.8 0.1 0 0.2 0.1 0.2 0.2l-0.1 1.2c0 0.1-0.1 0.2-0.2 0.2-0.5 0-1.1 0.1-1.5 0.5-1 0.8-1.1 2.1-0.3 3.1 0.7 1 2.1 1.2 3.1 0.5 0.4-0.3 0.7-0.8 0.8-1.3 0-0.1 0.1-0.2 0.2-0.2l1.2 0.2c0.1 0 0.2 0.1 0.2 0.2-0.2 1-0.7 1.9-1.5 2.5-1.7 1.3-4.2 1-5.5-0.7-1.3-1.8-1-4.3 0.7-5.6m6.7-4.2c-0.1-0.1 0-0.2 0.1-0.3l1.1-0.7c0.1-0.1 0.2 0 0.3 0.1l3.6 6.2c0.1 0.1 0 0.2-0.1 0.3l-1.1 0.7c-0.1 0.1-0.2 0-0.3-0.1 0.1 0.1-3.6-6.2-3.6-6.2zm6-3.1c-0.1-0.1-0.1-0.3 0.1-0.3l1.3-0.6h0.2l3.2 3h0.1l0.1-4.4c0-0.1 0.1-0.1 0.1-0.2l1.3-0.6c0.2-0.1 0.3 0 0.3 0.2l-0.3 8.1c0 0.1-0.1 0.2-0.1 0.2h-0.3l-6-5.4zm11.3-4.4c0-0.1 0-0.2 0.1-0.3l1.3-0.4c0.1 0 0.2 0 0.3 0.1l2 7c0 0.1 0 0.2-0.1 0.3l-1.3 0.4c-0.1 0-0.2 0-0.3-0.1 0-0.1-2-7-2-7zm10.7-2.7c1.1-0.2 1.9 0.1 2.8 0.6 0.1 0.1 0.1 0.2 0.1 0.3l-0.7 1c-0.1 0.1-0.2 0.1-0.3 0-0.5-0.3-1-0.4-1.5-0.3-1.2 0.2-2 1.3-1.8 2.5s1.2 2.1 2.4 1.9c0.5-0.1 1-0.3 1.4-0.7 0.2-0.1 0.2-0.1 0.4 0l1 0.8c0.1 0.1 0.1 0.2 0 0.3-0.6 0.8-1.5 1.3-2.5 1.4-2.1 0.3-4.1-1.1-4.5-3.3-0.5-2.1 1-4.2 3.2-4.5m9.6 4.2c0-0.7 0.5-1.2 1.1-1.2 0.7 0 1.2 0.5 1.2 1.2 0 0.6-0.5 1.1-1.2 1.1-0.6 0.1-1.1-0.4-1.1-1.1m9.7-4.2c0-0.1 0.1-0.2 0.2-0.2l1.3 0.2c0.1 0 0.2 0.1 0.2 0.2l-0.8 5.8 2.6 0.4c0.1 0 0.2 0.1 0.2 0.2l-0.2 1.2c0 0.1-0.1 0.2-0.2 0.2l-4.1-0.6c-0.1 0-0.2-0.1-0.2-0.2l1-7.2zm9.4 1.7c0-0.1 0.1-0.2 0.3-0.2l1.3 0.3c0.1 0 0.2 0.1 0.1 0.3l-1.8 7c0 0.1-0.1 0.2-0.3 0.1l-1.3-0.3c-0.1 0-0.2-0.1-0.2-0.3 0.1 0.1 1.9-6.9 1.9-6.9zm7.2 2.2c0.1-0.1 0.2-0.2 0.3-0.1l1.2 0.5c0.1 0.1 0.2 0.2 0.1 0.3l-1.1 2.7 3.4-1.9h0.2l1.3 0.5c0.2 0.1 0.2 0.3 0 0.4l-3.6 2 1.3 4.4c0 0.1-0.1 0.3-0.2 0.3h-0.2l-1.4-0.6c-0.1 0-0.1-0.1-0.2-0.1l-1-4.1-1.2 3c-0.1 0.1-0.2 0.2-0.3 0.1l-1.2-0.5c-0.1-0.1-0.2-0.2-0.1-0.3 0.2 0 2.8-6.6 2.7-6.6zm10.5 4.6c0.1-0.1 0.2-0.1 0.3-0.1l3.9 2.3c0.1 0.1 0.1 0.2 0.1 0.3l-0.6 1c-0.1 0.1-0.2 0.1-0.3 0.1l-2.6-1.5-0.7 1.2 2.2 1.2c0.1 0.1 0.1 0.2 0.1 0.3l-0.6 1c-0.1 0.1-0.2 0.1-0.3 0.1l-2.2-1.2-0.7 1.3 2.6 1.5c0.1 0.1 0.1 0.2 0.1 0.3l-0.6 1c-0.1 0.1-0.2 0.1-0.3 0.1l-3.9-2.3c-0.1-0.1-0.1-0.2-0.1-0.3l3.6-6.3zm9.6 10c0.3 0.3 0.9 0.2 1.2-0.2s0.2-0.9-0.1-1.2l-1.3-1-1.1 1.3 1.3 1.1zm-0.7-4.4c0.1-0.1 0.2-0.1 0.3 0l2.6 2c1 0.8 1.2 2.3 0.4 3.3-0.6 0.8-1.6 1-2.6 0.7l-0.5 3.1c0 0.2-0.2 0.2-0.3 0.1l-1.1-0.9c-0.1 0-0.1-0.1-0.1-0.2l0.7-3.2-0.6-0.5-1.7 2.2c-0.1 0.1-0.2 0.1-0.3 0l-1-0.8c-0.1-0.1-0.1-0.2 0-0.3-0.3 0.2 4.2-5.5 4.2-5.5zm-105.1 23.1c-0.8 0-1.5-0.7-1.5-1.5 0-0.3 0.1-0.6 0.2-0.8 2.4-3.7 5.1-7.1 8.1-10.3 0.6-0.6 1.5-0.6 2.1-0.1 0.6 0.6 0.6 1.5 0.1 2.1-2.9 3.1-5.5 6.4-7.7 9.9-0.4 0.4-0.8 0.7-1.3 0.7m-9.6 21.9c-0.8 0-1.5-0.7-1.5-1.5v-0.4c1.2-5 3-9.8 5.2-14.4 0.4-0.7 1.3-1 2-0.7 0.7 0.4 1 1.2 0.7 2-2.1 4.4-3.8 9-5 13.8-0.1 0.8-0.7 1.2-1.4 1.2m18.8 68c-0.4 0-0.8-0.2-1.1-0.4-13.7-14-21.3-32.4-21.3-51.7 0-0.8 0.7-1.5 1.5-1.5s1.5 0.7 1.5 1.5c0 18.6 7.3 36.2 20.5 49.6 0.6 0.6 0.6 1.5 0 2.1-0.3 0.3-0.7 0.4-1.1 0.4m51.3 21.5c-15.4 0-30.2-4.8-42.8-13.9-0.7-0.5-0.9-1.4-0.4-2.1s1.4-0.9 2.1-0.4h0.1c12.1 8.7 26.3 13.3 41.1 13.3 18.6 0 36.2-7.3 49.6-20.5 0.6-0.6 1.5-0.6 2.1 0s0.6 1.5 0 2.1c-14 14-32.4 21.5-51.8 21.5m-46-16.8c-0.3 0-0.7-0.1-1-0.3-0.5-0.4-1-0.8-1.4-1.2-0.6-0.6-0.6-1.5-0.1-2.1s1.4-0.6 2.1-0.1c0.5 0.4 0.9 0.8 1.4 1.2 0.6 0.5 0.7 1.5 0.2 2.1-0.3 0.2-0.7 0.4-1.2 0.4m106.7-16.2c-0.8 0-1.5-0.7-1.5-1.5 0-0.3 0.1-0.6 0.2-0.8 7.5-11.5 11.4-24.7 11.4-38.3 0-10-2.1-19.9-6.2-29-0.3-0.8 0-1.6 0.8-2 0.8-0.3 1.6 0 2 0.8 4.3 9.5 6.5 19.8 6.5 30.3 0 14.2-4.1 28-11.9 40-0.4 0.2-0.8 0.5-1.3 0.5m-0.7-79.5c-0.5 0-1-0.2-1.2-0.7-1.9-2.9-4.1-5.6-6.4-8.2-0.5-0.6-0.5-1.6 0.2-2.1 0.6-0.5 1.5-0.5 2.1 0.1 2.4 2.7 4.7 5.5 6.7 8.5 0.5 0.7 0.3 1.6-0.4 2.1-0.4 0.2-0.7 0.3-1 0.3"/>
</svg>
