<?xml version="1.0" encoding="UTF-8"?>
<svg enable-background="new 0 0 148 148" version="1.1" viewBox="0 0 148 148" xml:space="preserve" xmlns="http://www.w3.org/2000/svg">
<path d="m32 18.5c0-0.1 0-0.1-0.1-0.2l-0.8-0.1c-0.1 0-0.1 0-0.2 0.1-0.1 0.3-0.3 0.7-0.5 0.9-0.6 0.5-1.5 0.4-2.1-0.2-0.5-0.6-0.5-1.5 0.2-2.1 0.3-0.2 0.6-0.3 1-0.3 0.1 0 0.1 0 0.1-0.1l0.1-0.8c0-0.1 0-0.1-0.1-0.2-0.7 0-1.2 0.1-1.8 0.6-1.1 0.9-1.3 2.6-0.4 3.7s2.6 1.3 3.7 0.4c0.5-0.5 0.8-1.1 0.9-1.7m2.8-1.4c0 0.1 0.1 0.1 0.2 0l0.7-0.5c0.1 0 0.1-0.1 0-0.2l-2.7-4c0-0.1-0.1-0.1-0.2 0l-0.7 0.5c-0.1 0-0.1 0.1 0 0.2l2.7 4zm5.2-3.1h0.1 0.1l0.1-0.1-0.4-5.4c0-0.1-0.1-0.2-0.2-0.1l-0.8 0.5-0.1 0.1 0.3 2.9-2.4-1.7h-0.1l-0.8 0.5c-0.1 0.1-0.1 0.2 0 0.2-0.2-0.1 4.2 3.1 4.2 3.1zm4.7-2.6c0 0.1 0.1 0.1 0.2 0.1l0.8-0.4c0.1 0 0.1-0.1 0.1-0.2l-2-4.4c0-0.1-0.1-0.1-0.2-0.1l-0.8 0.4c-0.1 0-0.1 0.1-0.1 0.2l2 4.4zm6.3-2.3c0.6-0.2 1.1-0.7 1.4-1.3 0-0.1 0-0.2-0.1-0.2l-0.7-0.4c-0.1 0-0.1 0-0.2 0.1-0.2 0.3-0.5 0.5-0.8 0.7-0.8 0.3-1.6-0.1-1.9-0.9s0.1-1.6 0.8-1.9c0.5-0.2 0.9-0.2 1.2-0.1 0.1 0 0.1 0 0.2-0.1l0.3-0.8c0-0.1 0-0.1-0.1-0.2-0.6-0.3-1.2-0.3-1.9 0-1.4 0.5-2.1 2-1.6 3.4s2 2.2 3.4 1.7m6-3c0.4-0.1 0.7-0.5 0.6-0.9s-0.5-0.7-1-0.6c-0.4 0.1-0.7 0.5-0.6 1 0.2 0.3 0.6 0.6 1 0.5m5.4-0.1 2.7-0.4c0.1 0 0.1-0.1 0.1-0.2l-0.1-0.8c0-0.1-0.1-0.1-0.2-0.1l-1.7 0.3-0.5-3.8c0-0.1-0.1-0.1-0.2-0.1l-0.8 0.1c-0.1 0-0.1 0.1-0.1 0.2l0.7 4.8s0 0.1 0.1 0m5.8-0.7 0.9-0.1c0.1 0 0.1-0.1 0.1-0.1l-0.4-4.8c0-0.1-0.1-0.1-0.2-0.1l-0.9 0.1c-0.1 0-0.1 0.1-0.1 0.1l0.4 4.8c0.1 0.1 0.1 0.1 0.2 0.1m4.5-0.2h0.9c0.1 0 0.2-0.1 0.2-0.2v-2.2l1.7 2.3 0.1 0.1h1c0.1 0 0.2-0.1 0.2-0.2v-0.1l-1.8-2.5 1.7-2.1c0.1-0.1 0-0.3-0.1-0.3h-0.9s-0.1 0-0.1 0.1l-1.6 2v-1.9c0-0.1-0.1-0.2-0.2-0.2h-0.9c-0.1 0-0.2 0.1-0.2 0.2l-0.1 4.8c-0.1 0.1 0 0.2 0.1 0.2m7 0.3 3 0.3c0.1 0 0.1 0 0.2-0.1l0.1-0.8c0-0.1 0-0.1-0.1-0.2l-2-0.2 0.1-1 1.7 0.2c0.1 0 0.1 0 0.2-0.1l0.1-0.8c0-0.1 0-0.1-0.1-0.2l-1.9-0.1 0.1-0.9 2 0.2c0.1 0 0.1 0 0.2-0.1l0.1-0.8c0-0.1 0-0.1-0.1-0.2l-3-0.3c-0.1 0-0.1 0-0.2 0.1l-0.5 4.8c-0.1 0.1 0 0.2 0.1 0.2m8.1-3 1.1 0.2c0.3 0.1 0.5 0.4 0.4 0.7s-0.4 0.5-0.7 0.5l-1.1-0.2 0.3-1.2zm-1.8 3.8 0.8 0.2c0.1 0 0.1 0 0.2-0.1l0.4-1.8 0.5 0.1 0.6 2.1 0.1 0.1 0.9 0.2c0.1 0 0.2-0.1 0.2-0.2l-0.6-2c0.7-0.1 1.2-0.6 1.4-1.2 0.2-0.9-0.4-1.7-1.2-1.9l-2.3-0.5c-0.1 0-0.1 0-0.2 0.1l-1 4.7c0 0.1 0.1 0.2 0.2 0.2zm8.7 1c0.4 0.1 0.9-0.1 1-0.5s-0.1-0.9-0.5-1-0.8 0.1-1 0.5c-0.2 0.5 0.1 0.9 0.5 1m6.3 1.3 0.5 0.2c0.3 0.1 0.5 0.4 0.3 0.7-0.1 0.3-0.4 0.4-0.7 0.3l-0.6-0.3 0.5-0.9zm0.8-1.8 0.5 0.2c0.3 0.1 0.4 0.4 0.3 0.6-0.1 0.3-0.4 0.4-0.7 0.3l-0.5-0.2 0.4-0.9zm-0.8 4.1c0.8 0.3 1.7 0.1 2-0.7 0.3-0.6-0.1-1.2-0.4-1.5 0.4 0 1-0.2 1.2-0.7 0.3-0.7-0.1-1.5-0.9-1.9l-1.6-0.7c-0.1 0-0.2 0-0.2 0.1l-1.9 4.4c0 0.1 0 0.2 0.1 0.2l1.7 0.8zm6.9 3.4c0.1 0 0.2 0 0.2-0.1l0.4-0.7c0-0.1 0-0.2-0.1-0.2l-1.8-1 0.5-0.9 1.5 0.8c0.1 0 0.2 0 0.2-0.1l0.4-0.7c0-0.1 0-0.1-0.1-0.2l-1.5-0.8 0.4-0.8 1.8 1c0.1 0 0.2 0 0.2-0.1l0.4-0.7c0-0.1 0-0.2-0.1-0.2l-2.7-1.4c-0.1 0-0.2 0-0.2 0.1l-2.3 4.2c0 0.1 0 0.1 0.1 0.2 0 0.2 2.7 1.6 2.7 1.6zm4.1 2.6h0.2l2.2-3.2 0.9 0.6h0.2l0.4-0.7v-0.2l-2.7-1.8h-0.2l-0.4 0.7v0.2l0.9 0.6-2.2 3.2v0.2c0-0.1 0.7 0.4 0.7 0.4zm6.4 1.1-0.3 1.3-0.9-0.7 1.2-0.6zm-3.6 0.8 0.6 0.5c0.1 0.1 0.2 0.1 0.3 0l0.6-0.3 1.5 1.2-0.2 0.6c0 0.1 0 0.2 0.1 0.3l0.6 0.5c0.1 0.1 0.2 0 0.2-0.1l1.3-5.3v-0.1h-0.1-0.1l-4.9 2.4c0 0.1 0 0.3 0.1 0.3zm-102.4 16.8c0.7 0.5 1.6 0.3 2.1-0.4 2.5-3.9 5.5-7.5 8.7-10.9 0.6-0.6 0.6-1.5 0-2.1s-1.5-0.6-2.1 0c-3.4 3.5-6.4 7.3-9.1 11.3-0.5 0.7-0.3 1.6 0.4 2.1m-9.1 22.2c0.8 0.2 1.6-0.3 1.8-1.1 1.2-4.7 2.9-9.4 5-13.8 0.3-0.8 0-1.6-0.7-2-0.7-0.3-1.6 0-2 0.7-2.2 4.6-4 9.4-5.2 14.4-0.2 0.8 0.3 1.6 1.1 1.8m-0.3 15.9c0-0.8-0.7-1.5-1.5-1.5s-1.5 0.7-1.5 1.5c0 19.4 7.6 37.8 21.4 51.7 0.3 0.3 0.7 0.4 1.1 0.4 0.8 0 1.5-0.7 1.5-1.5 0-0.4-0.2-0.8-0.4-1.1-13.3-13.3-20.6-30.9-20.6-49.5m120.3 50.2c-13.4 13.2-31 20.5-49.6 20.5-14.8 0-29-4.6-41.1-13.3-0.7-0.5-1.6-0.4-2.1 0.3s-0.4 1.6 0.3 2.1c12.6 9.1 27.4 13.9 42.8 13.9 19.4 0 37.8-7.6 51.7-21.4 0.6-0.6 0.6-1.5 0-2.1-0.4-0.6-1.4-0.6-2 0m-96.1 2.9c-0.6-0.5-1.6-0.5-2.1 0.1s-0.5 1.6 0.1 2.1c0.5 0.4 1 0.8 1.4 1.2 0.6 0.5 1.6 0.4 2.1-0.2s0.4-1.6-0.2-2.1c-0.4-0.3-0.8-0.7-1.3-1.1m113.7-83.4c-0.3-0.8-1.2-1.1-2-0.8s-1.1 1.2-0.8 2v0.1c4.1 9.1 6.2 19 6.2 29 0 13.6-3.9 26.9-11.4 38.3-0.5 0.7-0.3 1.6 0.4 2.1s1.6 0.3 2.1-0.4c7.8-12 11.9-25.8 11.9-40 0.1-10.4-2.1-20.7-6.4-30.3m-6.4-8.7c0.7-0.5 0.9-1.4 0.4-2.1-2.6-3.9-5.6-7.5-8.9-10.8-0.6-0.6-1.5-0.6-2.1 0s-0.6 1.5 0 2.1c3.2 3.2 6 6.7 8.5 10.4 0.5 0.6 1.4 0.8 2.1 0.4"/>
</svg>
