<svg xmlns="http://www.w3.org/2000/svg" viewBox="0 0 365.51 109.23"><defs><style>.a{fill:#8c293c}</style></defs><path class="a" d="M43.27 69l11.94-25.69a.79.79 0 0 1 .65-.42h.38a.77.77 0 0 1 .65.42L68.84 69a.67.67 0 0 1-.65 1H64c-.68 0-1-.23-1.33-1l-1.38-3H50.86l-1.37 3a1.41 1.41 0 0 1-1.37.91h-4.2a.67.67 0 0 1-.65-.91zM59 60.82l-2.9-6.29-2.87 6.29zM83.42 44a.72.72 0 0 1 .72-.73h9.2a8.51 8.51 0 1 1 0 17h-4v9a.74.74 0 0 1-.72.72h-4.48a.72.72 0 0 1-.72-.72zM93 54.72a3 3 0 0 0 3-3 2.91 2.91 0 0 0-3-2.82h-3.63v5.84zM117.23 44a.73.73 0 0 1 .73-.73h9.2a8.51 8.51 0 1 1 0 17h-4v9a.75.75 0 0 1-.73.72H118a.73.73 0 0 1-.73-.72zm9.58 10.72a3 3 0 0 0 3-3 2.91 2.91 0 0 0-3-2.82h-3.62v5.84zM151.05 44a.73.73 0 0 1 .72-.73h11.42a8.29 8.29 0 0 1 8.31 8.24c0 3.51-2.32 6.34-5.64 7.67l5.22 9.7a.72.72 0 0 1-.64 1.1h-5.08a.72.72 0 0 1-.61-.34l-5.08-10.11H157v9.73a.74.74 0 0 1-.72.72h-4.55a.72.72 0 0 1-.72-.72zm11.64 10.68a3.06 3.06 0 0 0 2.9-3 2.92 2.92 0 0 0-2.9-2.9H157v6zM199.83 42.89a13.74 13.74 0 1 1-13.7 13.78 13.71 13.71 0 0 1 13.7-13.78zm0 21.37a7.64 7.64 0 1 0-7.6-7.59 7.65 7.65 0 0 0 7.6 7.59zM226 44.26a.67.67 0 0 1 .65-1h5.08a.73.73 0 0 1 .64.42l6.3 13.93h.23l6.3-13.93a.74.74 0 0 1 .65-.42h5.07a.67.67 0 0 1 .65 1L239.56 70a.76.76 0 0 1-.65.42h-.38a.73.73 0 0 1-.65-.42zM266.12 44a.73.73 0 0 1 .73-.73h15.8a.72.72 0 0 1 .72.73v4.16a.72.72 0 0 1-.72.72h-10.58v4.73h8.71a.75.75 0 0 1 .72.73v4.16a.72.72 0 0 1-.72.72h-8.71v5.15h10.58a.73.73 0 0 1 .72.73v4.16a.72.72 0 0 1-.72.72h-15.8a.73.73 0 0 1-.73-.72zM299.94 44a.71.71 0 0 1 .68-.73h9.32a13.36 13.36 0 1 1 0 26.71h-9.32a.71.71 0 0 1-.68-.72zm9.61 20.34a7.43 7.43 0 0 0 7.45-7.75 7.42 7.42 0 0 0-7.45-7.71h-3.66v15.46z"/><path class="a" d="M349.54 109.23H300a2.5 2.5 0 0 1 0-5h49.53c6 0 11-4 11-9V14c0-5-4.92-9-11-9h-222a2.5 2.5 0 1 1 0-5h222c8.81 0 16 6.28 16 14v81.24c-.02 7.76-7.18 13.99-15.99 13.99zM2.5 28.23a2.5 2.5 0 0 1-2.5-2.5V14C0 6.28 7.16 0 16 0h86.32a2.5 2.5 0 0 1 0 5H16C9.92 5 5 9 5 14v11.73a2.5 2.5 0 0 1-2.5 2.5zM231.51 109.23H16c-8.81 0-16-6.28-16-14v-55a2.5 2.5 0 0 1 5 0v55c0 5 4.92 9 11 9h215.51a2.5 2.5 0 0 1 0 5zM275 109.23h-26.5a2.5 2.5 0 0 1 0-5H275a2.5 2.5 0 0 1 0 5z"/><path class="a" d="M121 97.73H16.1a5.11 5.11 0 0 1-5.1-5.1V17.82a5.11 5.11 0 0 1 5.1-5.1h86.78a1.5 1.5 0 0 1 0 3H16.1a2.1 2.1 0 0 0-2.1 2.1v74.81a2.1 2.1 0 0 0 2.1 2.1H121a1.5 1.5 0 0 1 0 3zM245.26 97.73H135a1.5 1.5 0 0 1 0-3h110.26a1.5 1.5 0 0 1 0 3zM349.42 97.73H309a1.5 1.5 0 0 1 0-3h40.41a2.1 2.1 0 0 0 2.09-2.1V17.82a2.1 2.1 0 0 0-2.09-2.1H140a1.5 1.5 0 0 1 0-3h209.42a5.1 5.1 0 0 1 5.09 5.1v74.81a5.1 5.1 0 0 1-5.09 5.1zM125 15.72h-8a1.5 1.5 0 0 1 0-3h8a1.5 1.5 0 1 1 0 3z"/></svg>