<svg xmlns="http://www.w3.org/2000/svg" viewBox="0 0 365.51 109.23"><defs><style>.a{fill:#8c293c;}</style></defs><title>approved</title><path class="a" d="M43.27,69,55.21,43.31a.79.79,0,0,1,.65-.42h.38a.77.77,0,0,1,.65.42L68.84,69a.67.67,0,0,1-.65,1H64c-.68,0-1-.23-1.33-1l-1.38-3H50.86l-1.37,3a1.41,1.41,0,0,1-1.37.91h-4.2A.67.67,0,0,1,43.27,69ZM59,60.82l-2.9-6.29h0l-2.87,6.29Z"/><path class="a" d="M83.42,44a.72.72,0,0,1,.72-.73h9.2a8.51,8.51,0,1,1,0,17h-4v9a.74.74,0,0,1-.72.72H84.14a.72.72,0,0,1-.72-.72ZM93,54.72a3,3,0,0,0,3-3,2.91,2.91,0,0,0-3-2.82H89.37v5.84Z"/><path class="a" d="M117.23,44a.73.73,0,0,1,.73-.73h9.2a8.51,8.51,0,1,1,0,17h-4v9a.75.75,0,0,1-.73.72H118a.73.73,0,0,1-.73-.72Zm9.58,10.72a3,3,0,0,0,3-3,2.91,2.91,0,0,0-3-2.82h-3.62v5.84Z"/><path class="a" d="M151.05,44a.73.73,0,0,1,.72-.73h11.42a8.29,8.29,0,0,1,8.31,8.24c0,3.51-2.32,6.34-5.64,7.67l5.22,9.7a.72.72,0,0,1-.64,1.1h-5.08a.72.72,0,0,1-.61-.34l-5.08-10.11H157v9.73a.74.74,0,0,1-.72.72h-4.55a.72.72,0,0,1-.72-.72Zm11.64,10.68a3.06,3.06,0,0,0,2.9-3,2.92,2.92,0,0,0-2.9-2.9H157v6Z"/><path class="a" d="M199.83,42.89a13.74,13.74,0,1,1-13.7,13.78A13.71,13.71,0,0,1,199.83,42.89Zm0,21.37a7.64,7.64,0,1,0-7.6-7.59A7.65,7.65,0,0,0,199.83,64.26Z"/><path class="a" d="M226,44.26a.67.67,0,0,1,.65-1h5.08a.73.73,0,0,1,.64.42l6.3,13.93h.23l6.3-13.93a.74.74,0,0,1,.65-.42h5.07a.67.67,0,0,1,.65,1L239.56,70a.76.76,0,0,1-.65.42h-.38a.73.73,0,0,1-.65-.42Z"/><path class="a" d="M266.12,44a.73.73,0,0,1,.73-.73h15.8a.72.72,0,0,1,.72.73v4.16a.72.72,0,0,1-.72.72H272.07v4.73h8.71a.75.75,0,0,1,.72.73V58.5a.72.72,0,0,1-.72.72h-8.71v5.15h10.58a.73.73,0,0,1,.72.73v4.16a.72.72,0,0,1-.72.72h-15.8a.73.73,0,0,1-.73-.72Z"/><path class="a" d="M299.94,44a.71.71,0,0,1,.68-.73h9.32a13.36,13.36,0,1,1,0,26.71h-9.32a.71.71,0,0,1-.68-.72Zm9.61,20.34A7.43,7.43,0,0,0,317,56.59a7.42,7.42,0,0,0-7.45-7.71h-3.66V64.34Z"/><path class="a" d="M349.54,109.23H300a2.5,2.5,0,0,1,0-5h49.53c6,0,11-4,11-9V14c0-5-4.92-9-11-9h-222a2.5,2.5,0,1,1,0-5h222c8.81,0,16,6.28,16,14V95.24C365.51,103,358.35,109.23,349.54,109.23Z"/><path class="a" d="M2.5,28.23A2.5,2.5,0,0,1,0,25.73V14C0,6.28,7.16,0,16,0h86.32a2.5,2.5,0,0,1,0,5H16C9.92,5,5,9,5,14V25.73A2.5,2.5,0,0,1,2.5,28.23Z"/><path class="a" d="M231.51,109.23H16c-8.81,0-16-6.28-16-14v-55a2.5,2.5,0,0,1,5,0v55c0,5,4.92,9,11,9H231.51a2.5,2.5,0,0,1,0,5Z"/><path class="a" d="M275,109.23h-26.5a2.5,2.5,0,0,1,0-5H275a2.5,2.5,0,0,1,0,5Z"/><path class="a" d="M121,97.73H16.1a5.11,5.11,0,0,1-5.1-5.1V17.82a5.11,5.11,0,0,1,5.1-5.1h86.78a1.5,1.5,0,0,1,0,3H16.1a2.1,2.1,0,0,0-2.1,2.1V92.63a2.1,2.1,0,0,0,2.1,2.1H121a1.5,1.5,0,0,1,0,3Z"/><path class="a" d="M245.26,97.73H135a1.5,1.5,0,0,1,0-3H245.26a1.5,1.5,0,0,1,0,3Z"/><path class="a" d="M349.42,97.73H309a1.5,1.5,0,0,1,0-3h40.41a2.1,2.1,0,0,0,2.09-2.1V17.82a2.1,2.1,0,0,0-2.09-2.1H140a1.5,1.5,0,0,1,0-3H349.42a5.1,5.1,0,0,1,5.09,5.1V92.63A5.1,5.1,0,0,1,349.42,97.73Z"/><path class="a" d="M125,15.72h-8a1.5,1.5,0,0,1,0-3h8a1.5,1.5,0,1,1,0,3Z"/></svg>