<svg viewBox="0 0 316.7 191.31" xmlns="http://www.w3.org/2000/svg"><path d="M78.88 39.33h-3.15a.42.42 0 0 1-.42-.42v-2.39a.42.42 0 0 1 .42-.42h9.77a.42.42 0 0 1 .42.42v2.39a.42.42 0 0 1-.42.42h-3.15v11.75a.44.44 0 0 1-.42.42h-2.64a.43.43 0 0 1-.41-.42zm15.84-2.81a.42.42 0 0 1 .42-.42h6.57a4.7 4.7 0 0 1 1.54 9.17l3 5.59a.42.42 0 0 1-.38.64H103a.39.39 0 0 1-.35-.2l-2.93-5.83h-1.55v5.61a.44.44 0 0 1-.42.42h-2.61a.42.42 0 0 1-.42-.42zm6.71 6.16a1.77 1.77 0 0 0 1.67-1.76 1.69 1.69 0 0 0-1.67-1.68h-3.26v3.44zm14.63-6.16a.44.44 0 0 1 .42-.42h2.64a.44.44 0 0 1 .42.42v14.56a.44.44 0 0 1-.42.42h-2.64a.44.44 0 0 1-.42-.42zm11.88 14.41l6.89-14.81a.44.44 0 0 1 .37-.24h.22a.46.46 0 0 1 .38.24l6.88 14.81a.38.38 0 0 1-.37.57h-2.44c-.4 0-.58-.13-.77-.55l-.8-1.74h-6l-.77 1.79a.81.81 0 0 1-.79.53h-2.42a.39.39 0 0 1-.38-.6zm9-4.71l-1.67-3.63-1.65 3.63zm14.15-9.7a.42.42 0 0 1 .42-.42h2.61a.44.44 0 0 1 .42.42v11.75h5.24a.41.41 0 0 1 .42.41v2.4a.42.42 0 0 1-.42.42h-8.27a.42.42 0 0 1-.42-.42z"/></svg>