<?xml version="1.0" encoding="UTF-8"?>
<svg viewBox="0 0 316.7 191.31" xmlns="http://www.w3.org/2000/svg">
<path d="M78.88,39.33H75.73a.42.42,0,0,1-.42-.42V36.52a.42.42,0,0,1,.42-.42H85.5a.42.42,0,0,1,.42.42v2.39a.42.42,0,0,1-.42.42H82.35V51.08a.44.44,0,0,1-.42.42H79.29a.43.43,0,0,1-.41-.42Z"/>
<path d="M94.72,36.52a.42.42,0,0,1,.42-.42h6.57a4.7,4.7,0,0,1,1.54,9.17l3,5.59a.42.42,0,0,1-.38.64H103a.39.39,0,0,1-.35-.2l-2.93-5.83H98.17v5.61a.44.44,0,0,1-.42.42H95.14a.42.42,0,0,1-.42-.42Zm6.71,6.16a1.77,1.77,0,0,0,1.67-1.76,1.69,1.69,0,0,0-1.67-1.68H98.17v3.44Z"/>
<path d="M116.06,36.52a.44.44,0,0,1,.42-.42h2.64a.44.44,0,0,1,.42.42V51.08a.44.44,0,0,1-.42.42h-2.64a.44.44,0,0,1-.42-.42Z"/>
<path d="M127.94,50.93l6.89-14.81a.44.44,0,0,1,.37-.24h.22a.46.46,0,0,1,.38.24l6.88,14.81a.38.38,0,0,1-.37.57h-2.44c-.4,0-.58-.13-.77-.55l-.8-1.74h-6L131.53,51a.81.81,0,0,1-.79.53h-2.42A.39.39,0,0,1,127.94,50.93Zm9-4.71-1.67-3.63h0l-1.65,3.63Z"/>
<path d="M151.09,36.52a.42.42,0,0,1,.42-.42h2.61a.44.44,0,0,1,.42.42V48.27h5.24a.41.41,0,0,1,.42.41v2.4a.42.42,0,0,1-.42.42h-8.27a.42.42,0,0,1-.42-.42Z"/>
</svg>
