<svg viewBox="0 0 316.7 191.31" xmlns="http://www.w3.org/2000/svg"><path d="M264.37 44.9a1 1 0 0 1-1-1V39a1 1 0 1 1 2 0v4.9a1 1 0 0 1-1 1z"/><path d="M264.37 44.91a1.18 1.18 0 0 1-.31 0l-4.63-1.51a1 1 0 1 1 .62-1.9l4.63 1.5a1 1 0 0 1 .64 1.26 1 1 0 0 1-.95.65z"/><path d="M261.51 48.85a1.06 1.06 0 0 1-.59-.19 1 1 0 0 1-.22-1.4l2.86-3.94a1 1 0 0 1 1.4-.22 1 1 0 0 1 .22 1.39l-2.86 3.94a1 1 0 0 1-.81.42z"/><path d="M267.24 48.85a1 1 0 0 1-.81-.42l-2.87-3.94a1 1 0 0 1 .23-1.39 1 1 0 0 1 1.39.22l2.87 3.94a1 1 0 0 1-.22 1.4 1.09 1.09 0 0 1-.59.19z"/><path d="M264.37 44.91a1 1 0 0 1-.31-2l4.64-1.5a1 1 0 0 1 .62 1.9l-4.64 1.51a1.06 1.06 0 0 1-.31.09zM282.57 44.9a1 1 0 0 1-1-1V39a1 1 0 0 1 2 0v4.9a1 1 0 0 1-1 1z"/><path d="M282.57 44.91a1.18 1.18 0 0 1-.31 0l-4.63-1.51a1 1 0 1 1 .62-1.9l4.63 1.5a1 1 0 0 1-.31 2z"/><path d="M279.71 48.85a1.06 1.06 0 0 1-.59-.19 1 1 0 0 1-.22-1.4l2.86-3.94a1 1 0 0 1 1.4-.22 1 1 0 0 1 .22 1.39l-2.86 3.94a1 1 0 0 1-.81.42z"/><path d="M285.44 48.85a1 1 0 0 1-.81-.42l-2.87-3.94a1 1 0 0 1 1.62-1.17l2.87 3.94a1 1 0 0 1-.23 1.4 1 1 0 0 1-.58.19z"/><path d="M282.57 44.91a1 1 0 0 1-.31-2l4.64-1.5a1 1 0 0 1 .62 1.9l-4.64 1.51a1.12 1.12 0 0 1-.31.09zM246.17 44.9a1 1 0 0 1-1-1V39a1 1 0 0 1 2 0v4.9a1 1 0 0 1-1 1z"/><path d="M246.17 44.91a1.18 1.18 0 0 1-.31 0l-4.63-1.51a1 1 0 1 1 .62-1.9l4.63 1.5a1 1 0 0 1-.31 2z"/><path d="M243.31 48.85a1.09 1.09 0 0 1-.59-.19 1 1 0 0 1-.22-1.4l2.86-3.94a1 1 0 0 1 1.4-.22 1 1 0 0 1 .22 1.39l-2.86 3.94a1 1 0 0 1-.81.42z"/><path d="M249 48.85a1 1 0 0 1-.81-.42l-2.87-3.94a1 1 0 0 1 .23-1.39 1 1 0 0 1 1.39.22l2.87 3.94a1 1 0 0 1-.22 1.4 1.09 1.09 0 0 1-.59.19z"/><path d="M246.17 44.91a1 1 0 0 1-.31-2l4.64-1.5a1 1 0 0 1 .62 1.9l-4.64 1.51a1.06 1.06 0 0 1-.31.09zM78.94 154a6.37 6.37 0 0 1 4.59 1.77.35.35 0 0 1 0 .53l-1.48 1.54a.34.34 0 0 1-.48 0 3.85 3.85 0 0 0-2.56-1 3.89 3.89 0 0 0 0 7.77 4 4 0 0 0 2.54-.91.39.39 0 0 1 .5 0l1.48 1.58a.38.38 0 0 1 0 .51 6.52 6.52 0 0 1-4.61 1.84 6.84 6.84 0 1 1 0-13.68zM91.53 154.5a.37.37 0 0 1 .36-.36h2.28a.37.37 0 0 1 .36.36v12.58a.37.37 0 0 1-.36.36h-2.28a.37.37 0 0 1-.36-.36zM101.79 154.64a.34.34 0 0 1 .33-.5h2.52a.4.4 0 0 1 .33.21l3.13 6.94h.11l3.14-6.94a.38.38 0 0 1 .32-.21h2.53a.34.34 0 0 1 .32.5l-6 12.78a.37.37 0 0 1-.33.21H108a.35.35 0 0 1-.32-.21zM121.78 154.5a.37.37 0 0 1 .36-.36h2.28a.37.37 0 0 1 .36.36v12.58a.37.37 0 0 1-.36.36h-2.28a.37.37 0 0 1-.36-.36zM139.64 154a6.39 6.39 0 0 1 4.6 1.77.35.35 0 0 1 0 .53l-1.49 1.54a.33.33 0 0 1-.47 0 3.86 3.86 0 0 0-2.57-1 3.89 3.89 0 0 0 0 7.77 4 4 0 0 0 2.55-.91.38.38 0 0 1 .49 0l1.48 1.58a.37.37 0 0 1 0 .51 6.56 6.56 0 0 1-4.62 1.84 6.84 6.84 0 1 1 0-13.68zM152.43 162.62a2 2 0 0 1 2-2.07 2.07 2.07 0 0 1 2.07 2.07 2 2 0 0 1-2.07 2 2 2 0 0 1-2-2zM165.65 154.5a.36.36 0 0 1 .36-.36h2.26a.37.37 0 0 1 .36.36v10.15h4.52a.37.37 0 0 1 .37.36v2.07a.37.37 0 0 1-.37.36H166a.36.36 0 0 1-.36-.36zM181.06 154.5a.37.37 0 0 1 .36-.36h2.28a.37.37 0 0 1 .36.36v12.58a.37.37 0 0 1-.36.36h-2.28a.37.37 0 0 1-.36-.36zM193 154.6a.45.45 0 0 1 .46-.46h2.22a.46.46 0 0 1 .45.46v5l4.22-5.27a.61.61 0 0 1 .36-.19h2.4a.44.44 0 0 1 .34.71l-4.45 5.56 4.85 6.31a.44.44 0 0 1-.36.7h-2.63a.51.51 0 0 1-.34-.13l-4.39-6V167a.45.45 0 0 1-.45.45h-2.22a.45.45 0 0 1-.46-.45zM211.52 154.5a.36.36 0 0 1 .36-.36h7.86a.36.36 0 0 1 .36.36v2.08a.36.36 0 0 1-.36.36h-5.26v2.35h4.33a.37.37 0 0 1 .36.36v2.07a.36.36 0 0 1-.36.36h-4.33v2.57h5.26a.36.36 0 0 1 .36.36v2.07a.36.36 0 0 1-.36.36h-7.86a.36.36 0 0 1-.36-.36zM228.35 154.5a.36.36 0 0 1 .36-.36h5.68a4.14 4.14 0 0 1 4.14 4.11 4.19 4.19 0 0 1-2.81 3.82l2.6 4.82a.36.36 0 0 1-.32.55h-2.53a.34.34 0 0 1-.3-.17l-2.53-5h-1.31v4.84a.37.37 0 0 1-.36.36h-2.26a.36.36 0 0 1-.36-.36zm5.79 5.32a1.53 1.53 0 0 0 1.45-1.52 1.46 1.46 0 0 0-1.45-1.44h-2.81v3zM8.83 153a2.5 2.5 0 0 1-2.5-2.5V8.88a2.49 2.49 0 0 1 2.5-2.5H39a2.5 2.5 0 0 1 0 5H11.33v139.1a2.5 2.5 0 0 1-2.5 2.52z"/><path d="M307.87 184.94H8.83a2.5 2.5 0 0 1-2.5-2.5v-21a2.5 2.5 0 0 1 5 0v18.46h294v-58.42a2.5 2.5 0 0 1 5 0v61a2.5 2.5 0 0 1-2.46 2.46zM307.87 112.48a2.5 2.5 0 0 1-2.5-2.5V29a2.5 2.5 0 0 1 5 0v81a2.5 2.5 0 0 1-2.5 2.48zM307.87 22a2.5 2.5 0 0 1-2.5-2.5v-8.1H87a2.5 2.5 0 1 1 0-5h220.87a2.49 2.49 0 0 1 2.5 2.5v10.6a2.5 2.5 0 0 1-2.5 2.5zM75 11.38H50.54a2.5 2.5 0 1 1 0-5H75a2.5 2.5 0 0 1 0 5zM56 57.08H31.74a1.5 1.5 0 0 1-1.5-1.5v-4.86a1.5 1.5 0 0 1 3 0v3.36h21.27V32.8H33.24v3.36a1.5 1.5 0 0 1-3 0V31.3a1.5 1.5 0 0 1 1.5-1.5H56a1.5 1.5 0 0 1 1.5 1.5v24.28a1.5 1.5 0 0 1-1.5 1.5z"/><path d="M42.37 51.15a1.53 1.53 0 0 1-1.06-.44 1.51 1.51 0 0 1 0-2.12l5.08-5.08-4.87-4.88a1.49 1.49 0 0 1 0-2.12 1.51 1.51 0 0 1 2.12 0l5.93 5.94a1.5 1.5 0 0 1 0 2.12l-6.14 6.14a1.49 1.49 0 0 1-1.06.44z"/><path d="M48.51 45H28.24a1.5 1.5 0 0 1 0-3h20.27a1.5 1.5 0 0 1 0 3zM84.54 141H8.21a1 1 0 0 1 0-2h76.33a1 1 0 0 1 0 2zM157.54 141h-65a1 1 0 1 1 0-2h65a1 1 0 0 1 0 2zM308.21 141H166.54a1 1 0 0 1 0-2h141.67a1 1 0 0 1 0 2zM305.45 189.81a1.5 1.5 0 0 1 1.5-1.5 1.5 1.5 0 0 1 1.5 1.5 1.5 1.5 0 0 1-1.5 1.5 1.5 1.5 0 0 1-1.5-1.5zM297.2 189.81a1.5 1.5 0 0 1 1.5-1.5 1.5 1.5 0 0 1 1.5 1.5 1.5 1.5 0 0 1-1.5 1.5 1.5 1.5 0 0 1-1.5-1.5zM288.94 189.81a1.5 1.5 0 0 1 1.5-1.5 1.5 1.5 0 0 1 1.5 1.5 1.5 1.5 0 0 1-1.5 1.5 1.5 1.5 0 0 1-1.5-1.5zM280.69 189.81a1.5 1.5 0 0 1 1.5-1.5 1.5 1.5 0 0 1 1.5 1.5 1.5 1.5 0 0 1-1.5 1.5 1.5 1.5 0 0 1-1.5-1.5zM272.43 189.81a1.5 1.5 0 0 1 1.5-1.5 1.5 1.5 0 0 1 1.5 1.5 1.5 1.5 0 0 1-1.5 1.5 1.5 1.5 0 0 1-1.5-1.5zM264.18 189.81a1.5 1.5 0 0 1 1.5-1.5 1.5 1.5 0 0 1 1.5 1.5 1.5 1.5 0 0 1-1.5 1.5 1.5 1.5 0 0 1-1.5-1.5zM255.92 189.81a1.5 1.5 0 0 1 1.5-1.5 1.5 1.5 0 0 1 1.5 1.5 1.5 1.5 0 0 1-1.5 1.5 1.5 1.5 0 0 1-1.5-1.5zM239.41 189.81a1.5 1.5 0 0 1 1.5-1.5 1.5 1.5 0 0 1 1.5 1.5 1.5 1.5 0 0 1-1.5 1.5 1.5 1.5 0 0 1-1.5-1.5zM231.15 189.81a1.5 1.5 0 0 1 1.5-1.5 1.5 1.5 0 0 1 1.5 1.5 1.5 1.5 0 0 1-1.5 1.5 1.5 1.5 0 0 1-1.5-1.5zM222.9 189.81a1.5 1.5 0 0 1 1.5-1.5 1.5 1.5 0 0 1 1.5 1.5 1.5 1.5 0 0 1-1.5 1.5 1.5 1.5 0 0 1-1.5-1.5zM214.64 189.81a1.5 1.5 0 0 1 1.5-1.5 1.5 1.5 0 0 1 1.5 1.5 1.5 1.5 0 0 1-1.5 1.5 1.5 1.5 0 0 1-1.5-1.5zM206.39 189.81a1.5 1.5 0 0 1 1.5-1.5 1.5 1.5 0 0 1 1.5 1.5 1.5 1.5 0 0 1-1.5 1.5 1.5 1.5 0 0 1-1.5-1.5zM198.13 189.81a1.5 1.5 0 0 1 1.5-1.5 1.5 1.5 0 0 1 1.5 1.5 1.5 1.5 0 0 1-1.5 1.5 1.5 1.5 0 0 1-1.5-1.5zM189.88 189.81a1.5 1.5 0 0 1 1.5-1.5 1.5 1.5 0 0 1 1.5 1.5 1.5 1.5 0 0 1-1.5 1.5 1.5 1.5 0 0 1-1.5-1.5zM181.62 189.81a1.5 1.5 0 0 1 1.5-1.5 1.5 1.5 0 0 1 1.5 1.5 1.5 1.5 0 0 1-1.5 1.5 1.5 1.5 0 0 1-1.5-1.5zM173.37 189.81a1.5 1.5 0 0 1 1.5-1.5 1.5 1.5 0 0 1 1.5 1.5 1.5 1.5 0 0 1-1.5 1.5 1.5 1.5 0 0 1-1.5-1.5zM165.11 189.81a1.5 1.5 0 0 1 1.5-1.5 1.5 1.5 0 0 1 1.5 1.5 1.5 1.5 0 0 1-1.5 1.5 1.5 1.5 0 0 1-1.5-1.5zM156.85 189.81a1.5 1.5 0 0 1 1.5-1.5 1.5 1.5 0 0 1 1.5 1.5 1.5 1.5 0 0 1-1.5 1.5 1.5 1.5 0 0 1-1.5-1.5zM148.6 189.81a1.5 1.5 0 0 1 1.5-1.5 1.5 1.5 0 0 1 1.5 1.5 1.5 1.5 0 0 1-1.5 1.5 1.5 1.5 0 0 1-1.5-1.5zM140.34 189.81a1.5 1.5 0 0 1 1.5-1.5 1.5 1.5 0 0 1 1.5 1.5 1.5 1.5 0 0 1-1.5 1.5 1.5 1.5 0 0 1-1.5-1.5zM132.09 189.81a1.5 1.5 0 0 1 1.5-1.5 1.5 1.5 0 0 1 1.5 1.5 1.5 1.5 0 0 1-1.5 1.5 1.5 1.5 0 0 1-1.5-1.5zM123.83 189.81a1.5 1.5 0 0 1 1.5-1.5 1.5 1.5 0 0 1 1.5 1.5 1.5 1.5 0 0 1-1.5 1.5 1.5 1.5 0 0 1-1.5-1.5zM115.58 189.81a1.5 1.5 0 0 1 1.5-1.5 1.5 1.5 0 0 1 1.5 1.5 1.5 1.5 0 0 1-1.5 1.5 1.5 1.5 0 0 1-1.5-1.5zM107.32 189.81a1.5 1.5 0 0 1 1.5-1.5 1.5 1.5 0 0 1 1.5 1.5 1.5 1.5 0 0 1-1.5 1.5 1.5 1.5 0 0 1-1.5-1.5zM99.07 189.81a1.5 1.5 0 0 1 1.5-1.5 1.5 1.5 0 0 1 1.5 1.5 1.5 1.5 0 0 1-1.5 1.5 1.5 1.5 0 0 1-1.5-1.5zM90.81 189.81a1.5 1.5 0 0 1 1.5-1.5 1.5 1.5 0 0 1 1.5 1.5 1.5 1.5 0 0 1-1.5 1.5 1.5 1.5 0 0 1-1.5-1.5zM82.56 189.81a1.5 1.5 0 0 1 1.5-1.5 1.5 1.5 0 0 1 1.5 1.5 1.5 1.5 0 0 1-1.5 1.5 1.5 1.5 0 0 1-1.5-1.5zM74.3 189.81a1.5 1.5 0 0 1 1.5-1.5 1.5 1.5 0 0 1 1.5 1.5 1.5 1.5 0 0 1-1.5 1.5 1.5 1.5 0 0 1-1.5-1.5zM66 189.81a1.5 1.5 0 0 1 1.5-1.5 1.5 1.5 0 0 1 1.5 1.5 1.5 1.5 0 0 1-1.5 1.5 1.5 1.5 0 0 1-1.5-1.5zM57.79 189.81a1.5 1.5 0 0 1 1.5-1.5 1.5 1.5 0 0 1 1.5 1.5 1.5 1.5 0 0 1-1.5 1.5 1.5 1.5 0 0 1-1.5-1.5zM49.53 189.81a1.5 1.5 0 0 1 1.5-1.5 1.5 1.5 0 0 1 1.5 1.5 1.5 1.5 0 0 1-1.5 1.5 1.5 1.5 0 0 1-1.5-1.5zM33 189.81a1.5 1.5 0 0 1 1.5-1.5 1.5 1.5 0 0 1 1.5 1.5 1.5 1.5 0 0 1-1.5 1.5 1.5 1.5 0 0 1-1.5-1.5zM24.77 189.81a1.5 1.5 0 0 1 1.5-1.5 1.5 1.5 0 0 1 1.5 1.5 1.5 1.5 0 0 1-1.5 1.5 1.5 1.5 0 0 1-1.5-1.5zM16.51 189.81a1.5 1.5 0 0 1 1.5-1.5 1.5 1.5 0 0 1 1.5 1.5 1.5 1.5 0 0 1-1.5 1.5 1.5 1.5 0 0 1-1.5-1.5zM8.26 189.81a1.5 1.5 0 0 1 1.5-1.5 1.5 1.5 0 0 1 1.5 1.5 1.5 1.5 0 0 1-1.5 1.5 1.5 1.5 0 0 1-1.5-1.5zM305.45 1.5A1.5 1.5 0 0 1 307 0a1.5 1.5 0 0 1 1.5 1.5A1.5 1.5 0 0 1 307 3a1.5 1.5 0 0 1-1.55-1.5zM297.2 1.5a1.5 1.5 0 0 1 1.5-1.5 1.5 1.5 0 0 1 1.5 1.5 1.5 1.5 0 0 1-1.5 1.5 1.5 1.5 0 0 1-1.5-1.5zM288.94 1.5a1.5 1.5 0 0 1 1.5-1.5 1.5 1.5 0 0 1 1.5 1.5 1.5 1.5 0 0 1-1.5 1.5 1.5 1.5 0 0 1-1.5-1.5zM280.69 1.5a1.5 1.5 0 0 1 1.5-1.5 1.5 1.5 0 0 1 1.5 1.5 1.5 1.5 0 0 1-1.5 1.5 1.5 1.5 0 0 1-1.5-1.5zM272.43 1.5a1.5 1.5 0 0 1 1.5-1.5 1.5 1.5 0 0 1 1.5 1.5 1.5 1.5 0 0 1-1.5 1.5 1.5 1.5 0 0 1-1.5-1.5zM264.18 1.5a1.5 1.5 0 0 1 1.5-1.5 1.5 1.5 0 0 1 1.5 1.5 1.5 1.5 0 0 1-1.5 1.5 1.5 1.5 0 0 1-1.5-1.5zM255.92 1.5a1.5 1.5 0 0 1 1.5-1.5 1.5 1.5 0 0 1 1.5 1.5 1.5 1.5 0 0 1-1.5 1.5 1.5 1.5 0 0 1-1.5-1.5zM247.67 1.5a1.5 1.5 0 0 1 1.5-1.5 1.5 1.5 0 0 1 1.5 1.5 1.5 1.5 0 0 1-1.5 1.5 1.5 1.5 0 0 1-1.5-1.5zM239.41 1.5a1.5 1.5 0 0 1 1.5-1.5 1.5 1.5 0 0 1 1.5 1.5 1.5 1.5 0 0 1-1.5 1.5 1.5 1.5 0 0 1-1.5-1.5zM231.15 1.5a1.5 1.5 0 0 1 1.5-1.5 1.5 1.5 0 0 1 1.5 1.5 1.5 1.5 0 0 1-1.5 1.5 1.5 1.5 0 0 1-1.5-1.5zM222.9 1.5a1.5 1.5 0 0 1 1.5-1.5 1.5 1.5 0 0 1 1.5 1.5 1.5 1.5 0 0 1-1.5 1.5 1.5 1.5 0 0 1-1.5-1.5zM214.64 1.5a1.5 1.5 0 0 1 1.5-1.5 1.5 1.5 0 0 1 1.5 1.5 1.5 1.5 0 0 1-1.5 1.5 1.5 1.5 0 0 1-1.5-1.5zM206.39 1.5a1.5 1.5 0 0 1 1.5-1.5 1.5 1.5 0 0 1 1.5 1.5 1.5 1.5 0 0 1-1.5 1.5 1.5 1.5 0 0 1-1.5-1.5zM198.13 1.5a1.5 1.5 0 0 1 1.5-1.5 1.5 1.5 0 0 1 1.5 1.5 1.5 1.5 0 0 1-1.5 1.5 1.5 1.5 0 0 1-1.5-1.5zM189.88 1.5a1.5 1.5 0 0 1 1.5-1.5 1.5 1.5 0 0 1 1.5 1.5 1.5 1.5 0 0 1-1.5 1.5 1.5 1.5 0 0 1-1.5-1.5zM181.62 1.5a1.5 1.5 0 0 1 1.5-1.5 1.5 1.5 0 0 1 1.5 1.5 1.5 1.5 0 0 1-1.5 1.5 1.5 1.5 0 0 1-1.5-1.5zM173.37 1.5a1.5 1.5 0 0 1 1.5-1.5 1.5 1.5 0 0 1 1.5 1.5 1.5 1.5 0 0 1-1.5 1.5 1.5 1.5 0 0 1-1.5-1.5zM165.11 1.5a1.5 1.5 0 0 1 1.5-1.5 1.5 1.5 0 0 1 1.5 1.5 1.5 1.5 0 0 1-1.5 1.5 1.5 1.5 0 0 1-1.5-1.5zM156.85 1.5a1.5 1.5 0 0 1 1.5-1.5 1.5 1.5 0 0 1 1.5 1.5 1.5 1.5 0 0 1-1.5 1.5 1.5 1.5 0 0 1-1.5-1.5zM148.6 1.5a1.5 1.5 0 0 1 1.5-1.5 1.5 1.5 0 0 1 1.5 1.5 1.5 1.5 0 0 1-1.5 1.5 1.5 1.5 0 0 1-1.5-1.5zM140.34 1.5a1.5 1.5 0 0 1 1.5-1.5 1.5 1.5 0 0 1 1.5 1.5 1.5 1.5 0 0 1-1.5 1.5 1.5 1.5 0 0 1-1.5-1.5zM132.09 1.5a1.5 1.5 0 0 1 1.5-1.5 1.5 1.5 0 0 1 1.5 1.5 1.5 1.5 0 0 1-1.5 1.5 1.5 1.5 0 0 1-1.5-1.5zM123.83 1.5a1.5 1.5 0 0 1 1.5-1.5 1.5 1.5 0 0 1 1.5 1.5 1.5 1.5 0 0 1-1.5 1.5 1.5 1.5 0 0 1-1.5-1.5zM115.58 1.5a1.5 1.5 0 0 1 1.5-1.5 1.5 1.5 0 0 1 1.5 1.5 1.5 1.5 0 0 1-1.5 1.5 1.5 1.5 0 0 1-1.5-1.5zM107.32 1.5a1.5 1.5 0 0 1 1.5-1.5 1.5 1.5 0 0 1 1.5 1.5 1.5 1.5 0 0 1-1.5 1.5 1.5 1.5 0 0 1-1.5-1.5zM99.07 1.5a1.5 1.5 0 0 1 1.5-1.5 1.5 1.5 0 0 1 1.5 1.5 1.5 1.5 0 0 1-1.5 1.5 1.5 1.5 0 0 1-1.5-1.5zM90.81 1.5a1.5 1.5 0 0 1 1.5-1.5 1.5 1.5 0 0 1 1.5 1.5 1.5 1.5 0 0 1-1.5 1.5 1.5 1.5 0 0 1-1.5-1.5zM66 1.5A1.5 1.5 0 0 1 67.54 0 1.5 1.5 0 0 1 69 1.5 1.5 1.5 0 0 1 67.54 3 1.5 1.5 0 0 1 66 1.5zM57.79 1.5a1.5 1.5 0 0 1 1.5-1.5 1.5 1.5 0 0 1 1.5 1.5 1.5 1.5 0 0 1-1.5 1.5 1.5 1.5 0 0 1-1.5-1.5zM49.53 1.5A1.5 1.5 0 0 1 51 0a1.5 1.5 0 0 1 1.5 1.5A1.5 1.5 0 0 1 51 3a1.5 1.5 0 0 1-1.47-1.5zM33 1.5A1.5 1.5 0 0 1 34.52 0 1.5 1.5 0 0 1 36 1.5 1.5 1.5 0 0 1 34.52 3 1.5 1.5 0 0 1 33 1.5zM24.77 1.5a1.5 1.5 0 0 1 1.5-1.5 1.5 1.5 0 0 1 1.5 1.5 1.5 1.5 0 0 1-1.5 1.5 1.5 1.5 0 0 1-1.5-1.5zM16.51 1.5A1.5 1.5 0 0 1 18 0a1.5 1.5 0 0 1 1.5 1.5A1.5 1.5 0 0 1 18 3a1.5 1.5 0 0 1-1.49-1.5zM8.26 1.5A1.5 1.5 0 0 1 9.76 0a1.5 1.5 0 0 1 1.5 1.5A1.5 1.5 0 0 1 9.76 3a1.5 1.5 0 0 1-1.5-1.5zM0 189.81a1.5 1.5 0 0 1 1.5-1.5 1.5 1.5 0 0 1 1.5 1.5 1.5 1.5 0 0 1-1.5 1.5 1.5 1.5 0 0 1-1.5-1.5zM0 181.62a1.5 1.5 0 0 1 1.49-1.5 1.5 1.5 0 0 1 1.5 1.5H3a1.5 1.5 0 0 1-1.5 1.5 1.5 1.5 0 0 1-1.5-1.5zM0 173.44a1.5 1.5 0 0 1 1.49-1.5 1.5 1.5 0 0 1 1.5 1.5H3a1.5 1.5 0 0 1-1.5 1.5 1.5 1.5 0 0 1-1.5-1.5zM0 148.87a1.5 1.5 0 0 1 1.49-1.5 1.5 1.5 0 0 1 1.5 1.5H3a1.5 1.5 0 0 1-1.5 1.5 1.5 1.5 0 0 1-1.5-1.5zM0 140.69a1.5 1.5 0 0 1 1.49-1.5 1.5 1.5 0 0 1 1.5 1.5H3a1.5 1.5 0 0 1-1.5 1.5 1.5 1.5 0 0 1-1.5-1.5zM0 132.5a1.5 1.5 0 0 1 1.49-1.5A1.5 1.5 0 0 1 3 132.5a1.5 1.5 0 0 1-1.5 1.5 1.5 1.5 0 0 1-1.5-1.5zM0 116.12a1.5 1.5 0 0 1 1.49-1.5 1.5 1.5 0 0 1 1.5 1.5H3a1.5 1.5 0 0 1-1.5 1.5 1.5 1.5 0 0 1-1.5-1.5zM0 107.94a1.5 1.5 0 0 1 1.49-1.5 1.5 1.5 0 0 1 1.5 1.5H3a1.5 1.5 0 0 1-1.5 1.5 1.5 1.5 0 0 1-1.5-1.5zM0 99.75a1.5 1.5 0 0 1 1.49-1.5A1.5 1.5 0 0 1 3 99.75a1.5 1.5 0 0 1-1.5 1.5 1.5 1.5 0 0 1-1.5-1.5zM0 91.56a1.5 1.5 0 0 1 1.49-1.5A1.5 1.5 0 0 1 3 91.56a1.5 1.5 0 0 1-1.5 1.5 1.5 1.5 0 0 1-1.5-1.5zM0 83.37a1.5 1.5 0 0 1 1.49-1.5A1.5 1.5 0 0 1 3 83.37a1.5 1.5 0 0 1-1.5 1.5 1.5 1.5 0 0 1-1.5-1.5zM0 75.19a1.5 1.5 0 0 1 1.49-1.5A1.5 1.5 0 0 1 3 75.19a1.5 1.5 0 0 1-1.5 1.5 1.5 1.5 0 0 1-1.5-1.5zM0 67a1.5 1.5 0 0 1 1.49-1.5A1.5 1.5 0 0 1 3 67a1.5 1.5 0 0 1-1.5 1.5A1.5 1.5 0 0 1 0 67zM0 58.81a1.5 1.5 0 0 1 1.49-1.5A1.5 1.5 0 0 1 3 58.81a1.5 1.5 0 0 1-1.5 1.5 1.5 1.5 0 0 1-1.5-1.5zM0 50.62a1.5 1.5 0 0 1 1.49-1.5A1.5 1.5 0 0 1 3 50.62a1.5 1.5 0 0 1-1.5 1.5 1.5 1.5 0 0 1-1.5-1.5zM0 42.44a1.5 1.5 0 0 1 1.49-1.5A1.5 1.5 0 0 1 3 42.44a1.5 1.5 0 0 1-1.5 1.5 1.5 1.5 0 0 1-1.5-1.5zM0 34.25a1.5 1.5 0 0 1 1.49-1.5A1.5 1.5 0 0 1 3 34.25a1.5 1.5 0 0 1-1.5 1.5 1.5 1.5 0 0 1-1.5-1.5zM0 26.06a1.5 1.5 0 0 1 1.49-1.5A1.5 1.5 0 0 1 3 26.06a1.5 1.5 0 0 1-1.5 1.5 1.5 1.5 0 0 1-1.5-1.5zM0 17.87a1.5 1.5 0 0 1 1.49-1.5A1.5 1.5 0 0 1 3 17.87a1.5 1.5 0 0 1-1.5 1.5 1.5 1.5 0 0 1-1.5-1.5zM0 1.5A1.5 1.5 0 0 1 1.49 0 1.5 1.5 0 0 1 3 1.5 1.5 1.5 0 0 1 1.49 3 1.5 1.5 0 0 1 0 1.5zM313.71 181.62a1.5 1.5 0 0 1 1.49-1.5 1.5 1.5 0 0 1 1.5 1.5 1.5 1.5 0 0 1-1.5 1.5 1.5 1.5 0 0 1-1.49-1.5zM313.71 173.44a1.5 1.5 0 0 1 1.49-1.5 1.5 1.5 0 0 1 1.5 1.5 1.5 1.5 0 0 1-1.5 1.5 1.5 1.5 0 0 1-1.49-1.5zM313.71 165.25a1.5 1.5 0 0 1 1.49-1.5 1.5 1.5 0 0 1 1.5 1.5 1.5 1.5 0 0 1-1.5 1.5 1.5 1.5 0 0 1-1.49-1.5zM313.71 157.06a1.5 1.5 0 0 1 1.49-1.5 1.5 1.5 0 0 1 1.5 1.5 1.5 1.5 0 0 1-1.5 1.5 1.5 1.5 0 0 1-1.49-1.5zM313.71 148.87a1.5 1.5 0 0 1 1.49-1.5 1.5 1.5 0 0 1 1.5 1.5 1.5 1.5 0 0 1-1.5 1.5 1.5 1.5 0 0 1-1.49-1.5zM313.71 140.69a1.5 1.5 0 0 1 1.49-1.5 1.5 1.5 0 0 1 1.5 1.5 1.5 1.5 0 0 1-1.5 1.5 1.5 1.5 0 0 1-1.49-1.5zM313.71 132.5a1.5 1.5 0 0 1 1.49-1.5 1.5 1.5 0 0 1 1.5 1.5 1.5 1.5 0 0 1-1.5 1.5 1.5 1.5 0 0 1-1.49-1.5zM313.71 124.31a1.5 1.5 0 0 1 1.49-1.5 1.5 1.5 0 0 1 1.5 1.5 1.5 1.5 0 0 1-1.5 1.5 1.5 1.5 0 0 1-1.49-1.5zM313.71 107.94a1.5 1.5 0 0 1 1.49-1.5 1.5 1.5 0 0 1 1.5 1.5 1.5 1.5 0 0 1-1.5 1.5 1.5 1.5 0 0 1-1.49-1.5zM313.71 99.75a1.5 1.5 0 0 1 1.49-1.5 1.5 1.5 0 0 1 1.5 1.5 1.5 1.5 0 0 1-1.5 1.5 1.5 1.5 0 0 1-1.49-1.5zM313.71 91.56a1.5 1.5 0 0 1 1.49-1.5 1.5 1.5 0 0 1 1.5 1.5 1.5 1.5 0 0 1-1.5 1.5 1.5 1.5 0 0 1-1.49-1.5zM313.71 83.37a1.5 1.5 0 0 1 1.49-1.5 1.5 1.5 0 0 1 1.5 1.5 1.5 1.5 0 0 1-1.5 1.5 1.5 1.5 0 0 1-1.49-1.5zM313.71 75.19a1.5 1.5 0 0 1 1.49-1.5 1.5 1.5 0 0 1 1.5 1.5 1.5 1.5 0 0 1-1.5 1.5 1.5 1.5 0 0 1-1.49-1.5zM313.71 67a1.5 1.5 0 0 1 1.49-1.5 1.5 1.5 0 0 1 1.5 1.5 1.5 1.5 0 0 1-1.5 1.5 1.5 1.5 0 0 1-1.49-1.5zM313.71 58.81a1.5 1.5 0 0 1 1.49-1.5 1.5 1.5 0 0 1 1.5 1.5 1.5 1.5 0 0 1-1.5 1.5 1.5 1.5 0 0 1-1.49-1.5zM313.71 50.62a1.5 1.5 0 0 1 1.49-1.5 1.5 1.5 0 0 1 1.5 1.5 1.5 1.5 0 0 1-1.5 1.5 1.5 1.5 0 0 1-1.49-1.5zM313.71 42.44a1.5 1.5 0 0 1 1.49-1.5 1.5 1.5 0 0 1 1.5 1.5 1.5 1.5 0 0 1-1.5 1.5 1.5 1.5 0 0 1-1.49-1.5zM313.71 34.25a1.5 1.5 0 0 1 1.49-1.5 1.5 1.5 0 0 1 1.5 1.5 1.5 1.5 0 0 1-1.5 1.5 1.5 1.5 0 0 1-1.49-1.5zM313.71 17.87a1.5 1.5 0 0 1 1.49-1.5 1.5 1.5 0 0 1 1.5 1.5 1.5 1.5 0 0 1-1.5 1.5 1.5 1.5 0 0 1-1.49-1.5zM313.71 9.69a1.5 1.5 0 0 1 1.49-1.5 1.5 1.5 0 0 1 1.5 1.5 1.5 1.5 0 0 1-1.5 1.5 1.5 1.5 0 0 1-1.49-1.5zM313.71 1.5A1.5 1.5 0 0 1 315.2 0a1.5 1.5 0 0 1 1.5 1.5 1.5 1.5 0 0 1-1.5 1.5 1.5 1.5 0 0 1-1.49-1.5zM287.21 122.5h-5a1 1 0 0 1 0-2h3v-2.42a1 1 0 1 1 2 0zm-15 0h-7a1 1 0 0 1 0-2h7a1 1 0 0 1 0 2zm-14 0h-7a1 1 0 0 1 0-2h7a1 1 0 0 1 0 2zm-14 0h-7a1 1 0 0 1 0-2h7a1 1 0 1 1 0 2zm-14 0h-7a1 1 0 0 1 0-2h7a1 1 0 1 1 0 2zm-14 0h-7a1 1 0 0 1 0-2h7a1 1 0 1 1 0 2zm-14 0h-3.5a1 1 0 0 1 0-2h3.5a1 1 0 1 1 0 2zm-14 0h-7a1 1 0 0 1 0-2h7a1 1 0 1 1 0 2zm-14 0h-5.5a1 1 0 0 1 0-2h5.5a1 1 0 1 1 0 2zm-17.67 0h-3.33a1 1 0 0 1 0-2h3.33a1 1 0 0 1 0 2zm-10.33 0h-7a1 1 0 0 1 0-2h7a1 1 0 1 1 0 2zm-14 0h-7a1 1 0 1 1 0-2h7a1 1 0 0 1 0 2zm-14 0h-7a1 1 0 1 1 0-2h7a1 1 0 0 1 0 2zm-14 0h-5.5a1 1 0 1 1 0-2h5.5a1 1 0 0 1 0 2zm-28 0h-7a1 1 0 1 1 0-2h7a1 1 0 0 1 0 2zm-14 0h-5a1 1 0 0 1 0-2h5a1 1 0 1 1 0 2zm-14 0h-7a1 1 0 0 1 0-2h7a1 1 0 1 1 0 2zM30.5 112.21a1 1 0 0 1-1-1v-7a1 1 0 1 1 2 0v7a1 1 0 0 1-1 1zm255.71-.13a1 1 0 0 1-1-1v-7a1 1 0 1 1 2 0v7a1 1 0 0 1-1 1zM30.5 96.71a1 1 0 0 1-1-1v-5.5a1 1 0 0 1 2 0v5.5a1 1 0 0 1-1 1zm255.71 1.37a1 1 0 0 1-1-1v-4.5a1 1 0 1 1 2 0v4.5a1 1 0 0 1-1 1zM30.5 84.21a1 1 0 0 1-1-1v-5.5a1 1 0 0 1 2 0v5.5a1 1 0 0 1-1 1zm255.71-1.13a1 1 0 0 1-1-1v-4.5a1 1 0 1 1 2 0v4.5a1 1 0 0 1-1 1zm-5.43-7.58h-7a1 1 0 0 1 0-2h7a1 1 0 0 1 0 2zm-14 0h-4a1 1 0 0 1 0-2h4a1 1 0 0 1 0 2zm-14 0h-7a1 1 0 1 1 0-2h7a1 1 0 0 1 0 2zm-14 0h-5.5a1 1 0 1 1 0-2h5.5a1 1 0 0 1 0 2zm-28 0h-7a1 1 0 1 1 0-2h7a1 1 0 0 1 0 2zm-15.5 0h-5.5a1 1 0 1 1 0-2h5.5a1 1 0 0 1 0 2zm-12.5 0h-7a1 1 0 0 1 0-2h7a1 1 0 0 1 0 2zm-14 0h-7a1 1 0 0 1 0-2h7a1 1 0 0 1 0 2zm-14 0h-4.5a1 1 0 0 1 0-2h4.5a1 1 0 0 1 0 2zm-14 0h-7a1 1 0 0 1 0-2h7a1 1 0 0 1 0 2zm-15.5 0h-5.5a1 1 0 0 1 0-2h5.5a1 1 0 0 1 0 2zm-12.5 0h-5.5a1 1 0 0 1 0-2h5.5a1 1 0 0 1 0 2zm-14 0h-7a1 1 0 0 1 0-2h7a1 1 0 0 1 0 2zm-14 0h-7a1 1 0 0 1 0-2h7a1 1 0 0 1 0 2zm-14 0h-7a1 1 0 0 1 0-2h7a1 1 0 0 1 0 2zm-14 0h-7a1 1 0 0 1 0-2h7a1 1 0 0 1 0 2zm-14 0h-7a1 1 0 0 1 0-2h7a1 1 0 0 1 0 2z"/></svg>