<svg xmlns="http://www.w3.org/2000/svg" viewBox="0 0 192.5 192.5"><defs><style>.a{fill:#28646e;}</style></defs><title>civic-liker</title><path class="a" d="M148.1,171.35a91.3,91.3,0,0,1-105.16-1A2.5,2.5,0,1,0,40,174.37,96.29,96.29,0,0,0,151,175.46a2.5,2.5,0,0,0-2.85-4.11Z"/><path class="a" d="M177.07,44a2.5,2.5,0,1,0-4.19,2.72,91.29,91.29,0,0,1-16.79,118.46,2.5,2.5,0,0,0,3.28,3.78,96.29,96.29,0,0,0,17.7-125Z"/><path class="a" d="M51.91,16.48a91.3,91.3,0,0,1,115,22,2.5,2.5,0,1,0,3.86-3.17A96.29,96.29,0,0,0,49.48,12.11a2.5,2.5,0,1,0,2.43,4.37Z"/><path class="a" d="M5,96.25A91.66,91.66,0,0,1,42.06,22.83a2.5,2.5,0,0,0-3-4A96.3,96.3,0,0,0,10.68,140.35a2.49,2.49,0,0,0,2.22,1.36,2.43,2.43,0,0,0,1.14-.28,2.51,2.51,0,0,0,1.08-3.37A90.17,90.17,0,0,1,5,96.25Z"/><path class="a" d="M20.54,147.21A2.5,2.5,0,1,0,16.4,150a96.53,96.53,0,0,0,14.53,16.93,2.5,2.5,0,0,0,3.39-3.67A91.81,91.81,0,0,1,20.54,147.21Z"/><path class="a" d="M96.62,7.71h-.37c-1.23,0-2.48,0-3.7.08a1.5,1.5,0,0,0,.06,3h.06c1.18,0,2.39-.08,3.58-.08h.36a1.5,1.5,0,0,0,0-3Z"/><path class="a" d="M74.61,182.13c1.31.33,2.65.64,4,.9a1.53,1.53,0,0,0,.3,0,1.5,1.5,0,0,0,.29-3c-1.28-.26-2.57-.55-3.84-.87a1.5,1.5,0,1,0-.73,2.91Z"/><path class="a" d="M132.8,18.88c1.18.56,2.37,1.16,3.52,1.77a1.52,1.52,0,0,0,.7.18,1.5,1.5,0,0,0,.71-2.83c-1.2-.63-2.42-1.25-3.65-1.83a1.5,1.5,0,1,0-1.28,2.71Z"/><path class="a" d="M78.71,12.47a1.53,1.53,0,0,0,.3,0c1.28-.26,2.58-.5,3.87-.7a1.5,1.5,0,1,0-.46-3c-1.34.21-2.69.45-4,.72a1.5,1.5,0,0,0,.3,3Z"/><path class="a" d="M110.81,8.9c-1.33-.22-2.69-.42-4-.58a1.51,1.51,0,0,0-1.67,1.32,1.5,1.5,0,0,0,1.32,1.66c1.29.16,2.6.34,3.89.56l.25,0a1.5,1.5,0,0,0,.24-3Z"/><path class="a" d="M129.94,178a1.47,1.47,0,0,0,.58-.12c1.25-.52,2.5-1.08,3.71-1.66a1.5,1.5,0,0,0-1.28-2.71c-1.18.56-2.39,1.1-3.59,1.6a1.5,1.5,0,0,0,.58,2.89Z"/><path class="a" d="M88.66,184.48c1.34.11,2.71.19,4.07.25h.06a1.5,1.5,0,0,0,.06-3c-1.32,0-2.64-.13-3.93-.24a1.5,1.5,0,0,0-.26,3Z"/><path class="a" d="M124.64,12.35c-1.28-.43-2.59-.84-3.89-1.21a1.5,1.5,0,1,0-.83,2.88c1.26.36,2.52.76,3.76,1.17a1.34,1.34,0,0,0,.48.08,1.5,1.5,0,0,0,.48-2.92Z"/><path class="a" d="M116.63,182.4a1.34,1.34,0,0,0,.35-.05c1.32-.31,2.64-.66,3.94-1a1.5,1.5,0,1,0-.83-2.88c-1.26.36-2.54.7-3.81,1a1.5,1.5,0,0,0,.35,3Z"/><path class="a" d="M102.79,184.55h.12c1.34-.1,2.71-.23,4-.4a1.5,1.5,0,1,0-.36-3c-1.3.15-2.61.28-3.91.38a1.5,1.5,0,0,0,.1,3Z"/><path class="a" d="M176.94,129a1.47,1.47,0,0,0,.54.1,1.5,1.5,0,0,0,1.4-1c.49-1.26,1-2.55,1.38-3.84a1.5,1.5,0,1,0-2.84-1c-.42,1.25-.87,2.49-1.34,3.71A1.5,1.5,0,0,0,176.94,129Z"/><path class="a" d="M180.21,68a1.5,1.5,0,0,0-2.85.95c.42,1.24.81,2.5,1.17,3.76A1.5,1.5,0,0,0,180,73.84a1.45,1.45,0,0,0,.41-.06,1.49,1.49,0,0,0,1-1.85C181,70.63,180.64,69.32,180.21,68Z"/><path class="a" d="M180.7,110c-.21,1.29-.45,2.59-.71,3.87a1.5,1.5,0,0,0,1.16,1.78,1.55,1.55,0,0,0,.31,0,1.5,1.5,0,0,0,1.46-1.19c.28-1.33.53-2.68.74-4a1.5,1.5,0,0,0-3-.48Z"/><path class="a" d="M183.63,81.86a1.5,1.5,0,1,0-3,.49c.21,1.29.4,2.6.55,3.9a1.49,1.49,0,0,0,1.49,1.32h.17a1.5,1.5,0,0,0,1.32-1.66C184,84.56,183.85,83.2,183.63,81.86Z"/><path class="a" d="M184.7,100.32c.07-1.35.1-2.72.1-4.06v-.2a1.55,1.55,0,0,0-1.51-1.5,1.5,1.5,0,0,0-1.49,1.51v.18c0,1.31,0,2.63-.09,3.94a1.5,1.5,0,0,0,1.43,1.56h.07A1.49,1.49,0,0,0,184.7,100.32Z"/><path class="a" d="M172.93,58.41a1.51,1.51,0,0,0,1.36.86,1.61,1.61,0,0,0,.64-.14,1.51,1.51,0,0,0,.72-2c-.58-1.22-.43-1-1.06-2.18a1.5,1.5,0,1,0-2.65,1.4C172.55,57.5,172.38,57.23,172.93,58.41Z"/><path class="a" d="M65.26,16.38a1.39,1.39,0,0,0,.53-.1c1.23-.46,2.47-.9,3.71-1.31a1.5,1.5,0,1,0-.93-2.85c-1.29.42-2.58.88-3.84,1.36a1.5,1.5,0,0,0,.53,2.9Z"/><path class="a" d="M62.3,174.79a1.5,1.5,0,0,0-1.19,2.76c1.24.53,2.51,1,3.78,1.53a1.46,1.46,0,0,0,.53.1,1.5,1.5,0,0,0,.53-2.9C64.73,175.81,63.5,175.31,62.3,174.79Z"/><path class="a" d="M147.92,28.07a1.53,1.53,0,0,0,.91.3,1.5,1.5,0,0,0,.91-2.69c-1.09-.82-2.2-1.63-3.31-2.39a1.5,1.5,0,0,0-1.7,2.47C145.8,26.5,146.88,27.27,147.92,28.07Z"/><path class="a" d="M57.46,18.29a1.5,1.5,0,0,0-2-.64c-1.2.62-1.26.62-2.43,1.3a1.5,1.5,0,0,0,.75,2.8,1.44,1.44,0,0,0,.75-.21c1.13-.65,1.15-.62,2.31-1.23A1.49,1.49,0,0,0,57.46,18.29Z"/><path class="a" d="M170.63,141.51a1.5,1.5,0,0,0,2.06-.53c.68-1.17.86-1.28,1.49-2.48a1.5,1.5,0,0,0-2.66-1.4c-.61,1.16-.76,1.23-1.42,2.36A1.5,1.5,0,0,0,170.63,141.51Z"/><path class="a" d="M48.52,170.85c1.15.73,2.32,1.45,3.49,2.12a1.53,1.53,0,0,0,.75.2,1.5,1.5,0,0,0,.75-2.8c-1.13-.65-2.26-1.34-3.37-2.05a1.5,1.5,0,0,0-1.62,2.53Z"/><path class="a" d="M8.39,85.17c-.17,1.34-.31,2.71-.41,4a1.5,1.5,0,0,0,1.38,1.62h.12A1.5,1.5,0,0,0,11,89.46c.1-1.3.24-2.62.4-3.92a1.5,1.5,0,0,0-3-.37Z"/><path class="a" d="M8,103.47a1.51,1.51,0,0,0,1.5,1.38h.12A1.49,1.49,0,0,0,11,103.23c-.1-1.3-.18-2.63-.22-3.93a1.5,1.5,0,1,0-3,.1C7.81,100.75,7.89,102.12,8,103.47Z"/><path class="a" d="M11.69,77a1.51,1.51,0,0,0,1.46-1.14c.31-1.27.65-2.55,1-3.8a1.5,1.5,0,0,0-2.88-.85c-.38,1.3-.74,2.62-1.06,3.94A1.51,1.51,0,0,0,11.33,77,1.47,1.47,0,0,0,11.69,77Z"/><path class="a" d="M27.59,149.79a1.49,1.49,0,0,0-.22,2.1C28.22,153,29.11,154,30,155a1.49,1.49,0,0,0,1.12.51,1.52,1.52,0,0,0,1-.38,1.5,1.5,0,0,0,.13-2.12c-.87-1-1.73-2-2.55-3A1.49,1.49,0,0,0,27.59,149.79Z"/><path class="a" d="M163.36,153.19a1.47,1.47,0,0,0,1.15-.54c.87-1,1.72-2.12,2.53-3.2a1.5,1.5,0,1,0-2.4-1.8c-.78,1-1.6,2.08-2.44,3.09a1.49,1.49,0,0,0,1.16,2.45Z"/><path class="a" d="M21.43,143.63a1.5,1.5,0,0,0,1.27.69A1.49,1.49,0,0,0,24,142c-.7-1.1.16.42-.48-.71a1.5,1.5,0,0,0-2.61,1.49C21.54,144,20.71,142.48,21.43,143.63Z"/><path class="a" d="M10.28,117.53a1.5,1.5,0,0,0,1.45,1.14,1.47,1.47,0,0,0,.36,0,1.5,1.5,0,0,0,1.1-1.82c-.31-1.27-.6-2.56-.85-3.84a1.5,1.5,0,0,0-2.95.58C9.66,114.88,10,116.22,10.28,117.53Z"/><path class="a" d="M25.69,45.24a1.48,1.48,0,0,0-2.08.37c-.78,1.11-1.54,2.25-2.26,3.39a1.5,1.5,0,1,0,2.53,1.61c.7-1.11,1.44-2.21,2.19-3.28A1.51,1.51,0,0,0,25.69,45.24Z"/><path class="a" d="M40,29.84a1.5,1.5,0,0,0,1.16.55,1.56,1.56,0,0,0,1-.34c1-.83,2-1.65,3.1-2.43a1.5,1.5,0,0,0-1.79-2.4c-1.08.8-2.16,1.65-3.21,2.51A1.49,1.49,0,0,0,40,29.84Z"/><path class="a" d="M32.15,39.59c.87-1,1.77-2,2.68-2.88a1.5,1.5,0,0,0-2.16-2.09c-.94,1-1.87,2-2.76,3A1.48,1.48,0,0,0,30,39.72a1.45,1.45,0,0,0,1,.38A1.47,1.47,0,0,0,32.15,39.59Z"/><path class="a" d="M142.36,171.59a1.46,1.46,0,0,0,.8-.23c1.14-.71,2.29-1.47,3.4-2.23a1.5,1.5,0,0,0-1.71-2.47c-1.07.74-2.18,1.47-3.28,2.16a1.5,1.5,0,0,0,.79,2.77Z"/><path class="a" d="M157.63,158a1.49,1.49,0,0,0-2.12,0c-.94.9-1.92,1.8-2.9,2.66a1.49,1.49,0,0,0-.14,2.12,1.5,1.5,0,0,0,2.11.14c1-.9,2-1.82,3-2.76A1.51,1.51,0,0,0,157.63,158Z"/><path class="a" d="M158.19,37.24a1.5,1.5,0,1,0,2.17-2.07c-.93-1-1.9-1.94-2.88-2.88a1.5,1.5,0,1,0-2.07,2.17C156.35,35.36,157.29,36.3,158.19,37.24Z"/><path class="a" d="M14.8,131a1.49,1.49,0,0,0,1.38.91,1.59,1.59,0,0,0,.59-.12,1.51,1.51,0,0,0,.79-2c-.52-1.19-1-2.42-1.46-3.64a1.5,1.5,0,1,0-2.81,1.05C13.76,128.52,14.27,129.79,14.8,131Z"/><path class="a" d="M18.41,57.21a1.5,1.5,0,0,0-2,.7c-.58,1.22-1.15,2.47-1.68,3.72a1.5,1.5,0,0,0,.79,2,1.52,1.52,0,0,0,.59.12,1.5,1.5,0,0,0,1.38-.91c.51-1.21,1.06-2.42,1.62-3.6A1.5,1.5,0,0,0,18.41,57.21Z"/><path class="a" d="M37.24,116.79h6a1,1,0,0,0,0-2h-6a1,1,0,1,0,0,2Z"/><path class="a" d="M78.17,115.79a1,1,0,0,0-1-1H64.45a1,1,0,0,0,0,2H77.17A1,1,0,0,0,78.17,115.79Z"/><path class="a" d="M129.05,115.79a1,1,0,0,0-1-1H115.33a1,1,0,0,0,0,2h12.72A1,1,0,0,0,129.05,115.79Z"/><path class="a" d="M81.41,116.79H91.93a1,1,0,0,0,0-2H81.41a1,1,0,0,0,0,2Z"/><path class="a" d="M97.37,115.79a1,1,0,0,0,1,1h12.72a1,1,0,0,0,0-2H98.37A1,1,0,0,0,97.37,115.79Z"/><path class="a" d="M138.93,115.79a1,1,0,0,0,1,1H145a1,1,0,0,0,0-2h-5.09A1,1,0,0,0,138.93,115.79Z"/><path class="a" d="M61.21,115.79a1,1,0,0,0-1-1H51.43a1,1,0,1,0,0,2h8.78A1,1,0,0,0,61.21,115.79Z"/><path class="a" d="M149.26,116.79h6a1,1,0,0,0,0-2h-6a1,1,0,0,0,0,2Z"/><path class="a" d="M48.88,151.29H52.6a1,1,0,0,0,0-2H48.88a1,1,0,1,0,0,2Z"/><path class="a" d="M123.6,151.29h10.08a1,1,0,0,0,0-2H123.6a1,1,0,0,0,0,2Z"/><path class="a" d="M103.16,150.29a1,1,0,0,0-1-1H90.34a1,1,0,0,0,0,2h11.82A1,1,0,0,0,103.16,150.29Z"/><path class="a" d="M85.1,150.29a1,1,0,0,0-1-1H74.58a1,1,0,0,0,0,2H84.1A1,1,0,0,0,85.1,150.29Z"/><path class="a" d="M71.64,150.29a1,1,0,0,0-1-1H58.82a1,1,0,1,0,0,2H70.64A1,1,0,0,0,71.64,150.29Z"/><path class="a" d="M118.92,150.29a1,1,0,0,0-1-1H106.1a1,1,0,0,0,0,2h11.82A1,1,0,0,0,118.92,150.29Z"/><path class="a" d="M137.62,151.29h6a1,1,0,0,0,0-2h-6a1,1,0,0,0,0,2Z"/><path class="a" d="M42.27,82.49a6.55,6.55,0,0,0-.75-4.92.38.38,0,0,0-.5-.13l-1.87,1.08A.39.39,0,0,0,39,79a4,4,0,0,1,.31,2.69A3.89,3.89,0,0,1,31.76,80a3.85,3.85,0,0,1,1.52-2.28.33.33,0,0,0,.11-.46l-1.16-1.8a.36.36,0,0,0-.53-.1,6.38,6.38,0,0,0-2.76,4.08,6.84,6.84,0,1,0,13.33,3.1Z"/><rect class="a" x="39.49" y="60.33" width="3" height="13.3" rx="0.36" transform="translate(-37.39 71.77) rotate(-62.04)"/><path class="a" d="M50.61,54.24l-.08.08L43.3,51.94a.36.36,0,0,0-.37.09l-1.71,1.86a.34.34,0,0,0,.15.58L54.8,58.76a.38.38,0,0,0,.37-.1l.13-.14a.36.36,0,0,0,.06-.38L50,45.09A.33.33,0,0,0,49.4,45l-1.71,1.86a.36.36,0,0,0-.06.38Z"/><rect class="a" x="60.93" y="37.01" width="3" height="13.3" rx="0.36" transform="matrix(0.84, -0.54, 0.54, 0.84, -13.69, 40.74)"/><path class="a" d="M71.48,38.56a6.82,6.82,0,0,0,8.63,4.37,6.54,6.54,0,0,0,3.82-3.18.38.38,0,0,0-.14-.5l-1.89-1a.39.39,0,0,0-.48.13A4,4,0,0,1,79.28,40a3.89,3.89,0,0,1-2.42-7.38,3.92,3.92,0,0,1,2.74.12.32.32,0,0,0,.45-.14L81,30.68a.35.35,0,0,0-.18-.5,6.38,6.38,0,0,0-4.92-.26A6.85,6.85,0,0,0,71.48,38.56Z"/><path class="a" d="M96.06,33.48a2.06,2.06,0,0,0-2,2.1,2,2,0,0,0,4.07-.06A2.07,2.07,0,0,0,96.06,33.48Z"/><path class="a" d="M115,29.65,112.87,29a.37.37,0,0,0-.45.25l-3.51,12.08a.36.36,0,0,0,.24.45l6.87,2a.35.35,0,0,0,.44-.24l.58-2a.36.36,0,0,0-.24-.45l-4.35-1.26,2.84-9.75A.39.39,0,0,0,115,29.65Z"/><rect class="a" x="120.44" y="40.35" width="13.3" height="3" rx="0.36" transform="translate(27.94 131.7) rotate(-60.41)"/><path class="a" d="M137.37,58.09a.46.46,0,0,0,.15.34l1.88,1.83a.44.44,0,0,0,.74-.25l.94-7.9,7.08-.88a.44.44,0,0,0,.24-.74l-1.71-1.67a.59.59,0,0,0-.39-.12l-6.7.82L143.09,46a.47.47,0,0,0,0-.65l-1.59-1.55a.45.45,0,0,0-.65,0l-8.65,8.86a.44.44,0,0,0,0,.64l1.59,1.56a.47.47,0,0,0,.65,0l4-4.05Z"/><path class="a" d="M147.87,73.44l1.82-1a.35.35,0,0,0,.14-.49l-2.51-4.62,2.25-1.23,2.07,3.8a.36.36,0,0,0,.49.15l1.82-1a.37.37,0,0,0,.14-.49L152,64.77l2.07-1.13,2.52,4.62a.36.36,0,0,0,.49.15l1.81-1a.36.36,0,0,0,.15-.49L155.29,60a.36.36,0,0,0-.49-.14l-11,6a.37.37,0,0,0-.14.49l3.76,6.9A.36.36,0,0,0,147.87,73.44Z"/><path class="a" d="M164.32,83.8l-1.12-5.57a.36.36,0,0,0-.43-.28l-12.33,2.48a.37.37,0,0,0-.29.43l.45,2.21a.39.39,0,0,0,.43.29l4.75-1,.26,1.28-4.44,3.48a.34.34,0,0,0-.11.33L152,90a.36.36,0,0,0,.6.2l4.22-3.5a4.06,4.06,0,0,0,7.51-2.87Zm-3.85,2a1.51,1.51,0,0,1-1.77-1.11l-.56-2.76,2.91-.58.55,2.75A1.44,1.44,0,0,1,160.47,85.79Z"/><path class="a" d="M93.72,75.5a.91.91,0,0,0,1.2,1.37,20.77,20.77,0,0,0,4.28-5c.18-.31.68-1,1.42-.92a.91.91,0,0,0,1-.78.9.9,0,0,0-.78-1A3.22,3.22,0,0,0,97.63,71,19.49,19.49,0,0,1,93.72,75.5Z"/><path class="a" d="M78.31,92.18a.91.91,0,0,0,1.28.12,25.6,25.6,0,0,1,3-2A.91.91,0,0,0,83,89.07a.93.93,0,0,0-1.23-.41,26.63,26.63,0,0,0-3.34,2.24A.91.91,0,0,0,78.31,92.18Z"/><path class="a" d="M86.9,73.49A55.18,55.18,0,0,0,84.39,81a23,23,0,0,0-.17,9.28.9.9,0,0,1-.11.62,35.63,35.63,0,0,0-2.32,4,1.13,1.13,0,0,0,.47,1.45,1.09,1.09,0,0,0,.54.14,1.1,1.1,0,0,0,1-.64c.35-.72,1-2.08,1.33-2.65a19.44,19.44,0,0,0,.93-2,3.06,3.06,0,0,0,0-1.78,18.5,18.5,0,0,1,.19-7.5,76.68,76.68,0,0,1,2.68-8.36c.27-.66.65-.87,1-.84s1.12.22.91,1.59c-.38,2.45-.91,5.56-1.09,6.61a2.13,2.13,0,0,0,.77,2.26A2.25,2.25,0,0,0,93,82.77a46,46,0,0,0,7.71-6.56,18.35,18.35,0,0,0,3.63-5.52,1,1,0,0,1,1.2-.56c.25.07.55.4.34,1.1a24,24,0,0,1-6.66,9.24.79.79,0,0,0-.16,1.16.75.75,0,0,0,1.11,0,26.75,26.75,0,0,0,6.65-8.79,16.12,16.12,0,0,0,.8-2c.2-.57.64-.78,1-.71s.73.54.59,1.29a12.7,12.7,0,0,1-1,2.76,38.43,38.43,0,0,1-6.28,8.64.74.74,0,0,0,0,1.09c.36.34.78.19,1.16-.18a34.23,34.23,0,0,0,6.36-8.5.79.79,0,0,1,1-.5c.51.2.5,1.07,0,2a32.15,32.15,0,0,1-6.24,8.72.7.7,0,0,0,0,1c.3.26.78.25,1.22-.21a36.28,36.28,0,0,0,3.9-4.55.85.85,0,0,1,.88-.45c.44.08.51.5.37,1-.21.82-2.52,3.84-3.43,4.85-2.47,2.76-4.94,4.27-9.7,6.74a8.38,8.38,0,0,0-3.65,3c-.69,1.16-.89,1.54-1,1.68a1.16,1.16,0,0,0,.5,1.54,1.09,1.09,0,0,0,.49.11,1.11,1.11,0,0,0,1-.69s0,0,.86-1.5a6.52,6.52,0,0,1,2.8-2.47A27.45,27.45,0,0,0,108,88.85a32.06,32.06,0,0,0,3.48-4.76c1.33-2.24.63-4.16-.57-4.48a.16.16,0,0,1-.1-.23,11.83,11.83,0,0,0,1.53-3.55,2.25,2.25,0,0,0-1.68-2.9.15.15,0,0,1-.11-.19c.1-.37.2-.83.26-1.14a2.58,2.58,0,0,0-1.76-3.11,2.63,2.63,0,0,0-2.14.44.2.2,0,0,1-.28,0,1.68,1.68,0,0,0-1.19-.55,2.68,2.68,0,0,0-2.69,1.82,19.16,19.16,0,0,1-3.52,5,38.63,38.63,0,0,1-6.75,5.72c-.31.2-.75.15-.7-.27.09-.66.8-5.15.92-6.47.2-2.14-1-3.12-2.25-3.3C89.41,70.76,87.79,71.06,86.9,73.49Z"/><path class="a" d="M83.87,67.38a.39.39,0,0,0-.53-.22,4.19,4.19,0,0,0-1.09.78,4.07,4.07,0,0,0-.91,1,.4.4,0,0,0,.15.56c.49.36,2.93,1.8,3.53,2.08.12.06.27.13.41,0h0a.34.34,0,0,0,0-.4C85.28,70.52,84.17,67.91,83.87,67.38Z"/><path class="a" d="M80.65,75.55c.55-.23,3.06-1.57,3.61-1.93.11-.07.25-.16.22-.35h0c0-.19-.2-.22-.33-.25-.63-.16-3.45-.57-4.05-.59a.4.4,0,0,0-.47.34,4.33,4.33,0,0,0,.1,1.33,4.53,4.53,0,0,0,.36,1.29A.41.41,0,0,0,80.65,75.55Z"/><path class="a" d="M105.61,94.7h0c-.18,0-.24.17-.28.29a39.85,39.85,0,0,0-1,4,.39.39,0,0,0,.28.5,4.37,4.37,0,0,0,1.34,0,4,4,0,0,0,1.32-.22.4.4,0,0,0,.22-.54c-.17-.57-1.24-3.21-1.54-3.79C105.87,94.83,105.79,94.68,105.61,94.7Z"/><path class="a" d="M110.16,96.74a.4.4,0,0,0,.58,0,4.43,4.43,0,0,0,.73-1.12,4.56,4.56,0,0,0,.5-1.24.4.4,0,0,0-.35-.47c-.58-.16-3.38-.62-4-.66-.13,0-.3,0-.38.14h0c-.08.16,0,.29.11.4C107.71,94.33,109.7,96.36,110.16,96.74Z"/><path class="a" d="M100.09,165.42a1,1,0,0,0-1.26-.64l-1.58.51v-1.66a1,1,0,0,0-2,0v1.66l-1.58-.51a1,1,0,1,0-.62,1.9l1.58.51-1,1.34a1,1,0,0,0,.22,1.4,1,1,0,0,0,1.39-.22l1-1.34,1,1.34a1,1,0,1,0,1.61-1.18l-1-1.34,1.58-.51A1,1,0,0,0,100.09,165.42Z"/><path class="a" d="M111.43,165.42a1,1,0,0,0-1.26-.64l-1.58.51v-1.66a1,1,0,0,0-2,0v1.66l-1.58-.51a1,1,0,1,0-.62,1.9l1.58.51-1,1.34a1,1,0,0,0,.22,1.4,1,1,0,0,0,1.39-.22l1-1.34,1,1.34a1,1,0,0,0,.81.41,1,1,0,0,0,.81-1.59l-1-1.34,1.58-.51A1,1,0,0,0,111.43,165.42Z"/><path class="a" d="M82.54,169.93a1,1,0,0,0,.59.19,1,1,0,0,0,.81-.41l1-1.34,1,1.34a1,1,0,0,0,.81.41,1,1,0,0,0,.58-.19,1,1,0,0,0,.22-1.4l-1-1.34,1.58-.51a1,1,0,0,0,.64-1.26,1,1,0,0,0-1.26-.64l-1.58.51v-1.66a1,1,0,0,0-2,0v1.66l-1.58-.51a1,1,0,0,0-1.26.64,1,1,0,0,0,.64,1.26l1.58.51-1,1.34A1,1,0,0,0,82.54,169.93Z"/></svg>