<svg xmlns="http://www.w3.org/2000/svg" viewBox="0 0 316.7 191.3"><path d="M83.2 35.6c4.4 0 7.9 3.5 7.9 7.9 0 2.9-1.7 5.5-4.1 6.9l2.8 4.4c.2.3 0 .7-.4.7h-3c-.2 0-.3-.1-.4-.2l-2.3-3.9H83c-4.4 0-7.9-3.5-7.9-7.9.2-4.3 3.7-7.9 8.1-7.9zm0 12.3c2.4 0 4.4-2 4.4-4.4 0-2.4-2-4.4-4.4-4.4-2.4 0-4.4 2-4.4 4.4 0 2.5 2 4.4 4.4 4.4zm17-11.6c0-.2.2-.4.4-.4h2.7c.2 0 .4.2.4.4v8.9c0 1.5 1.1 2.8 2.7 2.8s2.8-1.2 2.8-2.8v-8.9c0-.2.2-.4.4-.4h2.7c.2 0 .4.2.4.4v9.1c0 3.3-2.8 6.1-6.3 6.1s-6.2-2.8-6.2-6.1v-9.1zm29.5-.7c4.4 0 7.9 3.5 7.9 7.9s-3.5 7.9-7.9 7.9-7.9-3.5-7.9-7.9c0-4.3 3.5-7.9 7.9-7.9zm0 12.3c2.4 0 4.4-2 4.4-4.4 0-2.4-2-4.4-4.4-4.4-2.4 0-4.4 2-4.4 4.4 0 2.5 2 4.4 4.4 4.4zm19-8.8h-3.1c-.2 0-.4-.2-.4-.4v-2.4c0-.2.2-.4.4-.4h9.8c.2 0 .4.2.4.4v2.4c0 .2-.2.4-.4.4h-3.1v11.8c0 .2-.2.4-.4.4h-2.6c-.2 0-.4-.2-.4-.4V39.1zm13.1 11.6l6.9-14.8c.1-.1.2-.2.4-.2h.2c.2 0 .3.1.4.2l6.9 14.8c.1.3 0 .6-.4.6h-2.4c-.4 0-.6-.1-.8-.6l-.8-1.7h-6l-.8 1.8c-.1.3-.4.5-.8.5h-2.4c-.3-.1-.5-.3-.4-.6zm9.1-4.7l-1.7-3.6-1.7 3.6h3.4z"/></svg>