<?xml version="1.0" encoding="UTF-8"?>
<svg viewBox="0 0 316.7 191.31" xmlns="http://www.w3.org/2000/svg">
<path d="m264.37 44.9a1 1 0 0 1-1-1v-4.9a1 1 0 1 1 2 0v4.9a1 1 0 0 1-1 1z"/>
<path d="m264.37 44.91a1.18 1.18 0 0 1-0.31 0l-4.63-1.51a1 1 0 1 1 0.62-1.9l4.63 1.5a1 1 0 0 1 0.64 1.26 1 1 0 0 1-0.95 0.65z"/>
<path d="M261.51,48.85a1.06,1.06,0,0,1-.59-.19,1,1,0,0,1-.22-1.4l2.86-3.94a1,1,0,0,1,1.4-.22,1,1,0,0,1,.22,1.39l-2.86,3.94A1,1,0,0,1,261.51,48.85Z"/>
<path d="M267.24,48.85a1,1,0,0,1-.81-.42l-2.87-3.94a1,1,0,0,1,.23-1.39,1,1,0,0,1,1.39.22l2.87,3.94a1,1,0,0,1-.22,1.4A1.09,1.09,0,0,1,267.24,48.85Z"/>
<path d="m264.37 44.91a1 1 0 0 1-0.31-2l4.64-1.5a1 1 0 0 1 0.62 1.9l-4.64 1.51a1.06 1.06 0 0 1-0.31 0.09z"/>
<path d="m282.57 44.9a1 1 0 0 1-1-1v-4.9a1 1 0 0 1 2 0v4.9a1 1 0 0 1-1 1z"/>
<path d="M282.57,44.91a1.18,1.18,0,0,1-.31,0l-4.63-1.51a1,1,0,1,1,.62-1.9l4.63,1.5a1,1,0,0,1-.31,2Z"/>
<path d="M279.71,48.85a1.06,1.06,0,0,1-.59-.19,1,1,0,0,1-.22-1.4l2.86-3.94a1,1,0,0,1,1.4-.22,1,1,0,0,1,.22,1.39l-2.86,3.94A1,1,0,0,1,279.71,48.85Z"/>
<path d="m285.44 48.85a1 1 0 0 1-0.81-0.42l-2.87-3.94a1 1 0 0 1 1.62-1.17l2.87 3.94a1 1 0 0 1-0.23 1.4 1 1 0 0 1-0.58 0.19z"/>
<path d="m282.57 44.91a1 1 0 0 1-0.31-2l4.64-1.5a1 1 0 0 1 0.62 1.9l-4.64 1.51a1.12 1.12 0 0 1-0.31 0.09z"/>
<path d="m246.17 44.9a1 1 0 0 1-1-1v-4.9a1 1 0 0 1 2 0v4.9a1 1 0 0 1-1 1z"/>
<path d="M246.17,44.91a1.18,1.18,0,0,1-.31,0l-4.63-1.51a1,1,0,1,1,.62-1.9l4.63,1.5a1,1,0,0,1-.31,2Z"/>
<path d="M243.31,48.85a1.09,1.09,0,0,1-.59-.19,1,1,0,0,1-.22-1.4l2.86-3.94a1,1,0,0,1,1.4-.22,1,1,0,0,1,.22,1.39l-2.86,3.94A1,1,0,0,1,243.31,48.85Z"/>
<path d="M249,48.85a1,1,0,0,1-.81-.42l-2.87-3.94a1,1,0,0,1,.23-1.39,1,1,0,0,1,1.39.22l2.87,3.94a1,1,0,0,1-.22,1.4A1.09,1.09,0,0,1,249,48.85Z"/>
<path d="m246.17 44.91a1 1 0 0 1-0.31-2l4.64-1.5a1 1 0 0 1 0.62 1.9l-4.64 1.51a1.06 1.06 0 0 1-0.31 0.09z"/>
<path d="M78.94,154a6.37,6.37,0,0,1,4.59,1.77.35.35,0,0,1,0,.53l-1.48,1.54a.34.34,0,0,1-.48,0,3.85,3.85,0,0,0-2.56-1,3.89,3.89,0,0,0,0,7.77,4,4,0,0,0,2.54-.91.39.39,0,0,1,.5,0l1.48,1.58a.38.38,0,0,1,0,.51,6.52,6.52,0,0,1-4.61,1.84,6.84,6.84,0,1,1,0-13.68Z"/>
<path d="M91.53,154.5a.37.37,0,0,1,.36-.36h2.28a.37.37,0,0,1,.36.36v12.58a.37.37,0,0,1-.36.36H91.89a.37.37,0,0,1-.36-.36Z"/>
<path d="M101.79,154.64a.34.34,0,0,1,.33-.5h2.52a.4.4,0,0,1,.33.21l3.13,6.94h.11l3.14-6.94a.38.38,0,0,1,.32-.21h2.53a.34.34,0,0,1,.32.5l-6,12.78a.37.37,0,0,1-.33.21H108a.35.35,0,0,1-.32-.21Z"/>
<path d="M121.78,154.5a.37.37,0,0,1,.36-.36h2.28a.37.37,0,0,1,.36.36v12.58a.37.37,0,0,1-.36.36h-2.28a.37.37,0,0,1-.36-.36Z"/>
<path d="M139.64,154a6.39,6.39,0,0,1,4.6,1.77.35.35,0,0,1,0,.53l-1.49,1.54a.33.33,0,0,1-.47,0,3.86,3.86,0,0,0-2.57-1,3.89,3.89,0,0,0,0,7.77,4,4,0,0,0,2.55-.91.38.38,0,0,1,.49,0l1.48,1.58a.37.37,0,0,1,0,.51,6.56,6.56,0,0,1-4.62,1.84,6.84,6.84,0,1,1,0-13.68Z"/>
<path d="m152.43 162.62a2 2 0 0 1 2-2.07 2.07 2.07 0 0 1 2.07 2.07 2 2 0 0 1-2.07 2 2 2 0 0 1-2-2z"/>
<path d="M165.65,154.5a.36.36,0,0,1,.36-.36h2.26a.37.37,0,0,1,.36.36v10.15h4.52a.37.37,0,0,1,.37.36v2.07a.37.37,0,0,1-.37.36H166a.36.36,0,0,1-.36-.36Z"/>
<path d="M181.06,154.5a.37.37,0,0,1,.36-.36h2.28a.37.37,0,0,1,.36.36v12.58a.37.37,0,0,1-.36.36h-2.28a.37.37,0,0,1-.36-.36Z"/>
<path d="M193,154.6a.45.45,0,0,1,.46-.46h2.22a.46.46,0,0,1,.45.46v5l4.22-5.27a.61.61,0,0,1,.36-.19h2.4a.44.44,0,0,1,.34.71L199,160.41l4.85,6.31a.44.44,0,0,1-.36.7h-2.63a.51.51,0,0,1-.34-.13l-4.39-6V167a.45.45,0,0,1-.45.45h-2.22A.45.45,0,0,1,193,167Z"/>
<path d="M211.52,154.5a.36.36,0,0,1,.36-.36h7.86a.36.36,0,0,1,.36.36v2.08a.36.36,0,0,1-.36.36h-5.26v2.35h4.33a.37.37,0,0,1,.36.36v2.07a.36.36,0,0,1-.36.36h-4.33v2.57h5.26a.36.36,0,0,1,.36.36v2.07a.36.36,0,0,1-.36.36h-7.86a.36.36,0,0,1-.36-.36Z"/>
<path d="M228.35,154.5a.36.36,0,0,1,.36-.36h5.68a4.14,4.14,0,0,1,4.14,4.11,4.19,4.19,0,0,1-2.81,3.82l2.6,4.82a.36.36,0,0,1-.32.55h-2.53a.34.34,0,0,1-.3-.17l-2.53-5h-1.31v4.84a.37.37,0,0,1-.36.36h-2.26a.36.36,0,0,1-.36-.36Zm5.79,5.32a1.53,1.53,0,0,0,1.45-1.52,1.46,1.46,0,0,0-1.45-1.44h-2.81v3Z"/>
<path d="M8.83,153a2.5,2.5,0,0,1-2.5-2.5V8.88a2.49,2.49,0,0,1,2.5-2.5H39a2.5,2.5,0,0,1,0,5H11.33v139.1A2.5,2.5,0,0,1,8.83,153Z"/>
<path d="m307.87 184.94h-299.04a2.5 2.5 0 0 1-2.5-2.5v-21a2.5 2.5 0 0 1 5 0v18.46h294v-58.42a2.5 2.5 0 0 1 5 0v61a2.5 2.5 0 0 1-2.46 2.46z"/>
<path d="m307.87 112.48a2.5 2.5 0 0 1-2.5-2.5v-80.98a2.5 2.5 0 0 1 5 0v81a2.5 2.5 0 0 1-2.5 2.48z"/>
<path d="M307.87,22a2.5,2.5,0,0,1-2.5-2.5v-8.1H87a2.5,2.5,0,1,1,0-5H307.87a2.49,2.49,0,0,1,2.5,2.5v10.6A2.5,2.5,0,0,1,307.87,22Z"/>
<path d="M75,11.38H50.54a2.5,2.5,0,1,1,0-5H75a2.5,2.5,0,0,1,0,5Z"/>
<path d="M56,57.08H31.74a1.5,1.5,0,0,1-1.5-1.5V50.72a1.5,1.5,0,0,1,3,0v3.36H54.51V32.8H33.24v3.36a1.5,1.5,0,0,1-3,0V31.3a1.5,1.5,0,0,1,1.5-1.5H56a1.5,1.5,0,0,1,1.5,1.5V55.58A1.5,1.5,0,0,1,56,57.08Z"/>
<path d="m42.37 51.15a1.53 1.53 0 0 1-1.06-0.44 1.51 1.51 0 0 1 0-2.12l5.08-5.08-4.87-4.88a1.49 1.49 0 0 1 0-2.12 1.51 1.51 0 0 1 2.12 0l5.93 5.94a1.5 1.5 0 0 1 0 2.12l-6.14 6.14a1.49 1.49 0 0 1-1.06 0.44z"/>
<path d="M48.51,45H28.24a1.5,1.5,0,0,1,0-3H48.51a1.5,1.5,0,0,1,0,3Z"/>
<path d="M84.54,141H8.21a1,1,0,0,1,0-2H84.54a1,1,0,0,1,0,2Z"/>
<path d="m157.54 141h-65a1 1 0 1 1 0-2h65a1 1 0 0 1 0 2z"/>
<path d="M308.21,141H166.54a1,1,0,0,1,0-2H308.21a1,1,0,0,1,0,2Z"/>
<path d="m305.45 189.81a1.5 1.5 0 0 1 1.5-1.5 1.5 1.5 0 0 1 1.5 1.5 1.5 1.5 0 0 1-1.5 1.5 1.5 1.5 0 0 1-1.5-1.5z"/>
<path d="m297.2 189.81a1.5 1.5 0 0 1 1.5-1.5 1.5 1.5 0 0 1 1.5 1.5 1.5 1.5 0 0 1-1.5 1.5 1.5 1.5 0 0 1-1.5-1.5z"/>
<path d="m288.94 189.81a1.5 1.5 0 0 1 1.5-1.5 1.5 1.5 0 0 1 1.5 1.5 1.5 1.5 0 0 1-1.5 1.5 1.5 1.5 0 0 1-1.5-1.5z"/>
<path d="m280.69 189.81a1.5 1.5 0 0 1 1.5-1.5 1.5 1.5 0 0 1 1.5 1.5 1.5 1.5 0 0 1-1.5 1.5 1.5 1.5 0 0 1-1.5-1.5z"/>
<path d="m272.43 189.81a1.5 1.5 0 0 1 1.5-1.5 1.5 1.5 0 0 1 1.5 1.5 1.5 1.5 0 0 1-1.5 1.5 1.5 1.5 0 0 1-1.5-1.5z"/>
<path d="m264.18 189.81a1.5 1.5 0 0 1 1.5-1.5 1.5 1.5 0 0 1 1.5 1.5 1.5 1.5 0 0 1-1.5 1.5 1.5 1.5 0 0 1-1.5-1.5z"/>
<path d="m255.92 189.81a1.5 1.5 0 0 1 1.5-1.5 1.5 1.5 0 0 1 1.5 1.5 1.5 1.5 0 0 1-1.5 1.5 1.5 1.5 0 0 1-1.5-1.5z"/>
<path d="m239.41 189.81a1.5 1.5 0 0 1 1.5-1.5 1.5 1.5 0 0 1 1.5 1.5 1.5 1.5 0 0 1-1.5 1.5 1.5 1.5 0 0 1-1.5-1.5z"/>
<path d="m231.15 189.81a1.5 1.5 0 0 1 1.5-1.5 1.5 1.5 0 0 1 1.5 1.5 1.5 1.5 0 0 1-1.5 1.5 1.5 1.5 0 0 1-1.5-1.5z"/>
<path d="m222.9 189.81a1.5 1.5 0 0 1 1.5-1.5 1.5 1.5 0 0 1 1.5 1.5 1.5 1.5 0 0 1-1.5 1.5 1.5 1.5 0 0 1-1.5-1.5z"/>
<path d="m214.64 189.81a1.5 1.5 0 0 1 1.5-1.5 1.5 1.5 0 0 1 1.5 1.5 1.5 1.5 0 0 1-1.5 1.5 1.5 1.5 0 0 1-1.5-1.5z"/>
<path d="m206.39 189.81a1.5 1.5 0 0 1 1.5-1.5 1.5 1.5 0 0 1 1.5 1.5 1.5 1.5 0 0 1-1.5 1.5 1.5 1.5 0 0 1-1.5-1.5z"/>
<path d="m198.13 189.81a1.5 1.5 0 0 1 1.5-1.5 1.5 1.5 0 0 1 1.5 1.5 1.5 1.5 0 0 1-1.5 1.5 1.5 1.5 0 0 1-1.5-1.5z"/>
<path d="m189.88 189.81a1.5 1.5 0 0 1 1.5-1.5 1.5 1.5 0 0 1 1.5 1.5 1.5 1.5 0 0 1-1.5 1.5 1.5 1.5 0 0 1-1.5-1.5z"/>
<path d="m181.62 189.81a1.5 1.5 0 0 1 1.5-1.5 1.5 1.5 0 0 1 1.5 1.5 1.5 1.5 0 0 1-1.5 1.5 1.5 1.5 0 0 1-1.5-1.5z"/>
<path d="m173.37 189.81a1.5 1.5 0 0 1 1.5-1.5 1.5 1.5 0 0 1 1.5 1.5 1.5 1.5 0 0 1-1.5 1.5 1.5 1.5 0 0 1-1.5-1.5z"/>
<path d="m165.11 189.81a1.5 1.5 0 0 1 1.5-1.5 1.5 1.5 0 0 1 1.5 1.5 1.5 1.5 0 0 1-1.5 1.5 1.5 1.5 0 0 1-1.5-1.5z"/>
<path d="m156.85 189.81a1.5 1.5 0 0 1 1.5-1.5 1.5 1.5 0 0 1 1.5 1.5 1.5 1.5 0 0 1-1.5 1.5 1.5 1.5 0 0 1-1.5-1.5z"/>
<path d="m148.6 189.81a1.5 1.5 0 0 1 1.5-1.5 1.5 1.5 0 0 1 1.5 1.5 1.5 1.5 0 0 1-1.5 1.5 1.5 1.5 0 0 1-1.5-1.5z"/>
<path d="m140.34 189.81a1.5 1.5 0 0 1 1.5-1.5 1.5 1.5 0 0 1 1.5 1.5 1.5 1.5 0 0 1-1.5 1.5 1.5 1.5 0 0 1-1.5-1.5z"/>
<path d="m132.09 189.81a1.5 1.5 0 0 1 1.5-1.5 1.5 1.5 0 0 1 1.5 1.5 1.5 1.5 0 0 1-1.5 1.5 1.5 1.5 0 0 1-1.5-1.5z"/>
<path d="m123.83 189.81a1.5 1.5 0 0 1 1.5-1.5 1.5 1.5 0 0 1 1.5 1.5 1.5 1.5 0 0 1-1.5 1.5 1.5 1.5 0 0 1-1.5-1.5z"/>
<path d="m115.58 189.81a1.5 1.5 0 0 1 1.5-1.5 1.5 1.5 0 0 1 1.5 1.5 1.5 1.5 0 0 1-1.5 1.5 1.5 1.5 0 0 1-1.5-1.5z"/>
<path d="m107.32 189.81a1.5 1.5 0 0 1 1.5-1.5 1.5 1.5 0 0 1 1.5 1.5 1.5 1.5 0 0 1-1.5 1.5 1.5 1.5 0 0 1-1.5-1.5z"/>
<path d="m99.07 189.81a1.5 1.5 0 0 1 1.5-1.5 1.5 1.5 0 0 1 1.5 1.5 1.5 1.5 0 0 1-1.5 1.5 1.5 1.5 0 0 1-1.5-1.5z"/>
<path d="m90.81 189.81a1.5 1.5 0 0 1 1.5-1.5 1.5 1.5 0 0 1 1.5 1.5 1.5 1.5 0 0 1-1.5 1.5 1.5 1.5 0 0 1-1.5-1.5z"/>
<path d="m82.56 189.81a1.5 1.5 0 0 1 1.5-1.5 1.5 1.5 0 0 1 1.5 1.5 1.5 1.5 0 0 1-1.5 1.5 1.5 1.5 0 0 1-1.5-1.5z"/>
<path d="m74.3 189.81a1.5 1.5 0 0 1 1.5-1.5 1.5 1.5 0 0 1 1.5 1.5 1.5 1.5 0 0 1-1.5 1.5 1.5 1.5 0 0 1-1.5-1.5z"/>
<path d="m66 189.81a1.5 1.5 0 0 1 1.5-1.5 1.5 1.5 0 0 1 1.5 1.5 1.5 1.5 0 0 1-1.5 1.5 1.5 1.5 0 0 1-1.5-1.5z"/>
<path d="m57.79 189.81a1.5 1.5 0 0 1 1.5-1.5 1.5 1.5 0 0 1 1.5 1.5 1.5 1.5 0 0 1-1.5 1.5 1.5 1.5 0 0 1-1.5-1.5z"/>
<path d="m49.53 189.81a1.5 1.5 0 0 1 1.5-1.5 1.5 1.5 0 0 1 1.5 1.5 1.5 1.5 0 0 1-1.5 1.5 1.5 1.5 0 0 1-1.5-1.5z"/>
<path d="m33 189.81a1.5 1.5 0 0 1 1.5-1.5 1.5 1.5 0 0 1 1.5 1.5 1.5 1.5 0 0 1-1.5 1.5 1.5 1.5 0 0 1-1.5-1.5z"/>
<path d="m24.77 189.81a1.5 1.5 0 0 1 1.5-1.5 1.5 1.5 0 0 1 1.5 1.5 1.5 1.5 0 0 1-1.5 1.5 1.5 1.5 0 0 1-1.5-1.5z"/>
<path d="m16.51 189.81a1.5 1.5 0 0 1 1.5-1.5 1.5 1.5 0 0 1 1.5 1.5 1.5 1.5 0 0 1-1.5 1.5 1.5 1.5 0 0 1-1.5-1.5z"/>
<path d="m8.26 189.81a1.5 1.5 0 0 1 1.5-1.5 1.5 1.5 0 0 1 1.5 1.5 1.5 1.5 0 0 1-1.5 1.5 1.5 1.5 0 0 1-1.5-1.5z"/>
<path d="m305.45 1.5a1.5 1.5 0 0 1 1.55-1.5 1.5 1.5 0 0 1 1.5 1.5 1.5 1.5 0 0 1-1.5 1.5 1.5 1.5 0 0 1-1.55-1.5z"/>
<path d="m297.2 1.5a1.5 1.5 0 0 1 1.5-1.5 1.5 1.5 0 0 1 1.5 1.5 1.5 1.5 0 0 1-1.5 1.5 1.5 1.5 0 0 1-1.5-1.5z"/>
<path d="m288.94 1.5a1.5 1.5 0 0 1 1.5-1.5 1.5 1.5 0 0 1 1.5 1.5 1.5 1.5 0 0 1-1.5 1.5 1.5 1.5 0 0 1-1.5-1.5z"/>
<path d="m280.69 1.5a1.5 1.5 0 0 1 1.5-1.5 1.5 1.5 0 0 1 1.5 1.5 1.5 1.5 0 0 1-1.5 1.5 1.5 1.5 0 0 1-1.5-1.5z"/>
<path d="m272.43 1.5a1.5 1.5 0 0 1 1.5-1.5 1.5 1.5 0 0 1 1.5 1.5 1.5 1.5 0 0 1-1.5 1.5 1.5 1.5 0 0 1-1.5-1.5z"/>
<path d="m264.18 1.5a1.5 1.5 0 0 1 1.5-1.5 1.5 1.5 0 0 1 1.5 1.5 1.5 1.5 0 0 1-1.5 1.5 1.5 1.5 0 0 1-1.5-1.5z"/>
<path d="m255.92 1.5a1.5 1.5 0 0 1 1.5-1.5 1.5 1.5 0 0 1 1.5 1.5 1.5 1.5 0 0 1-1.5 1.5 1.5 1.5 0 0 1-1.5-1.5z"/>
<path d="m247.67 1.5a1.5 1.5 0 0 1 1.5-1.5 1.5 1.5 0 0 1 1.5 1.5 1.5 1.5 0 0 1-1.5 1.5 1.5 1.5 0 0 1-1.5-1.5z"/>
<path d="m239.41 1.5a1.5 1.5 0 0 1 1.5-1.5 1.5 1.5 0 0 1 1.5 1.5 1.5 1.5 0 0 1-1.5 1.5 1.5 1.5 0 0 1-1.5-1.5z"/>
<path d="m231.15 1.5a1.5 1.5 0 0 1 1.5-1.5 1.5 1.5 0 0 1 1.5 1.5 1.5 1.5 0 0 1-1.5 1.5 1.5 1.5 0 0 1-1.5-1.5z"/>
<path d="m222.9 1.5a1.5 1.5 0 0 1 1.5-1.5 1.5 1.5 0 0 1 1.5 1.5 1.5 1.5 0 0 1-1.5 1.5 1.5 1.5 0 0 1-1.5-1.5z"/>
<path d="m214.64 1.5a1.5 1.5 0 0 1 1.5-1.5 1.5 1.5 0 0 1 1.5 1.5 1.5 1.5 0 0 1-1.5 1.5 1.5 1.5 0 0 1-1.5-1.5z"/>
<path d="m206.39 1.5a1.5 1.5 0 0 1 1.5-1.5 1.5 1.5 0 0 1 1.5 1.5 1.5 1.5 0 0 1-1.5 1.5 1.5 1.5 0 0 1-1.5-1.5z"/>
<path d="m198.13 1.5a1.5 1.5 0 0 1 1.5-1.5 1.5 1.5 0 0 1 1.5 1.5 1.5 1.5 0 0 1-1.5 1.5 1.5 1.5 0 0 1-1.5-1.5z"/>
<path d="m189.88 1.5a1.5 1.5 0 0 1 1.5-1.5 1.5 1.5 0 0 1 1.5 1.5 1.5 1.5 0 0 1-1.5 1.5 1.5 1.5 0 0 1-1.5-1.5z"/>
<path d="m181.62 1.5a1.5 1.5 0 0 1 1.5-1.5 1.5 1.5 0 0 1 1.5 1.5 1.5 1.5 0 0 1-1.5 1.5 1.5 1.5 0 0 1-1.5-1.5z"/>
<path d="m173.37 1.5a1.5 1.5 0 0 1 1.5-1.5 1.5 1.5 0 0 1 1.5 1.5 1.5 1.5 0 0 1-1.5 1.5 1.5 1.5 0 0 1-1.5-1.5z"/>
<path d="m165.11 1.5a1.5 1.5 0 0 1 1.5-1.5 1.5 1.5 0 0 1 1.5 1.5 1.5 1.5 0 0 1-1.5 1.5 1.5 1.5 0 0 1-1.5-1.5z"/>
<path d="m156.85 1.5a1.5 1.5 0 0 1 1.5-1.5 1.5 1.5 0 0 1 1.5 1.5 1.5 1.5 0 0 1-1.5 1.5 1.5 1.5 0 0 1-1.5-1.5z"/>
<path d="m148.6 1.5a1.5 1.5 0 0 1 1.5-1.5 1.5 1.5 0 0 1 1.5 1.5 1.5 1.5 0 0 1-1.5 1.5 1.5 1.5 0 0 1-1.5-1.5z"/>
<path d="m140.34 1.5a1.5 1.5 0 0 1 1.5-1.5 1.5 1.5 0 0 1 1.5 1.5 1.5 1.5 0 0 1-1.5 1.5 1.5 1.5 0 0 1-1.5-1.5z"/>
<path d="m132.09 1.5a1.5 1.5 0 0 1 1.5-1.5 1.5 1.5 0 0 1 1.5 1.5 1.5 1.5 0 0 1-1.5 1.5 1.5 1.5 0 0 1-1.5-1.5z"/>
<path d="m123.83 1.5a1.5 1.5 0 0 1 1.5-1.5 1.5 1.5 0 0 1 1.5 1.5 1.5 1.5 0 0 1-1.5 1.5 1.5 1.5 0 0 1-1.5-1.5z"/>
<path d="m115.58 1.5a1.5 1.5 0 0 1 1.5-1.5 1.5 1.5 0 0 1 1.5 1.5 1.5 1.5 0 0 1-1.5 1.5 1.5 1.5 0 0 1-1.5-1.5z"/>
<path d="m107.32 1.5a1.5 1.5 0 0 1 1.5-1.5 1.5 1.5 0 0 1 1.5 1.5 1.5 1.5 0 0 1-1.5 1.5 1.5 1.5 0 0 1-1.5-1.5z"/>
<path d="m99.07 1.5a1.5 1.5 0 0 1 1.5-1.5 1.5 1.5 0 0 1 1.5 1.5 1.5 1.5 0 0 1-1.5 1.5 1.5 1.5 0 0 1-1.5-1.5z"/>
<path d="m90.81 1.5a1.5 1.5 0 0 1 1.5-1.5 1.5 1.5 0 0 1 1.5 1.5 1.5 1.5 0 0 1-1.5 1.5 1.5 1.5 0 0 1-1.5-1.5z"/>
<path d="m66 1.5a1.5 1.5 0 0 1 1.54-1.5 1.5 1.5 0 0 1 1.46 1.5 1.5 1.5 0 0 1-1.46 1.5 1.5 1.5 0 0 1-1.54-1.5z"/>
<path d="m57.79 1.5a1.5 1.5 0 0 1 1.5-1.5 1.5 1.5 0 0 1 1.5 1.5 1.5 1.5 0 0 1-1.5 1.5 1.5 1.5 0 0 1-1.5-1.5z"/>
<path d="m49.53 1.5a1.5 1.5 0 0 1 1.47-1.5 1.5 1.5 0 0 1 1.5 1.5 1.5 1.5 0 0 1-1.5 1.5 1.5 1.5 0 0 1-1.47-1.5z"/>
<path d="m33 1.5a1.5 1.5 0 0 1 1.52-1.5 1.5 1.5 0 0 1 1.48 1.5 1.5 1.5 0 0 1-1.48 1.5 1.5 1.5 0 0 1-1.52-1.5z"/>
<path d="m24.77 1.5a1.5 1.5 0 0 1 1.5-1.5 1.5 1.5 0 0 1 1.5 1.5 1.5 1.5 0 0 1-1.5 1.5 1.5 1.5 0 0 1-1.5-1.5z"/>
<path d="m16.51 1.5a1.5 1.5 0 0 1 1.49-1.5 1.5 1.5 0 0 1 1.5 1.5 1.5 1.5 0 0 1-1.5 1.5 1.5 1.5 0 0 1-1.49-1.5z"/>
<path d="m8.26 1.5a1.5 1.5 0 0 1 1.5-1.5 1.5 1.5 0 0 1 1.5 1.5 1.5 1.5 0 0 1-1.5 1.5 1.5 1.5 0 0 1-1.5-1.5z"/>
<path d="m0 189.81a1.5 1.5 0 0 1 1.5-1.5 1.5 1.5 0 0 1 1.5 1.5 1.5 1.5 0 0 1-1.5 1.5 1.5 1.5 0 0 1-1.5-1.5z"/>
<path d="m0 181.62a1.5 1.5 0 0 1 1.49-1.5 1.5 1.5 0 0 1 1.5 1.5h0.01a1.5 1.5 0 0 1-1.5 1.5 1.5 1.5 0 0 1-1.5-1.5z"/>
<path d="m0 173.44a1.5 1.5 0 0 1 1.49-1.5 1.5 1.5 0 0 1 1.5 1.5h0.01a1.5 1.5 0 0 1-1.5 1.5 1.5 1.5 0 0 1-1.5-1.5z"/>
<path d="m0 148.87a1.5 1.5 0 0 1 1.49-1.5 1.5 1.5 0 0 1 1.5 1.5h0.01a1.5 1.5 0 0 1-1.5 1.5 1.5 1.5 0 0 1-1.5-1.5z"/>
<path d="m0 140.69a1.5 1.5 0 0 1 1.49-1.5 1.5 1.5 0 0 1 1.5 1.5h0.01a1.5 1.5 0 0 1-1.5 1.5 1.5 1.5 0 0 1-1.5-1.5z"/>
<path d="m0 132.5a1.5 1.5 0 0 1 1.49-1.5 1.5 1.5 0 0 1 1.51 1.5 1.5 1.5 0 0 1-1.5 1.5 1.5 1.5 0 0 1-1.5-1.5z"/>
<path d="m0 116.12a1.5 1.5 0 0 1 1.49-1.5 1.5 1.5 0 0 1 1.5 1.5h0.01a1.5 1.5 0 0 1-1.5 1.5 1.5 1.5 0 0 1-1.5-1.5z"/>
<path d="m0 107.94a1.5 1.5 0 0 1 1.49-1.5 1.5 1.5 0 0 1 1.5 1.5h0.01a1.5 1.5 0 0 1-1.5 1.5 1.5 1.5 0 0 1-1.5-1.5z"/>
<path d="m0 99.75a1.5 1.5 0 0 1 1.49-1.5 1.5 1.5 0 0 1 1.51 1.5 1.5 1.5 0 0 1-1.5 1.5 1.5 1.5 0 0 1-1.5-1.5z"/>
<path d="m0 91.56a1.5 1.5 0 0 1 1.49-1.5 1.5 1.5 0 0 1 1.51 1.5 1.5 1.5 0 0 1-1.5 1.5 1.5 1.5 0 0 1-1.5-1.5z"/>
<path d="m0 83.37a1.5 1.5 0 0 1 1.49-1.5 1.5 1.5 0 0 1 1.51 1.5 1.5 1.5 0 0 1-1.5 1.5 1.5 1.5 0 0 1-1.5-1.5z"/>
<path d="m0 75.19a1.5 1.5 0 0 1 1.49-1.5 1.5 1.5 0 0 1 1.51 1.5 1.5 1.5 0 0 1-1.5 1.5 1.5 1.5 0 0 1-1.5-1.5z"/>
<path d="M0,67a1.5,1.5,0,0,1,1.49-1.5h0A1.5,1.5,0,0,1,3,67H3a1.5,1.5,0,0,1-1.5,1.5h0A1.5,1.5,0,0,1,0,67Z"/>
<path d="m0 58.81a1.5 1.5 0 0 1 1.49-1.5 1.5 1.5 0 0 1 1.51 1.5 1.5 1.5 0 0 1-1.5 1.5 1.5 1.5 0 0 1-1.5-1.5z"/>
<path d="m0 50.62a1.5 1.5 0 0 1 1.49-1.5 1.5 1.5 0 0 1 1.51 1.5 1.5 1.5 0 0 1-1.5 1.5 1.5 1.5 0 0 1-1.5-1.5z"/>
<path d="m0 42.44a1.5 1.5 0 0 1 1.49-1.5 1.5 1.5 0 0 1 1.51 1.5 1.5 1.5 0 0 1-1.5 1.5 1.5 1.5 0 0 1-1.5-1.5z"/>
<path d="m0 34.25a1.5 1.5 0 0 1 1.49-1.5 1.5 1.5 0 0 1 1.51 1.5 1.5 1.5 0 0 1-1.5 1.5 1.5 1.5 0 0 1-1.5-1.5z"/>
<path d="m0 26.06a1.5 1.5 0 0 1 1.49-1.5 1.5 1.5 0 0 1 1.51 1.5 1.5 1.5 0 0 1-1.5 1.5 1.5 1.5 0 0 1-1.5-1.5z"/>
<path d="m0 17.87a1.5 1.5 0 0 1 1.49-1.5 1.5 1.5 0 0 1 1.51 1.5 1.5 1.5 0 0 1-1.5 1.5 1.5 1.5 0 0 1-1.5-1.5z"/>
<path d="M0,1.5A1.5,1.5,0,0,1,1.49,0h0A1.5,1.5,0,0,1,3,1.5H3A1.5,1.5,0,0,1,1.49,3h0A1.5,1.5,0,0,1,0,1.5Z"/>
<path d="m313.71 181.62a1.5 1.5 0 0 1 1.49-1.5 1.5 1.5 0 0 1 1.5 1.5 1.5 1.5 0 0 1-1.5 1.5 1.5 1.5 0 0 1-1.49-1.5z"/>
<path d="m313.71 173.44a1.5 1.5 0 0 1 1.49-1.5 1.5 1.5 0 0 1 1.5 1.5 1.5 1.5 0 0 1-1.5 1.5 1.5 1.5 0 0 1-1.49-1.5z"/>
<path d="m313.71 165.25a1.5 1.5 0 0 1 1.49-1.5 1.5 1.5 0 0 1 1.5 1.5 1.5 1.5 0 0 1-1.5 1.5 1.5 1.5 0 0 1-1.49-1.5z"/>
<path d="m313.71 157.06a1.5 1.5 0 0 1 1.49-1.5 1.5 1.5 0 0 1 1.5 1.5 1.5 1.5 0 0 1-1.5 1.5 1.5 1.5 0 0 1-1.49-1.5z"/>
<path d="m313.71 148.87a1.5 1.5 0 0 1 1.49-1.5 1.5 1.5 0 0 1 1.5 1.5 1.5 1.5 0 0 1-1.5 1.5 1.5 1.5 0 0 1-1.49-1.5z"/>
<path d="m313.71 140.69a1.5 1.5 0 0 1 1.49-1.5 1.5 1.5 0 0 1 1.5 1.5 1.5 1.5 0 0 1-1.5 1.5 1.5 1.5 0 0 1-1.49-1.5z"/>
<path d="m313.71 132.5a1.5 1.5 0 0 1 1.49-1.5 1.5 1.5 0 0 1 1.5 1.5 1.5 1.5 0 0 1-1.5 1.5 1.5 1.5 0 0 1-1.49-1.5z"/>
<path d="m313.71 124.31a1.5 1.5 0 0 1 1.49-1.5 1.5 1.5 0 0 1 1.5 1.5 1.5 1.5 0 0 1-1.5 1.5 1.5 1.5 0 0 1-1.49-1.5z"/>
<path d="m313.71 107.94a1.5 1.5 0 0 1 1.49-1.5 1.5 1.5 0 0 1 1.5 1.5 1.5 1.5 0 0 1-1.5 1.5 1.5 1.5 0 0 1-1.49-1.5z"/>
<path d="m313.71 99.75a1.5 1.5 0 0 1 1.49-1.5 1.5 1.5 0 0 1 1.5 1.5 1.5 1.5 0 0 1-1.5 1.5 1.5 1.5 0 0 1-1.49-1.5z"/>
<path d="m313.71 91.56a1.5 1.5 0 0 1 1.49-1.5 1.5 1.5 0 0 1 1.5 1.5 1.5 1.5 0 0 1-1.5 1.5 1.5 1.5 0 0 1-1.49-1.5z"/>
<path d="m313.71 83.37a1.5 1.5 0 0 1 1.49-1.5 1.5 1.5 0 0 1 1.5 1.5 1.5 1.5 0 0 1-1.5 1.5 1.5 1.5 0 0 1-1.49-1.5z"/>
<path d="m313.71 75.19a1.5 1.5 0 0 1 1.49-1.5 1.5 1.5 0 0 1 1.5 1.5 1.5 1.5 0 0 1-1.5 1.5 1.5 1.5 0 0 1-1.49-1.5z"/>
<path d="m313.71 67a1.5 1.5 0 0 1 1.49-1.5 1.5 1.5 0 0 1 1.5 1.5 1.5 1.5 0 0 1-1.5 1.5 1.5 1.5 0 0 1-1.49-1.5z"/>
<path d="m313.71 58.81a1.5 1.5 0 0 1 1.49-1.5 1.5 1.5 0 0 1 1.5 1.5 1.5 1.5 0 0 1-1.5 1.5 1.5 1.5 0 0 1-1.49-1.5z"/>
<path d="m313.71 50.62a1.5 1.5 0 0 1 1.49-1.5 1.5 1.5 0 0 1 1.5 1.5 1.5 1.5 0 0 1-1.5 1.5 1.5 1.5 0 0 1-1.49-1.5z"/>
<path d="m313.71 42.44a1.5 1.5 0 0 1 1.49-1.5 1.5 1.5 0 0 1 1.5 1.5 1.5 1.5 0 0 1-1.5 1.5 1.5 1.5 0 0 1-1.49-1.5z"/>
<path d="m313.71 34.25a1.5 1.5 0 0 1 1.49-1.5 1.5 1.5 0 0 1 1.5 1.5 1.5 1.5 0 0 1-1.5 1.5 1.5 1.5 0 0 1-1.49-1.5z"/>
<path d="m313.71 17.87a1.5 1.5 0 0 1 1.49-1.5 1.5 1.5 0 0 1 1.5 1.5 1.5 1.5 0 0 1-1.5 1.5 1.5 1.5 0 0 1-1.49-1.5z"/>
<path d="m313.71 9.69a1.5 1.5 0 0 1 1.49-1.5 1.5 1.5 0 0 1 1.5 1.5 1.5 1.5 0 0 1-1.5 1.5 1.5 1.5 0 0 1-1.49-1.5z"/>
<path d="m313.71 1.5a1.5 1.5 0 0 1 1.49-1.5 1.5 1.5 0 0 1 1.5 1.5 1.5 1.5 0 0 1-1.5 1.5 1.5 1.5 0 0 1-1.49-1.5z"/>
<path d="m287.21 122.5h-5a1 1 0 0 1 0-2h3v-2.42a1 1 0 1 1 2 0zm-15 0h-7a1 1 0 0 1 0-2h7a1 1 0 0 1 0 2zm-14 0h-7a1 1 0 0 1 0-2h7a1 1 0 0 1 0 2zm-14 0h-7a1 1 0 0 1 0-2h7a1 1 0 1 1 0 2zm-14 0h-7a1 1 0 0 1 0-2h7a1 1 0 1 1 0 2zm-14 0h-7a1 1 0 0 1 0-2h7a1 1 0 1 1 0 2zm-14 0h-3.5a1 1 0 0 1 0-2h3.5a1 1 0 1 1 0 2zm-14 0h-7a1 1 0 0 1 0-2h7a1 1 0 1 1 0 2zm-14 0h-5.5a1 1 0 0 1 0-2h5.5a1 1 0 1 1 0 2zm-17.67 0h-3.33a1 1 0 0 1 0-2h3.33a1 1 0 0 1 0 2zm-10.33 0h-7a1 1 0 0 1 0-2h7a1 1 0 1 1 0 2zm-14 0h-7a1 1 0 1 1 0-2h7a1 1 0 0 1 0 2zm-14 0h-7a1 1 0 1 1 0-2h7a1 1 0 0 1 0 2zm-14 0h-5.5a1 1 0 1 1 0-2h5.5a1 1 0 0 1 0 2zm-28 0h-7a1 1 0 1 1 0-2h7a1 1 0 0 1 0 2zm-14 0h-5a1 1 0 0 1 0-2h5a1 1 0 1 1 0 2zm-14 0h-7a1 1 0 0 1 0-2h7a1 1 0 1 1 0 2zm-17.71-10.29a1 1 0 0 1-1-1v-7a1 1 0 1 1 2 0v7a1 1 0 0 1-1 1zm255.71-0.13a1 1 0 0 1-1-1v-7a1 1 0 1 1 2 0v7a1 1 0 0 1-1 1zm-255.71-15.37a1 1 0 0 1-1-1v-5.5a1 1 0 0 1 2 0v5.5a1 1 0 0 1-1 1zm255.71 1.37a1 1 0 0 1-1-1v-4.5a1 1 0 1 1 2 0v4.5a1 1 0 0 1-1 1zm-255.71-13.87a1 1 0 0 1-1-1v-5.5a1 1 0 0 1 2 0v5.5a1 1 0 0 1-1 1zm255.71-1.13a1 1 0 0 1-1-1v-4.5a1 1 0 1 1 2 0v4.5a1 1 0 0 1-1 1zm-5.43-7.58h-7a1 1 0 0 1 0-2h7a1 1 0 0 1 0 2zm-14 0h-4a1 1 0 0 1 0-2h4a1 1 0 0 1 0 2zm-14 0h-7a1 1 0 1 1 0-2h7a1 1 0 0 1 0 2zm-14 0h-5.5a1 1 0 1 1 0-2h5.5a1 1 0 0 1 0 2zm-28 0h-7a1 1 0 1 1 0-2h7a1 1 0 0 1 0 2zm-15.5 0h-5.5a1 1 0 1 1 0-2h5.5a1 1 0 0 1 0 2zm-12.5 0h-7a1 1 0 0 1 0-2h7a1 1 0 0 1 0 2zm-14 0h-7a1 1 0 0 1 0-2h7a1 1 0 0 1 0 2zm-14 0h-4.5a1 1 0 0 1 0-2h4.5a1 1 0 0 1 0 2zm-14 0h-7a1 1 0 0 1 0-2h7a1 1 0 0 1 0 2zm-15.5 0h-5.5a1 1 0 0 1 0-2h5.5a1 1 0 0 1 0 2zm-12.5 0h-5.5a1 1 0 0 1 0-2h5.5a1 1 0 0 1 0 2zm-14 0h-7a1 1 0 0 1 0-2h7a1 1 0 0 1 0 2zm-14 0h-7a1 1 0 0 1 0-2h7a1 1 0 0 1 0 2zm-14 0h-7a1 1 0 0 1 0-2h7a1 1 0 0 1 0 2zm-14 0h-7a1 1 0 0 1 0-2h7a1 1 0 0 1 0 2zm-14 0h-7a1 1 0 0 1 0-2h7a1 1 0 0 1 0 2z"/>
</svg>
