<svg xmlns="http://www.w3.org/2000/svg" viewBox="0 0 192.5 192.5"><defs><style>.a{fill:#28646e}</style></defs><path class="a" d="M148.1 171.35a91.3 91.3 0 0 1-105.16-1 2.5 2.5 0 1 0-2.94 4.02 96.29 96.29 0 0 0 111 1.09 2.5 2.5 0 0 0-2.85-4.11zM177.07 44a2.5 2.5 0 1 0-4.19 2.72 91.29 91.29 0 0 1-16.79 118.46 2.5 2.5 0 0 0 3.28 3.78 96.29 96.29 0 0 0 17.7-125zM51.91 16.48a91.3 91.3 0 0 1 115 22 2.5 2.5 0 1 0 3.86-3.17 96.29 96.29 0 0 0-121.29-23.2 2.5 2.5 0 1 0 2.43 4.37zM5 96.25a91.66 91.66 0 0 1 37.06-73.42 2.5 2.5 0 0 0-3-4 96.3 96.3 0 0 0-28.38 121.52 2.49 2.49 0 0 0 2.22 1.36 2.43 2.43 0 0 0 1.14-.28 2.51 2.51 0 0 0 1.08-3.37A90.17 90.17 0 0 1 5 96.25zm15.54 50.96A2.5 2.5 0 1 0 16.4 150a96.53 96.53 0 0 0 14.53 16.93 2.5 2.5 0 0 0 3.39-3.67 91.81 91.81 0 0 1-13.78-16.05z"/><path class="a" d="M96.62 7.71h-.37c-1.23 0-2.48 0-3.7.08a1.5 1.5 0 0 0 .06 3h.06c1.18 0 2.39-.08 3.58-.08h.36a1.5 1.5 0 0 0 0-3zM74.61 182.13c1.31.33 2.65.64 4 .9a1.53 1.53 0 0 0 .3 0 1.5 1.5 0 0 0 .29-3c-1.28-.26-2.57-.55-3.84-.87a1.5 1.5 0 1 0-.73 2.91zM132.8 18.88c1.18.56 2.37 1.16 3.52 1.77a1.52 1.52 0 0 0 .7.18 1.5 1.5 0 0 0 .71-2.83c-1.2-.63-2.42-1.25-3.65-1.83a1.5 1.5 0 1 0-1.28 2.71zm-54.09-6.41a1.53 1.53 0 0 0 .3 0c1.28-.26 2.58-.5 3.87-.7a1.5 1.5 0 1 0-.46-3c-1.34.21-2.69.45-4 .72a1.5 1.5 0 0 0 .3 3zm32.1-3.57c-1.33-.22-2.69-.42-4-.58a1.51 1.51 0 0 0-1.67 1.32 1.5 1.5 0 0 0 1.32 1.66c1.29.16 2.6.34 3.89.56h.25a1.5 1.5 0 0 0 .24-3zM129.94 178a1.47 1.47 0 0 0 .58-.12c1.25-.52 2.5-1.08 3.71-1.66a1.5 1.5 0 0 0-1.28-2.71c-1.18.56-2.39 1.1-3.59 1.6a1.5 1.5 0 0 0 .58 2.89zm-41.28 6.48c1.34.11 2.71.19 4.07.25h.06a1.5 1.5 0 0 0 .06-3c-1.32 0-2.64-.13-3.93-.24a1.5 1.5 0 0 0-.26 3zm35.98-172.13a87.5 87.5 0 0 0-3.89-1.21 1.5 1.5 0 1 0-.83 2.88c1.26.36 2.52.76 3.76 1.17a1.34 1.34 0 0 0 .48.08 1.5 1.5 0 0 0 .48-2.92zm-8.01 170.05a1.34 1.34 0 0 0 .35-.05c1.32-.31 2.64-.66 3.94-1a1.5 1.5 0 1 0-.83-2.88c-1.26.36-2.54.7-3.81 1a1.5 1.5 0 0 0 .35 3zm-13.84 2.15h.12c1.34-.1 2.71-.23 4-.4a1.5 1.5 0 1 0-.36-3c-1.3.15-2.61.28-3.91.38a1.5 1.5 0 0 0 .1 3zM176.94 129a1.47 1.47 0 0 0 .54.1 1.5 1.5 0 0 0 1.4-1c.49-1.26 1-2.55 1.38-3.84a1.5 1.5 0 1 0-2.84-1c-.42 1.25-.87 2.49-1.34 3.71a1.5 1.5 0 0 0 .86 2.03zm3.27-61a1.5 1.5 0 0 0-2.85.95c.42 1.24.81 2.5 1.17 3.76a1.5 1.5 0 0 0 1.47 1.13 1.45 1.45 0 0 0 .41-.06 1.49 1.49 0 0 0 1-1.85c-.41-1.3-.77-2.61-1.2-3.93zm.49 42c-.21 1.29-.45 2.59-.71 3.87a1.5 1.5 0 0 0 1.16 1.78 1.55 1.55 0 0 0 .31 0 1.5 1.5 0 0 0 1.46-1.19c.28-1.33.53-2.68.74-4a1.5 1.5 0 0 0-3-.48zm2.93-28.14a1.5 1.5 0 1 0-3 .49c.21 1.29.4 2.6.55 3.9a1.49 1.49 0 0 0 1.49 1.32h.17a1.5 1.5 0 0 0 1.32-1.66c-.16-1.35-.31-2.71-.53-4.05zm1.07 18.46c.07-1.35.1-2.72.1-4.06v-.2a1.55 1.55 0 0 0-1.51-1.5 1.5 1.5 0 0 0-1.49 1.51v.18c0 1.31 0 2.63-.09 3.94a1.5 1.5 0 0 0 1.43 1.56h.07a1.49 1.49 0 0 0 1.49-1.43zm-11.77-41.91a1.51 1.51 0 0 0 1.36.86 1.61 1.61 0 0 0 .64-.14 1.51 1.51 0 0 0 .72-2c-.58-1.22-.43-1-1.06-2.18a1.5 1.5 0 1 0-2.65 1.4c.61 1.15.44.88.99 2.06zM65.26 16.38a1.39 1.39 0 0 0 .53-.1c1.23-.46 2.47-.9 3.71-1.31a1.5 1.5 0 1 0-.93-2.85c-1.29.42-2.58.88-3.84 1.36a1.5 1.5 0 0 0 .53 2.9zM62.3 174.79a1.5 1.5 0 0 0-1.19 2.76c1.24.53 2.51 1 3.78 1.53a1.46 1.46 0 0 0 .53.1 1.5 1.5 0 0 0 .53-2.9c-1.22-.47-2.45-.97-3.65-1.49zm85.62-146.72a1.53 1.53 0 0 0 .91.3 1.5 1.5 0 0 0 .91-2.69 92.07 92.07 0 0 0-3.31-2.39 1.5 1.5 0 0 0-1.7 2.47c1.07.74 2.15 1.51 3.19 2.31zm-90.46-9.78a1.5 1.5 0 0 0-2-.64c-1.2.62-1.26.62-2.43 1.3a1.5 1.5 0 0 0 .75 2.8 1.44 1.44 0 0 0 .75-.21c1.13-.65 1.15-.62 2.31-1.23a1.49 1.49 0 0 0 .62-2.02zm113.17 123.22a1.5 1.5 0 0 0 2.06-.53c.68-1.17.86-1.28 1.49-2.48a1.5 1.5 0 0 0-2.66-1.4c-.61 1.16-.76 1.23-1.42 2.36a1.5 1.5 0 0 0 .53 2.05zM48.52 170.85c1.15.73 2.32 1.45 3.49 2.12a1.53 1.53 0 0 0 .75.2 1.5 1.5 0 0 0 .75-2.8c-1.13-.65-2.26-1.34-3.37-2.05a1.5 1.5 0 0 0-1.62 2.53zM8.39 85.17c-.17 1.34-.31 2.71-.41 4a1.5 1.5 0 0 0 1.38 1.62h.12A1.5 1.5 0 0 0 11 89.46c.1-1.3.24-2.62.4-3.92a1.5 1.5 0 0 0-3-.37zM8 103.47a1.51 1.51 0 0 0 1.5 1.38h.12a1.49 1.49 0 0 0 1.38-1.62c-.1-1.3-.18-2.63-.22-3.93a1.5 1.5 0 1 0-3 .1c.03 1.35.11 2.72.22 4.07zM11.69 77a1.51 1.51 0 0 0 1.46-1.14c.31-1.27.65-2.55 1-3.8a1.5 1.5 0 0 0-2.88-.85c-.38 1.3-.74 2.62-1.06 3.94A1.51 1.51 0 0 0 11.33 77a1.47 1.47 0 0 0 .36 0zm15.9 72.79a1.49 1.49 0 0 0-.22 2.1C28.22 153 29.11 154 30 155a1.49 1.49 0 0 0 1.12.51 1.52 1.52 0 0 0 1-.38 1.5 1.5 0 0 0 .13-2.12c-.87-1-1.73-2-2.55-3a1.49 1.49 0 0 0-2.11-.22zm135.77 3.4a1.47 1.47 0 0 0 1.15-.54c.87-1 1.72-2.12 2.53-3.2a1.5 1.5 0 1 0-2.4-1.8c-.78 1-1.6 2.08-2.44 3.09a1.49 1.49 0 0 0 1.16 2.45zm-141.93-9.56a1.5 1.5 0 0 0 1.27.69A1.49 1.49 0 0 0 24 142c-.7-1.1.16.42-.48-.71a1.5 1.5 0 0 0-2.61 1.49c.63 1.22-.2-.3.52.85zm-11.15-26.1a1.5 1.5 0 0 0 1.45 1.14 1.47 1.47 0 0 0 .36 0 1.5 1.5 0 0 0 1.1-1.82c-.31-1.27-.6-2.56-.85-3.84a1.5 1.5 0 0 0-2.95.58c.27 1.29.61 2.63.89 3.94zm15.41-72.29a1.48 1.48 0 0 0-2.08.37c-.78 1.11-1.54 2.25-2.26 3.39a1.5 1.5 0 1 0 2.53 1.61c.7-1.11 1.44-2.21 2.19-3.28a1.51 1.51 0 0 0-.38-2.09zM40 29.84a1.5 1.5 0 0 0 1.16.55 1.56 1.56 0 0 0 1-.34c1-.83 2-1.65 3.1-2.43a1.5 1.5 0 0 0-1.79-2.4c-1.08.8-2.16 1.65-3.21 2.51a1.49 1.49 0 0 0-.26 2.11zm-7.85 9.75c.87-1 1.77-2 2.68-2.88a1.5 1.5 0 0 0-2.16-2.09c-.94 1-1.87 2-2.76 3a1.48 1.48 0 0 0 .09 2.1 1.45 1.45 0 0 0 1 .38 1.47 1.47 0 0 0 1.15-.51zm110.21 132a1.46 1.46 0 0 0 .8-.23 94.6 94.6 0 0 0 3.4-2.23 1.5 1.5 0 0 0-1.71-2.47c-1.07.74-2.18 1.47-3.28 2.16a1.5 1.5 0 0 0 .79 2.77zM157.63 158a1.49 1.49 0 0 0-2.12 0c-.94.9-1.92 1.8-2.9 2.66a1.49 1.49 0 0 0-.14 2.12 1.5 1.5 0 0 0 2.11.14c1-.9 2-1.82 3-2.76a1.51 1.51 0 0 0 .05-2.16zm.56-120.76a1.5 1.5 0 1 0 2.17-2.07c-.93-1-1.9-1.94-2.88-2.88a1.5 1.5 0 1 0-2.07 2.17c.94.9 1.88 1.84 2.78 2.78zM14.8 131a1.49 1.49 0 0 0 1.38.91 1.59 1.59 0 0 0 .59-.12 1.51 1.51 0 0 0 .79-2c-.52-1.19-1-2.42-1.46-3.64a1.5 1.5 0 1 0-2.81 1.05c.47 1.32.98 2.59 1.51 3.8zm3.61-73.79a1.5 1.5 0 0 0-2 .7c-.58 1.22-1.15 2.47-1.68 3.72a1.5 1.5 0 0 0 .79 2 1.52 1.52 0 0 0 .59.12 1.5 1.5 0 0 0 1.38-.91 89.72 89.72 0 0 1 1.62-3.6 1.5 1.5 0 0 0-.7-2.03zm18.83 59.58h6a1 1 0 0 0 0-2h-6a1 1 0 1 0 0 2zm40.93-1a1 1 0 0 0-1-1H64.45a1 1 0 0 0 0 2h12.72a1 1 0 0 0 1-1zm50.88 0a1 1 0 0 0-1-1h-12.72a1 1 0 0 0 0 2h12.72a1 1 0 0 0 1-1zm-47.64 1h10.52a1 1 0 0 0 0-2H81.41a1 1 0 0 0 0 2zm15.96-1a1 1 0 0 0 1 1h12.72a1 1 0 0 0 0-2H98.37a1 1 0 0 0-1 1zm41.56 0a1 1 0 0 0 1 1H145a1 1 0 0 0 0-2h-5.09a1 1 0 0 0-.98 1zm-77.72 0a1 1 0 0 0-1-1h-8.78a1 1 0 1 0 0 2h8.78a1 1 0 0 0 1-1zm88.05 1h6a1 1 0 0 0 0-2h-6a1 1 0 0 0 0 2zm-100.38 34.5h3.72a1 1 0 0 0 0-2h-3.72a1 1 0 1 0 0 2zm74.72 0h10.08a1 1 0 0 0 0-2H123.6a1 1 0 0 0 0 2zm-20.44-1a1 1 0 0 0-1-1H90.34a1 1 0 0 0 0 2h11.82a1 1 0 0 0 1-1zm-18.06 0a1 1 0 0 0-1-1h-9.52a1 1 0 0 0 0 2h9.52a1 1 0 0 0 1-1zm-13.46 0a1 1 0 0 0-1-1H58.82a1 1 0 1 0 0 2h11.82a1 1 0 0 0 1-1zm47.28 0a1 1 0 0 0-1-1H106.1a1 1 0 0 0 0 2h11.82a1 1 0 0 0 1-1zm18.7 1h6a1 1 0 0 0 0-2h-6a1 1 0 0 0 0 2zm-95.35-68.8a6.55 6.55 0 0 0-.75-4.92.38.38 0 0 0-.5-.13l-1.87 1.08A.39.39 0 0 0 39 79a4 4 0 0 1 .31 2.69A3.89 3.89 0 0 1 31.76 80a3.85 3.85 0 0 1 1.52-2.28.33.33 0 0 0 .11-.46l-1.16-1.8a.36.36 0 0 0-.53-.1 6.38 6.38 0 0 0-2.76 4.08 6.84 6.84 0 1 0 13.33 3.1z"/><rect class="a" x="39.49" y="60.33" width="3" height="13.3" rx=".36" transform="rotate(-62.04 40.98 66.974)"/><path class="a" d="M50.61 54.24l-.08.08-7.23-2.38a.36.36 0 0 0-.37.09l-1.71 1.86a.34.34 0 0 0 .15.58l13.43 4.29a.38.38 0 0 0 .37-.1l.13-.14a.36.36 0 0 0 .06-.38L50 45.09a.33.33 0 0 0-.6-.09l-1.71 1.86a.36.36 0 0 0-.06.38z"/><rect class="a" x="60.93" y="37.01" width="3" height="13.3" rx=".36" transform="rotate(-32.9 62.45 43.856)"/><path class="a" d="M71.48 38.56a6.82 6.82 0 0 0 8.63 4.37 6.54 6.54 0 0 0 3.82-3.18.38.38 0 0 0-.14-.5l-1.89-1a.39.39 0 0 0-.48.13A4 4 0 0 1 79.28 40a3.89 3.89 0 0 1-2.42-7.38 3.92 3.92 0 0 1 2.74.12.32.32 0 0 0 .45-.14l.95-1.92a.35.35 0 0 0-.18-.5 6.38 6.38 0 0 0-4.92-.26 6.85 6.85 0 0 0-4.42 8.64zm24.58-5.08a2.06 2.06 0 0 0-2 2.1 2 2 0 0 0 4.07-.06 2.07 2.07 0 0 0-2.07-2.04zM115 29.65l-2.13-.65a.37.37 0 0 0-.45.25l-3.51 12.08a.36.36 0 0 0 .24.45l6.87 2a.35.35 0 0 0 .44-.24l.58-2a.36.36 0 0 0-.24-.45l-4.35-1.26 2.84-9.75a.39.39 0 0 0-.29-.43z"/><rect class="a" x="120.44" y="40.35" width="13.3" height="3" rx=".36" transform="rotate(-60.41 127.089 41.852)"/><path class="a" d="M137.37 58.09a.46.46 0 0 0 .15.34l1.88 1.83a.44.44 0 0 0 .74-.25l.94-7.9 7.08-.88a.44.44 0 0 0 .24-.74l-1.71-1.67a.59.59 0 0 0-.39-.12l-6.7.82 3.49-3.52a.47.47 0 0 0 0-.65l-1.59-1.55a.45.45 0 0 0-.65 0l-8.65 8.86a.44.44 0 0 0 0 .64l1.59 1.56a.47.47 0 0 0 .65 0l4-4.05zm10.5 15.35l1.82-1a.35.35 0 0 0 .14-.49l-2.51-4.62 2.25-1.23 2.07 3.8a.36.36 0 0 0 .49.15l1.82-1a.37.37 0 0 0 .14-.49L152 64.77l2.07-1.13 2.52 4.62a.36.36 0 0 0 .49.15l1.81-1a.36.36 0 0 0 .15-.49L155.29 60a.36.36 0 0 0-.49-.14l-11 6a.37.37 0 0 0-.14.49l3.76 6.9a.36.36 0 0 0 .45.19zm16.45 10.36l-1.12-5.57a.36.36 0 0 0-.43-.28l-12.33 2.48a.37.37 0 0 0-.29.43l.45 2.21a.39.39 0 0 0 .43.29l4.75-1 .26 1.28-4.44 3.48a.34.34 0 0 0-.11.33L152 90a.36.36 0 0 0 .6.2l4.22-3.5a4.06 4.06 0 0 0 7.51-2.87zm-3.85 2a1.51 1.51 0 0 1-1.77-1.11l-.56-2.76 2.91-.58.55 2.75a1.44 1.44 0 0 1-1.13 1.69zM93.72 75.5a.91.91 0 0 0 1.2 1.37 20.77 20.77 0 0 0 4.28-5c.18-.31.68-1 1.42-.92a.91.91 0 0 0 1-.78.9.9 0 0 0-.78-1A3.22 3.22 0 0 0 97.63 71a19.49 19.49 0 0 1-3.91 4.5zM78.31 92.18a.91.91 0 0 0 1.28.12 25.6 25.6 0 0 1 3-2 .91.91 0 0 0 .41-1.23.93.93 0 0 0-1.23-.41 26.63 26.63 0 0 0-3.34 2.24.91.91 0 0 0-.12 1.28z"/><path class="a" d="M86.9 73.49A55.18 55.18 0 0 0 84.39 81a23 23 0 0 0-.17 9.28.9.9 0 0 1-.11.62 35.63 35.63 0 0 0-2.32 4 1.13 1.13 0 0 0 .47 1.45 1.09 1.09 0 0 0 .54.14 1.1 1.1 0 0 0 1-.64c.35-.72 1-2.08 1.33-2.65a19.44 19.44 0 0 0 .93-2 3.06 3.06 0 0 0 0-1.78 18.5 18.5 0 0 1 .19-7.5 76.68 76.68 0 0 1 2.68-8.36c.27-.66.65-.87 1-.84s1.12.22.91 1.59c-.38 2.45-.91 5.56-1.09 6.61a2.13 2.13 0 0 0 .77 2.26 2.25 2.25 0 0 0 2.48-.41 46 46 0 0 0 7.71-6.56 18.35 18.35 0 0 0 3.63-5.52 1 1 0 0 1 1.2-.56c.25.07.55.4.34 1.1a24 24 0 0 1-6.66 9.24.79.79 0 0 0-.16 1.16.75.75 0 0 0 1.11 0 26.75 26.75 0 0 0 6.65-8.79 16.12 16.12 0 0 0 .8-2c.2-.57.64-.78 1-.71s.73.54.59 1.29a12.7 12.7 0 0 1-1 2.76 38.43 38.43 0 0 1-6.28 8.64.74.74 0 0 0 0 1.09c.36.34.78.19 1.16-.18a34.23 34.23 0 0 0 6.36-8.5.79.79 0 0 1 1-.5c.51.2.5 1.07 0 2a32.15 32.15 0 0 1-6.24 8.72.7.7 0 0 0 0 1c.3.26.78.25 1.22-.21a36.28 36.28 0 0 0 3.9-4.55.85.85 0 0 1 .88-.45c.44.08.51.5.37 1-.21.82-2.52 3.84-3.43 4.85-2.47 2.76-4.94 4.27-9.7 6.74a8.38 8.38 0 0 0-3.65 3c-.69 1.16-.89 1.54-1 1.68a1.16 1.16 0 0 0 .5 1.54 1.09 1.09 0 0 0 .49.11 1.11 1.11 0 0 0 1-.69l.86-1.5a6.52 6.52 0 0 1 2.8-2.47 27.45 27.45 0 0 0 9.55-6.65 32.06 32.06 0 0 0 3.48-4.76c1.33-2.24.63-4.16-.57-4.48a.16.16 0 0 1-.1-.23 11.83 11.83 0 0 0 1.53-3.55 2.25 2.25 0 0 0-1.68-2.9.15.15 0 0 1-.11-.19c.1-.37.2-.83.26-1.14a2.58 2.58 0 0 0-1.76-3.11 2.63 2.63 0 0 0-2.14.44.2.2 0 0 1-.28 0 1.68 1.68 0 0 0-1.19-.55 2.68 2.68 0 0 0-2.69 1.82 19.16 19.16 0 0 1-3.52 5 38.63 38.63 0 0 1-6.75 5.72c-.31.2-.75.15-.7-.27.09-.66.8-5.15.92-6.47.2-2.14-1-3.12-2.25-3.3-1.04-.12-2.66.18-3.55 2.61zm-3.03-6.11a.39.39 0 0 0-.53-.22 4.19 4.19 0 0 0-1.09.78 4.07 4.07 0 0 0-.91 1 .4.4 0 0 0 .15.56c.49.36 2.93 1.8 3.53 2.08.12.06.27.13.41 0a.34.34 0 0 0 0-.4c-.15-.66-1.26-3.27-1.56-3.8zm-3.22 8.17c.55-.23 3.06-1.57 3.61-1.93.11-.07.25-.16.22-.35 0-.19-.2-.22-.33-.25-.63-.16-3.45-.57-4.05-.59a.4.4 0 0 0-.47.34 4.33 4.33 0 0 0 .1 1.33 4.53 4.53 0 0 0 .36 1.29.41.41 0 0 0 .56.16zm24.96 19.15c-.18 0-.24.17-.28.29a39.85 39.85 0 0 0-1 4 .39.39 0 0 0 .28.5 4.37 4.37 0 0 0 1.34 0 4 4 0 0 0 1.32-.22.4.4 0 0 0 .22-.54c-.17-.57-1.24-3.21-1.54-3.79-.08-.11-.16-.26-.34-.24zm4.55 2.04a.4.4 0 0 0 .58 0 4.43 4.43 0 0 0 .73-1.12 4.56 4.56 0 0 0 .5-1.24.4.4 0 0 0-.35-.47c-.58-.16-3.38-.62-4-.66-.13 0-.3 0-.38.14-.08.16 0 .29.11.4.36.54 2.35 2.57 2.81 2.95zm-10.07 68.68a1 1 0 0 0-1.26-.64l-1.58.51v-1.66a1 1 0 0 0-2 0v1.66l-1.58-.51a1 1 0 1 0-.62 1.9l1.58.51-1 1.34a1 1 0 0 0 .22 1.4 1 1 0 0 0 1.39-.22l1-1.34 1 1.34a1 1 0 1 0 1.61-1.18l-1-1.34 1.58-.51a1 1 0 0 0 .66-1.26zm11.34 0a1 1 0 0 0-1.26-.64l-1.58.51v-1.66a1 1 0 0 0-2 0v1.66l-1.58-.51a1 1 0 1 0-.62 1.9l1.58.51-1 1.34a1 1 0 0 0 .22 1.4 1 1 0 0 0 1.39-.22l1-1.34 1 1.34a1 1 0 0 0 .81.41 1 1 0 0 0 .81-1.59l-1-1.34 1.58-.51a1 1 0 0 0 .65-1.26zm-28.89 4.51a1 1 0 0 0 .59.19 1 1 0 0 0 .81-.41l1-1.34 1 1.34a1 1 0 0 0 .81.41 1 1 0 0 0 .58-.19 1 1 0 0 0 .22-1.4l-1-1.34 1.58-.51a1 1 0 0 0 .64-1.26 1 1 0 0 0-1.26-.64l-1.58.51v-1.66a1 1 0 0 0-2 0v1.66l-1.58-.51a1 1 0 0 0-1.26.64 1 1 0 0 0 .64 1.26l1.58.51-1 1.34a1 1 0 0 0 .23 1.4z"/></svg>