<?xml version="1.0" encoding="UTF-8"?>
<svg viewBox="0 0 316.7 191.31" xmlns="http://www.w3.org/2000/svg">
<path d="M125.21,50.69l6.89-14.83a.46.46,0,0,1,.38-.24h.22a.44.44,0,0,1,.37.24L140,50.69a.39.39,0,0,1-.37.57h-2.45c-.4,0-.57-.13-.77-.55L135.59,49h-6l-.79,1.76a.81.81,0,0,1-.8.53h-2.42A.38.38,0,0,1,125.21,50.69Zm9-4.72-1.67-3.63h0L130.91,46Z"/>
<path d="M93,36.26a.42.42,0,0,1,.42-.42h9.12a.42.42,0,0,1,.42.42v2.4a.42.42,0,0,1-.42.42H96.4v2.73h5a.44.44,0,0,1,.42.42v2.4a.42.42,0,0,1-.42.42h-5v3h6.1a.42.42,0,0,1,.42.42v2.4a.42.42,0,0,1-.42.42H93.38a.41.41,0,0,1-.42-.42Z"/>
<path d="M86,40.51A4.76,4.76,0,0,0,81,35.84H75.7a.42.42,0,0,0-.42.42V50.84a.42.42,0,0,0,.42.42H81A4.76,4.76,0,0,0,86,46.59a4.46,4.46,0,0,0-1.18-3A4.46,4.46,0,0,0,86,40.51Zm-3.4,0c0,1-.79,1.43-1.74,1.43H78.72V39.08h2.09C81.76,39.08,82.55,39.58,82.55,40.51ZM80.81,48H78.72V45.16h2.09c1,0,1.74.44,1.74,1.43S81.76,48,80.81,48Z"/>
<path d="M113.53,39.08h-3.15a.41.41,0,0,1-.42-.41v-2.4a.42.42,0,0,1,.42-.42h9.77a.42.42,0,0,1,.42.42v2.4a.41.41,0,0,1-.42.41H117V50.83a.44.44,0,0,1-.42.42h-2.64a.43.43,0,0,1-.41-.42Z"/>
</svg>
