<?xml version="1.0" encoding="utf-8"?>
<!-- Generator: Adobe Illustrator 22.0.1, SVG Export Plug-In . SVG Version: 6.00 Build 0)  -->
<svg version="1.1" id="Layer_1" xmlns="http://www.w3.org/2000/svg" xmlns:xlink="http://www.w3.org/1999/xlink" x="0px" y="0px"
	 viewBox="0 0 316.7 191.3" style="enable-background:new 0 0 316.7 191.3;" xml:space="preserve">
<g>
	<path d="M83.2,35.6c4.4,0,7.9,3.5,7.9,7.9c0,2.9-1.7,5.5-4.1,6.9l2.8,4.4c0.2,0.3,0,0.7-0.4,0.7h-3c-0.2,0-0.3-0.1-0.4-0.2
		l-2.3-3.9c-0.3,0-0.5,0-0.7,0c-4.4,0-7.9-3.5-7.9-7.9C75.3,39.2,78.8,35.6,83.2,35.6z M83.2,47.9c2.4,0,4.4-2,4.4-4.4
		c0-2.4-2-4.4-4.4-4.4c-2.4,0-4.4,2-4.4,4.4C78.8,46,80.8,47.9,83.2,47.9z"/>
	<path d="M100.2,36.3c0-0.2,0.2-0.4,0.4-0.4h2.7c0.2,0,0.4,0.2,0.4,0.4v8.9c0,1.5,1.1,2.8,2.7,2.8c1.6,0,2.8-1.2,2.8-2.8v-8.9
		c0-0.2,0.2-0.4,0.4-0.4h2.7c0.2,0,0.4,0.2,0.4,0.4v9.1c0,3.3-2.8,6.1-6.3,6.1c-3.5,0-6.2-2.8-6.2-6.1V36.3z"/>
	<path d="M129.7,35.6c4.4,0,7.9,3.5,7.9,7.9c0,4.4-3.5,7.9-7.9,7.9c-4.4,0-7.9-3.5-7.9-7.9C121.8,39.2,125.3,35.6,129.7,35.6z
		 M129.7,47.9c2.4,0,4.4-2,4.4-4.4c0-2.4-2-4.4-4.4-4.4c-2.4,0-4.4,2-4.4,4.4C125.3,46,127.3,47.9,129.7,47.9z"/>
	<path d="M148.7,39.1h-3.1c-0.2,0-0.4-0.2-0.4-0.4v-2.4c0-0.2,0.2-0.4,0.4-0.4h9.8c0.2,0,0.4,0.2,0.4,0.4v2.4c0,0.2-0.2,0.4-0.4,0.4
		h-3.1v11.8c0,0.2-0.2,0.4-0.4,0.4h-2.6c-0.2,0-0.4-0.2-0.4-0.4V39.1z"/>
	<path d="M161.8,50.7l6.9-14.8c0.1-0.1,0.2-0.2,0.4-0.2h0.2c0.2,0,0.3,0.1,0.4,0.2l6.9,14.8c0.1,0.3,0,0.6-0.4,0.6h-2.4
		c-0.4,0-0.6-0.1-0.8-0.6l-0.8-1.7h-6l-0.8,1.8c-0.1,0.3-0.4,0.5-0.8,0.5h-2.4C161.9,51.2,161.7,51,161.8,50.7z M170.9,46l-1.7-3.6
		h0l-1.7,3.6H170.9z"/>
</g>
</svg>
