<?xml version="1.0" encoding="UTF-8"?>
<svg viewBox="0 0 156.39 206.45" xmlns="http://www.w3.org/2000/svg">
<path d="m16 73.88a1 1 0 0 0-2 0v6a1 1 0 0 0 2 0z"/>
<path d="m16 87.88a1 1 0 0 0-2 0v2a1 1 0 0 0 2 0z"/>
<path d="m15 128.88a1 1 0 0 0-1 1v2.5a1 1 0 0 0 2 0v-2.5a1 1 0 0 0-1-1z"/>
<path d="M21.05,19.1A20.44,20.44,0,0,0,17,23.89a1,1,0,0,0,.33,1.37,1,1,0,0,0,1.37-.33,19,19,0,0,1,3.67-4.33,1,1,0,1,0-1.32-1.5Z"/>
<path d="m104.54 16.06a1 1 0 1 0 0-2h-6a1 1 0 0 0 0 2z"/>
<path d="m90.54 16.06a1 1 0 1 0 0-2h-6a1 1 0 0 0 0 2z"/>
<path d="M34.53,190.39a19.31,19.31,0,0,1-2.53-.17,1,1,0,1,0-.27,2,20.06,20.06,0,0,0,2.8.19h1.22a1,1,0,0,0,0-2Z"/>
<path d="M15,170.88h0a1,1,0,0,0-1,1,20.39,20.39,0,0,0,1,6.21,1,1,0,0,0,1,.69.81.81,0,0,0,.31-.05,1,1,0,0,0,.65-1.25,18.3,18.3,0,0,1-.87-5.6A1,1,0,0,0,15,170.88Z"/>
<path d="m16 59.88a1 1 0 0 0-2 0v6a1 1 0 0 0 2 0z"/>
<path d="M20.56,184a1,1,0,1,0-1.5,1.32,20.22,20.22,0,0,0,4.8,4,1,1,0,0,0,1.37-.33,1,1,0,0,0-.33-1.38A18.51,18.51,0,0,1,20.56,184Z"/>
<path d="m59.85 190.39a1 1 0 1 0 0 2h6a1 1 0 1 0 0-2z"/>
<path d="m16 45.88a1 1 0 0 0-2 0v6a1 1 0 0 0 2 0z"/>
<path d="M16,34.6A19.93,19.93,0,0,1,16.16,32a1,1,0,1,0-2-.28A20.88,20.88,0,0,0,14,34.6v3.28a1,1,0,0,0,2,0Z"/>
<path d="m79.85 190.39h-6a1 1 0 0 0 0 2h6a1 1 0 1 0 0-2z"/>
<path d="m141.4 119.58a1 1 0 0 0-1 1v6a1 1 0 1 0 2 0v-6a1 1 0 0 0-1-1z"/>
<path d="m101.85 190.39a1 1 0 0 0 0 2h6a1 1 0 1 0 0-2z"/>
<path d="m115.85 190.39a1 1 0 0 0 0 2h6a1 1 0 1 0 0-2z"/>
<path d="m62.54 14.06h-6a1 1 0 0 0 0 2h6a1 1 0 1 0 0-2z"/>
<path d="M126.79,190.79a1,1,0,0,0,.95.7,1,1,0,0,0,.3-.05,20.14,20.14,0,0,0,5.63-2.79,1,1,0,1,0-1.15-1.63,18.66,18.66,0,0,1-5.08,2.51A1,1,0,0,0,126.79,190.79Z"/>
<path d="m142.4 78.58a1 1 0 0 0-2 0v6a1 1 0 1 0 2 0z"/>
<path d="M138.64,22.75A1,1,0,0,0,137,23.9,18.58,18.58,0,0,1,139.53,29a1,1,0,0,0,.95.69.84.84,0,0,0,.31-.05,1,1,0,0,0,.65-1.25A20.39,20.39,0,0,0,138.64,22.75Z"/>
<path d="m142.4 64.58a1 1 0 0 0-2 0v6a1 1 0 1 0 2 0z"/>
<path d="m87.85 192.39h6a1 1 0 1 0 0-2h-6a1 1 0 0 0 0 2z"/>
<path d="m76.54 16.06a1 1 0 1 0 0-2h-6a1 1 0 0 0 0 2z"/>
<path d="M131.49,18.76a1.13,1.13,0,0,0,.52.14,1,1,0,0,0,.86-.48,1,1,0,0,0-.33-1.37,20.53,20.53,0,0,0-5.81-2.41,1,1,0,0,0-1.21.73,1,1,0,0,0,.74,1.21A18.06,18.06,0,0,1,131.49,18.76Z"/>
<path d="m118.54 16.06a1 1 0 1 0 0-2h-1a1 1 0 0 0 0 2z"/>
<path d="m48.54 14.06h-6a1 1 0 0 0 0 2h6a1 1 0 1 0 0-2z"/>
<path d="m142.4 36.58a1 1 0 0 0-2 0v6a1 1 0 1 0 2 0z"/>
<path d="M34.53,14.06a20.52,20.52,0,0,0-6.19.95,1,1,0,0,0,.3,2,1,1,0,0,0,.3,0,18.51,18.51,0,0,1,5.6-.86,1,1,0,1,0,0-2Z"/>
<path d="m142.4 106.58a1 1 0 0 0-2 0v6a1 1 0 1 0 2 0z"/>
<path d="m142.4 50.58a1 1 0 0 0-2 0v6a1 1 0 1 0 2 0z"/>
<path d="M138.53,183a1,1,0,0,0,.85-.48,20.46,20.46,0,0,0,2.43-5.79,1,1,0,0,0-1.95-.48,18.34,18.34,0,0,1-2.18,5.23,1,1,0,0,0,.33,1.37A1,1,0,0,0,138.53,183Z"/>
<path d="M4.77,88.89a2.5,2.5,0,0,0,5,0V33.81A23.3,23.3,0,0,1,33,10.54h71.81a2.5,2.5,0,1,0,0-5H33A28.3,28.3,0,0,0,4.77,33.81Z"/>
<path d="m7.27 96.43a2.5 2.5 0 0 0-2.5 2.5v17a2.5 2.5 0 0 0 5 0v-17a2.5 2.5 0 0 0-2.5-2.5z"/>
<path d="M36.25,195.91H33A23.3,23.3,0,0,1,9.77,172.63v-2.85H92.93a1,1,0,1,0,0-2H9.77v-28h8.09a1,1,0,0,0,0-2H9.77V126.52a2.5,2.5,0,0,0-5,0v46.11A28.31,28.31,0,0,0,33,200.91h3.21a2.5,2.5,0,0,0,0-5Z"/>
<path d="m151.62 172.63v-10.79a2.5 2.5 0 0 0-5 0v5.94h-16.12a1 1 0 0 0 0 2h16.12v2.85a23.3 23.3 0 0 1-23.27 23.28h-74a2.5 2.5 0 1 0 0 5h74a28.31 28.31 0 0 0 28.27-28.28z"/>
<rect x="154.39" y="161.63" width="2" height="2.01"/>
<rect x="93" width="2.01" height="2"/>
<rect x="111.05" width="2.01" height="2"/>
<path d="m136.13 202.75 0.68 1.88c0.65-0.24 1.3-0.5 1.92-0.78l-0.82-1.83c-0.58 0.26-1.18 0.51-1.78 0.73z"/>
<path d="m130.5 204.16 0.29 2c0.68-0.09 1.37-0.22 2-0.36l-0.42-2c-0.59 0.2-1.23 0.27-1.87 0.36z"/>
<path d="m154 181.49 2 0.35c0.12-0.68 0.21-1.37 0.29-2.05l-2-0.22c-0.13 0.64-0.22 1.29-0.29 1.92z"/>
<rect x="154.39" y="173.67" width="2" height="2.01"/>
<rect x="154.39" y="167.65" width="2" height="2.01"/>
<path d="m149.62 192.18 1.65 1.12c0.39-0.57 0.76-1.16 1.11-1.76l-1.73-1c-0.33 0.56-0.65 1.11-1.03 1.64z"/>
<path d="m145.89 196.62 1.39 1.44c0.49-0.48 1-1 1.44-1.49l-1.49-1.34c-0.43 0.48-0.88 0.94-1.34 1.39z"/>
<path d="m152.35 187.06 1.85 0.75c0.27-0.64 0.51-1.3 0.72-1.95l-1.9-0.62c-0.2 0.61-0.43 1.22-0.67 1.82z"/>
<path d="m141.32 200.2 1.07 1.69c0.58-0.37 1.16-0.76 1.71-1.16l-1.17-1.62c-0.52 0.38-1.06 0.75-1.61 1.09z"/>
<rect x="56.89" width="2.01" height="2"/>
<rect x="44.85" width="2.01" height="2"/>
<rect x="50.87" width="2.01" height="2"/>
<rect x="32.81" width="2.01" height="2"/>
<rect x="86.98" width="2.01" height="2"/>
<rect x="38.83" width="2.01" height="2"/>
<rect x="62.9" width="2.01" height="2"/>
<rect x="80.96" width="2.01" height="2"/>
<rect x="74.94" width="2.01" height="2"/>
<path d="M28.83,2l-.07-2c-.68,0-1.38.07-2.07.15l.21,2C27.54,2.09,28.19,2,28.83,2Z"/>
<rect x="68.92" width="2.01" height="2"/>
<path d="m156.38 29.2h-2v1.99h2v-1.33c0.01-0.22 0-0.44 0-0.66z"/>
<rect x="117.07" width="2.01" height="2"/>
<rect x="154.39" y="59.31" width="2" height="2.01"/>
<rect x="123.09" width="2.01" height="2"/>
<rect x="154.39" y="35.24" width="2" height="2.01"/>
<rect x="154.39" y="41.26" width="2" height="2.01"/>
<path d="M131.25.37c-.68-.11-1.37-.19-2.06-.25l-.17,2q1,.09,1.92.24Z"/>
<path d="M151.54,13.55c-.38-.58-.78-1.15-1.19-1.7l-1.6,1.21c.39.51.76,1,1.12,1.58Z"/>
<path d="M156,25.07c-.11-.68-.24-1.37-.4-2l-1.94.46c.14.62.27,1.26.37,1.9Z"/>
<path d="M147.62,8.73c-.49-.49-1-1-1.51-1.42l-1.32,1.51c.49.42,1,.87,1.42,1.32Z"/>
<path d="M142.79,4.82c-.57-.38-1.17-.74-1.77-1.08l-1,1.75c.57.32,1.13.65,1.66,1Z"/>
<path d="M137.26,2c-.65-.25-1.31-.48-2-.68l-.58,1.91c.61.19,1.23.4,1.83.63Z"/>
<rect x="154.39" y="89.41" width="2" height="2.01"/>
<rect x="154.39" y="119.5" width="2" height="2.01"/>
<rect x="154.39" y="107.46" width="2" height="2.01"/>
<rect x="154.39" y="125.52" width="2" height="2.01"/>
<rect x="154.39" y="113.48" width="2" height="2.01"/>
<rect x="154.39" y="137.56" width="2" height="2.01"/>
<rect x="64.34" y="204.45" width="2.01" height="2"/>
<rect x="154.39" y="143.58" width="2" height="2.01"/>
<rect x="154.39" y="83.39" width="2" height="2.01"/>
<rect x="154.39" y="71.35" width="2" height="2.01"/>
<rect x="154.39" y="65.33" width="2" height="2.01"/>
<rect x="154.39" y="95.43" width="2" height="2.01"/>
<rect x="154.39" y="101.44" width="2" height="2.01"/>
<rect x="154.39" y="131.54" width="2" height="2.01"/>
<rect y="172.15" width="2" height="2.01"/>
<rect y="166.13" width="2" height="2.01"/>
<path d="M23.09,2.83,22.61.89c-.67.16-1.34.36-2,.57l.62,1.9C21.84,3.16,22.47,3,23.09,2.83Z"/>
<rect y="160.11" width="2" height="2.01"/>
<path d="M2,178.12l-2,.1c0,.69.1,1.38.19,2.07l2-.25C2.13,179.41,2.08,178.76,2,178.12Z"/>
<path d="M3,183.84,1,184.36c.18.66.38,1.33.61,2l1.89-.65C3.31,185.08,3.12,184.46,3,183.84Z"/>
<rect y="136.04" width="2" height="2.01"/>
<rect y="130.02" width="2" height="2.01"/>
<rect y="111.96" width="2" height="2.01"/>
<rect y="154.09" width="2" height="2.01"/>
<rect y="105.94" width="2" height="2.01"/>
<path d="M3.26,190.16c.31.61.65,1.22,1,1.81l1.72-1c-.34-.55-.65-1.12-.94-1.69Z"/>
<rect y="142.06" width="2" height="2.01"/>
<rect x="58.32" y="204.45" width="2.01" height="2"/>
<rect x="82.39" y="204.45" width="2.01" height="2"/>
<rect x="76.37" y="204.45" width="2.01" height="2"/>
<rect y="87.89" width="2" height="2.01"/>
<rect x="88.41" y="204.45" width="2.01" height="2"/>
<rect x="70.36" y="204.45" width="2.01" height="2"/>
<rect x="40.26" y="204.45" width="2.01" height="2"/>
<rect x="94.43" y="204.45" width="2.01" height="2"/>
<path d="M11,199.76c.53.44,1.09.86,1.66,1.26l1.15-1.64c-.53-.37-1.05-.76-1.55-1.17Z"/>
<path d="M16.24,203.16c.61.32,1.24.62,1.87.89l.79-1.84c-.59-.25-1.18-.53-1.75-.83Z"/>
<path d="M6.64,195.37c.43.53.89,1.06,1.36,1.56l1.47-1.36c-.44-.47-.87-1-1.27-1.46Z"/>
<path d="m28.28 204.4-0.11 2h2.06v-2h-0.37c-0.53 0.05-1.06 0.03-1.58 0z"/>
<rect x="52.3" y="204.45" width="2.01" height="2"/>
<path d="M22,205.41c.66.18,1.34.34,2,.47l.38-2c-.63-.12-1.26-.27-1.88-.44Z"/>
<rect y="45.76" width="2" height="2.01"/>
<rect y="33.72" width="2" height="2.01"/>
<rect x="118.5" y="204.45" width="2.01" height="2"/>
<rect y="39.74" width="2" height="2.01"/>
<rect y="57.8" width="2" height="2.01"/>
<rect x="124.52" y="204.45" width="2.13" height="2"/>
<rect y="51.78" width="2" height="2.01"/>
<path d="M2.08,27.78l-2-.15C0,28.31,0,29,0,29.7H2C2,29.07,2,28.42,2.08,27.78Z"/>
<path d="M12.73,7.88,11.5,6.31c-.54.42-1.07.87-1.59,1.33l1.34,1.49C11.73,8.7,12.23,8.28,12.73,7.88Z"/>
<rect x="100.45" y="204.45" width="2.01" height="2"/>
<path d="M17.65,4.81,16.77,3c-.62.31-1.24.64-1.83,1l1,1.73C16.49,5.4,17.07,5.09,17.65,4.81Z"/>
<rect x="112.49" y="204.45" width="2.01" height="2"/>
<path d="M5.29,16.7l-1.76-.94c-.32.6-.63,1.23-.92,1.86l1.83.82C4.7,17.85,5,17.27,5.29,16.7Z"/>
<path d="M8.56,11.91,7,10.62c-.45.52-.88,1.07-1.29,1.63l1.62,1.18C7.74,12.91,8.14,12.4,8.56,11.91Z"/>
<rect y="69.83" width="2" height="2.01"/>
<rect y="75.85" width="2" height="2.01"/>
<rect y="81.87" width="2" height="2.01"/>
<rect x="106.47" y="204.45" width="2.01" height="2"/>
<rect y="63.81" width="2" height="2.01"/>
<path d="M144.22,138.78a1,1,0,0,1-1,1H25.85a1,1,0,1,1,0-2H140.4v-3.2a1,1,0,0,1,2,0v3.2h.82a1,1,0,0,1,1,1Z"/>
<path d="M146.62,147.56a2.5,2.5,0,0,0,5,0V33.81A28.3,28.3,0,0,0,123.35,5.54h-4.5a2.5,2.5,0,0,0,0,5h4.5a23.3,23.3,0,0,1,23.27,23.27Z"/>
<path d="M35.21,30.1a4.23,4.23,0,0,1,1.85.68.32.32,0,0,0,.48-.14l.35-.52a.33.33,0,0,0-.09-.46,4.55,4.55,0,0,0-2.53-.81,2.68,2.68,0,0,0-3,2.53c0,1.59,1.09,2.32,2.49,2.91s2.07,1.08,2.07,1.9a1.38,1.38,0,0,1-1.55,1.28,4,4,0,0,1-2.19-.95.32.32,0,0,0-.47.11c-.12.18-.23.39-.35.56s0,.33.08.44a4.4,4.4,0,0,0,2.95,1.09,2.8,2.8,0,0,0,3.05-2.59c0-1.68-1.35-2.43-2.94-3.07-1.14-.47-1.74-1-1.74-1.73C33.67,30.82,34.06,30.1,35.21,30.1Z"/>
<path d="M45.93,38.58h.9a.27.27,0,0,0,.26-.26v-8h2.24a.26.26,0,0,0,.26-.26v-.76a.26.26,0,0,0-.26-.26h-5.9a.26.26,0,0,0-.26.26V30a.26.26,0,0,0,.26.26h2.24v8.05A.27.27,0,0,0,45.93,38.58Z"/>
<path d="M53.6,38.58h.86a.35.35,0,0,0,.32-.21c.27-.63.56-1.24.83-1.87h4.48l.85,1.87a.32.32,0,0,0,.32.21h.86a.24.24,0,0,0,.23-.36L58.17,29a.32.32,0,0,0-.23-.15H57.8a.34.34,0,0,0-.23.15l-4.21,9.22A.25.25,0,0,0,53.6,38.58Zm4.22-7h.07l1.68,3.76H56.15Z"/>
<path d="M67.83,29.25v9.07a.26.26,0,0,0,.26.26H69a.27.27,0,0,0,.26-.26v-3.5h2.07l1.82,3.63a.25.25,0,0,0,.22.13h1.07a.26.26,0,0,0,.23-.4L72.78,34.7a3,3,0,0,0,2-2.78,3,3,0,0,0-3-2.93H68.09A.26.26,0,0,0,67.83,29.25Zm1.44,1.07h2.44A1.68,1.68,0,0,1,73.38,32a1.71,1.71,0,0,1-1.67,1.7H69.27Z"/>
<path d="M79.87,29.25V30a.26.26,0,0,0,.26.26h2.24v8.05a.27.27,0,0,0,.26.26h.9a.27.27,0,0,0,.26-.26v-8H86a.25.25,0,0,0,.26-.26v-.76A.25.25,0,0,0,86,29H80.13A.26.26,0,0,0,79.87,29.25Z"/>
<rect x="91.87" y="28.99" width="1.43" height="9.59" rx=".26"/>
<path d="M106.63,29.25v6.48h0l-5.94-6.88h-.35a.26.26,0,0,0-.26.25v9.22a.28.28,0,0,0,.26.26h.87a.26.26,0,0,0,.26-.26V31.64h0l6,7.08h.35a.27.27,0,0,0,.27-.25V29.25a.27.27,0,0,0-.27-.26h-.87A.26.26,0,0,0,106.63,29.25Z"/>
<path d="M119,38.72a6.8,6.8,0,0,0,3.39-.91.31.31,0,0,0,.11-.22c0-1.09,0-2.22,0-3.31a.26.26,0,0,0-.25-.26h-2.49a.25.25,0,0,0-.26.26v.79a.25.25,0,0,0,.26.25h1.34v1.53a4.73,4.73,0,0,1-2.05.47,3.56,3.56,0,0,1,0-7.11,3.68,3.68,0,0,1,2.33.93c.13.12.24.13.35,0l.62-.64a.27.27,0,0,0,0-.39,4.95,4.95,0,0,0-8.26,3.68A4.91,4.91,0,0,0,119,38.72Z"/>
<path d="M54.92,52.47a4,4,0,0,1-2.19-.95.32.32,0,0,0-.47.11c-.12.18-.23.39-.35.56s0,.33.08.44a4.39,4.39,0,0,0,2.94,1.09A2.8,2.8,0,0,0,58,51.13c0-1.68-1.36-2.43-3-3.07-1.13-.47-1.74-1-1.74-1.73,0-.51.4-1.23,1.55-1.23a4.23,4.23,0,0,1,1.85.68.33.33,0,0,0,.48-.14l.34-.52a.32.32,0,0,0-.08-.46,4.59,4.59,0,0,0-2.53-.81,2.68,2.68,0,0,0-3,2.53c0,1.59,1.09,2.32,2.49,2.91s2.07,1.08,2.07,1.9A1.38,1.38,0,0,1,54.92,52.47Z"/>
<path d="m63.29 48.8a4.93 4.93 0 1 0 4.92-4.95 4.89 4.89 0 0 0-4.92 4.95zm4.92-3.58a3.59 3.59 0 0 1 3.56 3.58 3.56 3.56 0 0 1-7.11 0 3.59 3.59 0 0 1 3.55-3.58z"/>
<path d="m83.43 53.72a4.94 4.94 0 1 0-4.92-4.92 4.9 4.9 0 0 0 4.92 4.92zm0-8.5a3.59 3.59 0 0 1 3.57 3.58 3.56 3.56 0 0 1-7.11 0 3.59 3.59 0 0 1 3.54-3.58z"/>
<path d="M94.69,43.85a.26.26,0,0,0-.26.25v9.22a.27.27,0,0,0,.26.26h.86a.26.26,0,0,0,.26-.26V46.64h0l6,7.08h.36a.26.26,0,0,0,.26-.25V44.25a.27.27,0,0,0-.26-.26h-.88a.26.26,0,0,0-.26.26v6.48h0l-6-6.88Z"/>
<path d="m125.52 168.78a1 1 0 0 0-1-1h-23.67a1 1 0 0 0 0 2h23.67a1 1 0 0 0 1-1z"/>
<path d="M21,149a.3.3,0,0,0-.28.29v10.27a.3.3,0,0,0,.28.29h3.78a5.43,5.43,0,1,0,0-10.85Zm6.65,5.41a3,3,0,0,1-3,3.15H23.09v-6.28h1.49A3,3,0,0,1,27.6,154.4Z"/>
<path d="M38.93,148.83h-.15a.32.32,0,0,0-.27.18l-4.85,10.43a.27.27,0,0,0,.26.4h1.71a.58.58,0,0,0,.56-.37l.56-1.24H41l.56,1.22c.14.3.26.39.54.39h1.72a.27.27,0,0,0,.27-.4L39.19,149A.3.3,0,0,0,38.93,148.83Zm-1.25,7.29,1.16-2.56h0L40,156.12Z"/>
<path d="M49.89,159.84h1.84a.31.31,0,0,0,.3-.29v-5l3.47-5.16a.29.29,0,0,0-.25-.45h-2a.3.3,0,0,0-.25.14l-2.16,3.18-2.15-3.18a.31.31,0,0,0-.25-.14h-2a.29.29,0,0,0-.25.45l3.42,5.18v4.93A.3.3,0,0,0,49.89,159.84Z"/>
<path d="M62.68,157.84a4.6,4.6,0,0,1-2.2-.85.4.4,0,0,0-.53.09l-.73,1.29c-.12.22-.08.28.08.43a4.88,4.88,0,0,0,3.49,1.2,3.41,3.41,0,0,0,3.65-3.21c0-2.11-1.92-3.06-3.13-3.54s-1.69-.93-1.69-1.5a.9.9,0,0,1,1-.79,4.88,4.88,0,0,1,2.22.93c.14.11.41,0,.52-.2l.79-1.2A.37.37,0,0,0,66,150a5.74,5.74,0,0,0-3.32-1.17c-2.38,0-3.58,1.56-3.58,3.09,0,1.86,1.68,2.9,3,3.43,1.05.41,1.6.91,1.6,1.56A1,1,0,0,1,62.68,157.84Z"/>
<path d="M79.65,159.84h1.86a.3.3,0,0,0,.29-.29v-8.28H84a.3.3,0,0,0,.3-.3v-1.69A.3.3,0,0,0,84,149H77.14a.3.3,0,0,0-.3.29V151a.3.3,0,0,0,.3.3h2.21v8.28A.31.31,0,0,0,79.65,159.84Z"/>
<path d="m99.26 154.43a5.58 5.58 0 1 0-5.58 5.57 5.57 5.57 0 0 0 5.58-5.57zm-5.58 3.09a3.11 3.11 0 1 1 3.1-3.09 3.11 3.11 0 0 1-3.1 3.09z"/>
<path d="M115.69,151.3a2.86,2.86,0,0,1,2,.74.32.32,0,0,0,.42,0l1.22-1.3a.28.28,0,0,0,0-.42,6,6,0,0,0-3.78-1.46,5.57,5.57,0,1,0,0,11.13,7.78,7.78,0,0,0,3.84-1,.38.38,0,0,0,.13-.24l0-4.17a.29.29,0,0,0-.28-.3h-3.11a.28.28,0,0,0-.3.3v1.53a.28.28,0,0,0,.3.28h1v.9a3.77,3.77,0,0,1-1.38.25,3.11,3.11,0,0,1,0-6.22Z"/>
<path d="m135.09 154.43a5.57 5.57 0 1 0-5.58 5.57 5.57 5.57 0 0 0 5.58-5.57zm-8.66 0a3.09 3.09 0 1 1 3.08 3.09 3.12 3.12 0 0 1-3.08-3.09z"/>
<path d="M82,179.58a1,1,0,0,0-1.26-.64l-1.58.51v-1.66a1,1,0,0,0-2,0v1.66l-1.58-.51a1,1,0,0,0-1.26.64,1,1,0,0,0,.65,1.26l1.57.51-1,1.35a1,1,0,0,0,1.62,1.17l1-1.34,1,1.34a1,1,0,0,0,.81.41,1,1,0,0,0,.81-1.58l-1-1.35,1.58-.51A1,1,0,0,0,82,179.58Z"/>
<path d="M87.16,184.09a1,1,0,0,0,.59.19,1,1,0,0,0,.81-.41l1-1.34,1,1.34a1,1,0,0,0,.81.41,1,1,0,0,0,.81-1.58l-1-1.35,1.58-.51a1,1,0,1,0-.62-1.9l-1.58.51v-1.66a1,1,0,0,0-2,0v1.66L87,178.94a1,1,0,1,0-.61,1.9l1.57.51-1,1.35A1,1,0,0,0,87.16,184.09Z"/>
<path d="M70.69,179.58a1,1,0,0,0-1.26-.64l-1.58.51v-1.66a1,1,0,0,0-2,0v1.66l-1.57-.51a1,1,0,0,0-1.26.64,1,1,0,0,0,.64,1.26l1.58.51-1,1.35a1,1,0,0,0,1.62,1.17l1-1.34,1,1.34a1,1,0,0,0,.81.41,1,1,0,0,0,.81-1.58l-1-1.35,1.58-.51A1,1,0,0,0,70.69,179.58Z"/>
</svg>
