<svg viewBox="0 0 156.39 206.45" xmlns="http://www.w3.org/2000/svg"><path d="M16 73.88a1 1 0 0 0-2 0v6a1 1 0 0 0 2 0zM16 87.88a1 1 0 0 0-2 0v2a1 1 0 0 0 2 0zM15 128.88a1 1 0 0 0-1 1v2.5a1 1 0 0 0 2 0v-2.5a1 1 0 0 0-1-1zM21.05 19.1A20.44 20.44 0 0 0 17 23.89a1 1 0 0 0 .33 1.37 1 1 0 0 0 1.37-.33 19 19 0 0 1 3.67-4.33 1 1 0 1 0-1.32-1.5zM104.54 16.06a1 1 0 1 0 0-2h-6a1 1 0 0 0 0 2zM90.54 16.06a1 1 0 1 0 0-2h-6a1 1 0 0 0 0 2zM34.53 190.39a19.31 19.31 0 0 1-2.53-.17 1 1 0 1 0-.27 2 20.06 20.06 0 0 0 2.8.19h1.22a1 1 0 0 0 0-2zM15 170.88a1 1 0 0 0-1 1 20.39 20.39 0 0 0 1 6.21 1 1 0 0 0 1 .69.81.81 0 0 0 .31-.05 1 1 0 0 0 .65-1.25 18.3 18.3 0 0 1-.87-5.6 1 1 0 0 0-1.09-1zM16 59.88a1 1 0 0 0-2 0v6a1 1 0 0 0 2 0zM20.56 184a1 1 0 1 0-1.5 1.32 20.22 20.22 0 0 0 4.8 4 1 1 0 0 0 1.37-.33 1 1 0 0 0-.33-1.38 18.51 18.51 0 0 1-4.34-3.61zM59.85 190.39a1 1 0 1 0 0 2h6a1 1 0 1 0 0-2zM16 45.88a1 1 0 0 0-2 0v6a1 1 0 0 0 2 0zM16 34.6a19.93 19.93 0 0 1 .16-2.6 1 1 0 1 0-2-.28A20.88 20.88 0 0 0 14 34.6v3.28a1 1 0 0 0 2 0zM79.85 190.39h-6a1 1 0 0 0 0 2h6a1 1 0 1 0 0-2zM141.4 119.58a1 1 0 0 0-1 1v6a1 1 0 1 0 2 0v-6a1 1 0 0 0-1-1zM101.85 190.39a1 1 0 0 0 0 2h6a1 1 0 1 0 0-2zM115.85 190.39a1 1 0 0 0 0 2h6a1 1 0 1 0 0-2zM62.54 14.06h-6a1 1 0 0 0 0 2h6a1 1 0 1 0 0-2zM126.79 190.79a1 1 0 0 0 .95.7 1 1 0 0 0 .3-.05 20.14 20.14 0 0 0 5.63-2.79 1 1 0 1 0-1.15-1.63 18.66 18.66 0 0 1-5.08 2.51 1 1 0 0 0-.65 1.26zM142.4 78.58a1 1 0 0 0-2 0v6a1 1 0 1 0 2 0zM138.64 22.75A1 1 0 0 0 137 23.9a18.58 18.58 0 0 1 2.53 5.1 1 1 0 0 0 .95.69.84.84 0 0 0 .31-.05 1 1 0 0 0 .65-1.25 20.39 20.39 0 0 0-2.8-5.64zM142.4 64.58a1 1 0 0 0-2 0v6a1 1 0 1 0 2 0zM87.85 192.39h6a1 1 0 1 0 0-2h-6a1 1 0 0 0 0 2zM76.54 16.06a1 1 0 1 0 0-2h-6a1 1 0 0 0 0 2zM131.49 18.76a1.13 1.13 0 0 0 .52.14 1 1 0 0 0 .86-.48 1 1 0 0 0-.33-1.37 20.53 20.53 0 0 0-5.81-2.41 1 1 0 0 0-1.21.73 1 1 0 0 0 .74 1.21 18.06 18.06 0 0 1 5.23 2.18zM118.54 16.06a1 1 0 1 0 0-2h-1a1 1 0 0 0 0 2zM48.54 14.06h-6a1 1 0 0 0 0 2h6a1 1 0 1 0 0-2zM142.4 36.58a1 1 0 0 0-2 0v6a1 1 0 1 0 2 0zM34.53 14.06a20.52 20.52 0 0 0-6.19.95 1 1 0 0 0 .3 2 1 1 0 0 0 .3 0 18.51 18.51 0 0 1 5.6-.86 1 1 0 1 0 0-2zM142.4 106.58a1 1 0 0 0-2 0v6a1 1 0 1 0 2 0zM142.4 50.58a1 1 0 0 0-2 0v6a1 1 0 1 0 2 0zM138.53 183a1 1 0 0 0 .85-.48 20.46 20.46 0 0 0 2.43-5.79 1 1 0 0 0-1.95-.48 18.34 18.34 0 0 1-2.18 5.23 1 1 0 0 0 .33 1.37 1 1 0 0 0 .52.15z"/><path d="M4.77 88.89a2.5 2.5 0 0 0 5 0V33.81A23.3 23.3 0 0 1 33 10.54h71.81a2.5 2.5 0 1 0 0-5H33A28.3 28.3 0 0 0 4.77 33.81zM7.27 96.43a2.5 2.5 0 0 0-2.5 2.5v17a2.5 2.5 0 0 0 5 0v-17a2.5 2.5 0 0 0-2.5-2.5zM36.25 195.91H33a23.3 23.3 0 0 1-23.23-23.28v-2.85h83.16a1 1 0 1 0 0-2H9.77v-28h8.09a1 1 0 0 0 0-2H9.77v-11.26a2.5 2.5 0 0 0-5 0v46.11A28.31 28.31 0 0 0 33 200.91h3.21a2.5 2.5 0 0 0 0-5zM151.62 172.63v-10.79a2.5 2.5 0 0 0-5 0v5.94H130.5a1 1 0 0 0 0 2h16.12v2.85a23.3 23.3 0 0 1-23.27 23.28h-74a2.5 2.5 0 1 0 0 5h74a28.31 28.31 0 0 0 28.27-28.28zM154.39 161.63h2v2.01h-2zM93 0h2.01v2H93zM111.05 0h2.01v2h-2.01zM136.13 202.75l.68 1.88c.65-.24 1.3-.5 1.92-.78l-.82-1.83c-.58.26-1.18.51-1.78.73zM130.5 204.16l.29 2c.68-.09 1.37-.22 2-.36l-.42-2c-.59.2-1.23.27-1.87.36zM154 181.49l2 .35c.12-.68.21-1.37.29-2.05l-2-.22c-.13.64-.22 1.29-.29 1.92zM154.39 173.67h2v2.01h-2zM154.39 167.65h2v2.01h-2zM149.62 192.18l1.65 1.12c.39-.57.76-1.16 1.11-1.76l-1.73-1c-.33.56-.65 1.11-1.03 1.64zM145.89 196.62l1.39 1.44c.49-.48 1-1 1.44-1.49l-1.49-1.34c-.43.48-.88.94-1.34 1.39zM152.35 187.06l1.85.75c.27-.64.51-1.3.72-1.95l-1.9-.62c-.2.61-.43 1.22-.67 1.82zM141.32 200.2l1.07 1.69c.58-.37 1.16-.76 1.71-1.16l-1.17-1.62c-.52.38-1.06.75-1.61 1.09zM56.89 0h2.01v2h-2.01zM44.85 0h2.01v2h-2.01zM50.87 0h2.01v2h-2.01zM32.81 0h2.01v2h-2.01zM86.98 0h2.01v2h-2.01zM38.83 0h2.01v2h-2.01zM62.9 0h2.01v2H62.9zM80.96 0h2.01v2h-2.01zM74.94 0h2.01v2h-2.01zM28.83 2l-.07-2c-.68 0-1.38.07-2.07.15l.21 2c.64-.06 1.29-.15 1.93-.15zM68.92 0h2.01v2h-2.01zM156.38 29.2h-2v1.99h2v-1.33c.01-.22 0-.44 0-.66zM117.07 0h2.01v2h-2.01zM154.39 59.31h2v2.01h-2zM123.09 0h2.01v2h-2.01zM154.39 35.24h2v2.01h-2zM154.39 41.26h2v2.01h-2zM131.25.37c-.68-.11-1.37-.19-2.06-.25l-.17 2q1 .09 1.92.24zM151.54 13.55c-.38-.58-.78-1.15-1.19-1.7l-1.6 1.21c.39.51.76 1 1.12 1.58zM156 25.07c-.11-.68-.24-1.37-.4-2l-1.94.46c.14.62.27 1.26.37 1.9zM147.62 8.73c-.49-.49-1-1-1.51-1.42l-1.32 1.51c.49.42 1 .87 1.42 1.32zM142.79 4.82c-.57-.38-1.17-.74-1.77-1.08l-1 1.75c.57.32 1.13.65 1.66 1zM137.26 2c-.65-.25-1.31-.48-2-.68l-.58 1.91c.61.19 1.23.4 1.83.63zM154.39 89.41h2v2.01h-2zM154.39 119.5h2v2.01h-2zM154.39 107.46h2v2.01h-2zM154.39 125.52h2v2.01h-2zM154.39 113.48h2v2.01h-2zM154.39 137.56h2v2.01h-2zM64.34 204.45h2.01v2h-2.01zM154.39 143.58h2v2.01h-2zM154.39 83.39h2v2.01h-2zM154.39 71.35h2v2.01h-2zM154.39 65.33h2v2.01h-2zM154.39 95.43h2v2.01h-2zM154.39 101.44h2v2.01h-2zM154.39 131.54h2v2.01h-2zM0 172.15h2v2.01H0zM0 166.13h2v2.01H0zM23.09 2.83L22.61.89c-.67.16-1.34.36-2 .57l.62 1.9c.61-.2 1.24-.36 1.86-.53zM0 160.11h2v2.01H0zM2 178.12l-2 .1c0 .69.1 1.38.19 2.07l2-.25c-.06-.63-.11-1.28-.19-1.92zM3 183.84l-2 .52c.18.66.38 1.33.61 2l1.89-.65c-.19-.63-.38-1.25-.5-1.87zM0 136.04h2v2.01H0zM0 130.02h2v2.01H0zM0 111.96h2v2.01H0zM0 154.09h2v2.01H0zM0 105.94h2v2.01H0zM3.26 190.16c.31.61.65 1.22 1 1.81l1.72-1c-.34-.55-.65-1.12-.94-1.69zM0 142.06h2v2.01H0zM58.32 204.45h2.01v2h-2.01zM82.39 204.45h2.01v2h-2.01zM76.37 204.45h2.01v2h-2.01zM0 87.89h2v2.01H0zM88.41 204.45h2.01v2h-2.01zM70.36 204.45h2.01v2h-2.01zM40.26 204.45h2.01v2h-2.01zM94.43 204.45h2.01v2h-2.01zM11 199.76c.53.44 1.09.86 1.66 1.26l1.15-1.64c-.53-.37-1.05-.76-1.55-1.17zM16.24 203.16c.61.32 1.24.62 1.87.89l.79-1.84c-.59-.25-1.18-.53-1.75-.83zM6.64 195.37c.43.53.89 1.06 1.36 1.56l1.47-1.36c-.44-.47-.87-1-1.27-1.46zM28.28 204.4l-.11 2h2.06v-2h-.37c-.53.05-1.06.03-1.58 0zM52.3 204.45h2.01v2H52.3zM22 205.41c.66.18 1.34.34 2 .47l.38-2c-.63-.12-1.26-.27-1.88-.44zM0 45.76h2v2.01H0zM0 33.72h2v2.01H0zM118.5 204.45h2.01v2h-2.01zM0 39.74h2v2.01H0zM0 57.8h2v2.01H0zM124.52 204.45h2.13v2h-2.13zM0 51.78h2v2.01H0zM2.08 27.78l-2-.15C0 28.31 0 29 0 29.7h2c0-.63 0-1.28.08-1.92zM12.73 7.88L11.5 6.31c-.54.42-1.07.87-1.59 1.33l1.34 1.49c.48-.43.98-.85 1.48-1.25zM100.45 204.45h2.01v2h-2.01zM17.65 4.81L16.77 3c-.62.31-1.24.64-1.83 1l1 1.73c.55-.33 1.13-.64 1.71-.92zM112.49 204.45h2.01v2h-2.01zM5.29 16.7l-1.76-.94c-.32.6-.63 1.23-.92 1.86l1.83.82c.26-.59.56-1.17.85-1.74zM8.56 11.91L7 10.62c-.45.52-.88 1.07-1.29 1.63l1.62 1.18c.41-.52.81-1.03 1.23-1.52zM0 69.83h2v2.01H0zM0 75.85h2v2.01H0zM0 81.87h2v2.01H0zM106.47 204.45h2.01v2h-2.01zM0 63.81h2v2.01H0z"/><path d="M144.22 138.78a1 1 0 0 1-1 1H25.85a1 1 0 1 1 0-2H140.4v-3.2a1 1 0 0 1 2 0v3.2h.82a1 1 0 0 1 1 1zM146.62 147.56a2.5 2.5 0 0 0 5 0V33.81a28.3 28.3 0 0 0-28.27-28.27h-4.5a2.5 2.5 0 0 0 0 5h4.5a23.3 23.3 0 0 1 23.27 23.27zM35.21 30.1a4.23 4.23 0 0 1 1.85.68.32.32 0 0 0 .48-.14l.35-.52a.33.33 0 0 0-.09-.46 4.55 4.55 0 0 0-2.53-.81 2.68 2.68 0 0 0-3 2.53c0 1.59 1.09 2.32 2.49 2.91s2.07 1.08 2.07 1.9a1.38 1.38 0 0 1-1.55 1.28 4 4 0 0 1-2.19-.95.32.32 0 0 0-.47.11c-.12.18-.23.39-.35.56s0 .33.08.44a4.4 4.4 0 0 0 2.95 1.09 2.8 2.8 0 0 0 3.05-2.59c0-1.68-1.35-2.43-2.94-3.07-1.14-.47-1.74-1-1.74-1.73 0-.51.39-1.23 1.54-1.23zM45.93 38.58h.9a.27.27 0 0 0 .26-.26v-8h2.24a.26.26 0 0 0 .26-.26v-.76a.26.26 0 0 0-.26-.26h-5.9a.26.26 0 0 0-.26.26v.7a.26.26 0 0 0 .26.26h2.24v8.05a.27.27 0 0 0 .26.27zM53.6 38.58h.86a.35.35 0 0 0 .32-.21c.27-.63.56-1.24.83-1.87h4.48l.85 1.87a.32.32 0 0 0 .32.21h.86a.24.24 0 0 0 .23-.36L58.17 29a.32.32 0 0 0-.23-.15h-.14a.34.34 0 0 0-.23.15l-4.21 9.22a.25.25 0 0 0 .24.36zm4.22-7h.07l1.68 3.76h-3.42zM67.83 29.25v9.07a.26.26 0 0 0 .26.26H69a.27.27 0 0 0 .26-.26v-3.5h2.07l1.82 3.63a.25.25 0 0 0 .22.13h1.07a.26.26 0 0 0 .23-.4l-1.89-3.48a3 3 0 0 0 2-2.78 3 3 0 0 0-3-2.93h-3.69a.26.26 0 0 0-.26.26zm1.44 1.07h2.44A1.68 1.68 0 0 1 73.38 32a1.71 1.71 0 0 1-1.67 1.7h-2.44zM79.87 29.25V30a.26.26 0 0 0 .26.26h2.24v8.05a.27.27 0 0 0 .26.26h.9a.27.27 0 0 0 .26-.26v-8H86a.25.25 0 0 0 .26-.26v-.76A.25.25 0 0 0 86 29h-5.87a.26.26 0 0 0-.26.25z"/><rect x="91.87" y="28.99" width="1.43" height="9.59" rx=".26"/><path d="M106.63 29.25v6.48l-5.94-6.88h-.35a.26.26 0 0 0-.26.25v9.22a.28.28 0 0 0 .26.26h.87a.26.26 0 0 0 .26-.26v-6.68l6 7.08h.35a.27.27 0 0 0 .27-.25v-9.22a.27.27 0 0 0-.27-.26h-.87a.26.26 0 0 0-.32.26zM119 38.72a6.8 6.8 0 0 0 3.39-.91.31.31 0 0 0 .11-.22v-3.31a.26.26 0 0 0-.25-.26h-2.49a.25.25 0 0 0-.26.26v.79a.25.25 0 0 0 .26.25h1.34v1.53a4.73 4.73 0 0 1-2.05.47 3.56 3.56 0 0 1 0-7.11 3.68 3.68 0 0 1 2.33.93c.13.12.24.13.35 0l.62-.64a.27.27 0 0 0 0-.39 4.95 4.95 0 0 0-8.26 3.68 4.91 4.91 0 0 0 4.91 4.93zM54.92 52.47a4 4 0 0 1-2.19-.95.32.32 0 0 0-.47.11c-.12.18-.23.39-.35.56s0 .33.08.44a4.39 4.39 0 0 0 2.94 1.09A2.8 2.8 0 0 0 58 51.13c0-1.68-1.36-2.43-3-3.07-1.13-.47-1.74-1-1.74-1.73 0-.51.4-1.23 1.55-1.23a4.23 4.23 0 0 1 1.85.68.33.33 0 0 0 .48-.14l.34-.52a.32.32 0 0 0-.08-.46 4.59 4.59 0 0 0-2.53-.81 2.68 2.68 0 0 0-3 2.53c0 1.59 1.09 2.32 2.49 2.91s2.07 1.08 2.07 1.9a1.38 1.38 0 0 1-1.51 1.28zM63.29 48.8a4.93 4.93 0 1 0 4.92-4.95 4.89 4.89 0 0 0-4.92 4.95zm4.92-3.58a3.59 3.59 0 0 1 3.56 3.58 3.56 3.56 0 0 1-7.11 0 3.59 3.59 0 0 1 3.55-3.58zM83.43 53.72a4.94 4.94 0 1 0-4.92-4.92 4.9 4.9 0 0 0 4.92 4.92zm0-8.5A3.59 3.59 0 0 1 87 48.8a3.56 3.56 0 0 1-7.11 0 3.59 3.59 0 0 1 3.54-3.58zM94.69 43.85a.26.26 0 0 0-.26.25v9.22a.27.27 0 0 0 .26.26h.86a.26.26 0 0 0 .26-.26v-6.68l6 7.08h.36a.26.26 0 0 0 .26-.25v-9.22a.27.27 0 0 0-.26-.26h-.88a.26.26 0 0 0-.26.26v6.48l-6-6.88zM125.52 168.78a1 1 0 0 0-1-1h-23.67a1 1 0 0 0 0 2h23.67a1 1 0 0 0 1-1zM21 149a.3.3 0 0 0-.28.29v10.27a.3.3 0 0 0 .28.29h3.78a5.43 5.43 0 1 0 0-10.85zm6.65 5.41a3 3 0 0 1-3 3.15h-1.56v-6.28h1.49a3 3 0 0 1 3.02 3.12zM38.93 148.83h-.15a.32.32 0 0 0-.27.18l-4.85 10.43a.27.27 0 0 0 .26.4h1.71a.58.58 0 0 0 .56-.37l.56-1.24H41l.56 1.22c.14.3.26.39.54.39h1.72a.27.27 0 0 0 .27-.4L39.19 149a.3.3 0 0 0-.26-.17zm-1.25 7.29l1.16-2.56 1.16 2.56zM49.89 159.84h1.84a.31.31 0 0 0 .3-.29v-5l3.47-5.16a.29.29 0 0 0-.25-.45h-2a.3.3 0 0 0-.25.14l-2.16 3.18-2.15-3.18a.31.31 0 0 0-.25-.14h-2a.29.29 0 0 0-.25.45l3.42 5.18v4.93a.3.3 0 0 0 .28.34zM62.68 157.84a4.6 4.6 0 0 1-2.2-.85.4.4 0 0 0-.53.09l-.73 1.29c-.12.22-.08.28.08.43a4.88 4.88 0 0 0 3.49 1.2 3.41 3.41 0 0 0 3.65-3.21c0-2.11-1.92-3.06-3.13-3.54s-1.69-.93-1.69-1.5a.9.9 0 0 1 1-.79 4.88 4.88 0 0 1 2.22.93c.14.11.41 0 .52-.2l.79-1.2A.37.37 0 0 0 66 150a5.74 5.74 0 0 0-3.32-1.17c-2.38 0-3.58 1.56-3.58 3.09 0 1.86 1.68 2.9 3 3.43 1.05.41 1.6.91 1.6 1.56a1 1 0 0 1-1.02.93zM79.65 159.84h1.86a.3.3 0 0 0 .29-.29v-8.28H84a.3.3 0 0 0 .3-.3v-1.69a.3.3 0 0 0-.3-.28h-6.86a.3.3 0 0 0-.3.29V151a.3.3 0 0 0 .3.3h2.21v8.28a.31.31 0 0 0 .3.26zM99.26 154.43a5.58 5.58 0 1 0-5.58 5.57 5.57 5.57 0 0 0 5.58-5.57zm-5.58 3.09a3.11 3.11 0 1 1 3.1-3.09 3.11 3.11 0 0 1-3.1 3.09zM115.69 151.3a2.86 2.86 0 0 1 2 .74.32.32 0 0 0 .42 0l1.22-1.3a.28.28 0 0 0 0-.42 6 6 0 0 0-3.78-1.46 5.57 5.57 0 1 0 0 11.13 7.78 7.78 0 0 0 3.84-1 .38.38 0 0 0 .13-.24v-4.17a.29.29 0 0 0-.28-.3h-3.11a.28.28 0 0 0-.3.3v1.53a.28.28 0 0 0 .3.28h1v.9a3.77 3.77 0 0 1-1.38.25 3.11 3.11 0 0 1 0-6.22zM135.09 154.43a5.57 5.57 0 1 0-5.58 5.57 5.57 5.57 0 0 0 5.58-5.57zm-8.66 0a3.09 3.09 0 1 1 3.08 3.09 3.12 3.12 0 0 1-3.08-3.09zM82 179.58a1 1 0 0 0-1.26-.64l-1.58.51v-1.66a1 1 0 0 0-2 0v1.66l-1.58-.51a1 1 0 0 0-1.26.64 1 1 0 0 0 .65 1.26l1.57.51-1 1.35a1 1 0 0 0 1.62 1.17l1-1.34 1 1.34a1 1 0 0 0 .81.41 1 1 0 0 0 .81-1.58l-1-1.35 1.58-.51a1 1 0 0 0 .64-1.26zM87.16 184.09a1 1 0 0 0 .59.19 1 1 0 0 0 .81-.41l1-1.34 1 1.34a1 1 0 0 0 .81.41 1 1 0 0 0 .81-1.58l-1-1.35 1.58-.51a1 1 0 1 0-.62-1.9l-1.58.51v-1.66a1 1 0 0 0-2 0v1.66l-1.56-.51a1 1 0 1 0-.61 1.9l1.57.51-1 1.35a1 1 0 0 0 .2 1.39zM70.69 179.58a1 1 0 0 0-1.26-.64l-1.58.51v-1.66a1 1 0 0 0-2 0v1.66l-1.57-.51a1 1 0 0 0-1.26.64 1 1 0 0 0 .64 1.26l1.58.51-1 1.35a1 1 0 0 0 1.62 1.17l1-1.34 1 1.34a1 1 0 0 0 .81.41 1 1 0 0 0 .81-1.58l-1-1.35 1.58-.51a1 1 0 0 0 .63-1.26z"/></svg>