<svg xmlns="http://www.w3.org/2000/svg" viewBox="0 0 316.7 191.31"><defs><style>.a{fill:#28646e;}</style></defs><title>trial</title><path class="a" d="M264.37,44.9a1,1,0,0,1-1-1V39a1,1,0,1,1,2,0V43.9A1,1,0,0,1,264.37,44.9Z"/><path class="a" d="M264.37,44.91a1.18,1.18,0,0,1-.31,0l-4.63-1.51a1,1,0,1,1,.62-1.9l4.63,1.5a1,1,0,0,1,.64,1.26A1,1,0,0,1,264.37,44.91Z"/><path class="a" d="M261.51,48.85a1.06,1.06,0,0,1-.59-.19,1,1,0,0,1-.22-1.4l2.86-3.94a1,1,0,0,1,1.4-.22,1,1,0,0,1,.22,1.39l-2.86,3.94A1,1,0,0,1,261.51,48.85Z"/><path class="a" d="M267.24,48.85a1,1,0,0,1-.81-.42l-2.87-3.94a1,1,0,0,1,.23-1.39,1,1,0,0,1,1.39.22l2.87,3.94a1,1,0,0,1-.22,1.4A1.09,1.09,0,0,1,267.24,48.85Z"/><path class="a" d="M264.37,44.91a1,1,0,0,1-.31-2l4.64-1.5a1,1,0,0,1,.62,1.9l-4.64,1.51A1.06,1.06,0,0,1,264.37,44.91Z"/><path class="a" d="M282.57,44.9a1,1,0,0,1-1-1V39a1,1,0,0,1,2,0V43.9A1,1,0,0,1,282.57,44.9Z"/><path class="a" d="M282.57,44.91a1.18,1.18,0,0,1-.31,0l-4.63-1.51a1,1,0,1,1,.62-1.9l4.63,1.5a1,1,0,0,1-.31,2Z"/><path class="a" d="M279.71,48.85a1.06,1.06,0,0,1-.59-.19,1,1,0,0,1-.22-1.4l2.86-3.94a1,1,0,0,1,1.4-.22,1,1,0,0,1,.22,1.39l-2.86,3.94A1,1,0,0,1,279.71,48.85Z"/><path class="a" d="M285.44,48.85a1,1,0,0,1-.81-.42l-2.87-3.94a1,1,0,0,1,1.62-1.17l2.87,3.94a1,1,0,0,1-.23,1.4A1,1,0,0,1,285.44,48.85Z"/><path class="a" d="M282.57,44.91a1,1,0,0,1-.31-2l4.64-1.5a1,1,0,0,1,.62,1.9l-4.64,1.51A1.12,1.12,0,0,1,282.57,44.91Z"/><path class="a" d="M246.17,44.9a1,1,0,0,1-1-1V39a1,1,0,0,1,2,0V43.9A1,1,0,0,1,246.17,44.9Z"/><path class="a" d="M246.17,44.91a1.18,1.18,0,0,1-.31,0l-4.63-1.51a1,1,0,1,1,.62-1.9l4.63,1.5a1,1,0,0,1-.31,2Z"/><path class="a" d="M243.31,48.85a1.09,1.09,0,0,1-.59-.19,1,1,0,0,1-.22-1.4l2.86-3.94a1,1,0,0,1,1.4-.22,1,1,0,0,1,.22,1.39l-2.86,3.94A1,1,0,0,1,243.31,48.85Z"/><path class="a" d="M249,48.85a1,1,0,0,1-.81-.42l-2.87-3.94a1,1,0,0,1,.23-1.39,1,1,0,0,1,1.39.22l2.87,3.94a1,1,0,0,1-.22,1.4A1.09,1.09,0,0,1,249,48.85Z"/><path class="a" d="M246.17,44.91a1,1,0,0,1-.31-2l4.64-1.5a1,1,0,0,1,.62,1.9l-4.64,1.51A1.06,1.06,0,0,1,246.17,44.91Z"/><path class="a" d="M78.94,154a6.37,6.37,0,0,1,4.59,1.77.35.35,0,0,1,0,.53l-1.48,1.54a.34.34,0,0,1-.48,0,3.85,3.85,0,0,0-2.56-1,3.89,3.89,0,0,0,0,7.77,4,4,0,0,0,2.54-.91.39.39,0,0,1,.5,0l1.48,1.58a.38.38,0,0,1,0,.51,6.52,6.52,0,0,1-4.61,1.84,6.84,6.84,0,1,1,0-13.68Z"/><path class="a" d="M91.53,154.5a.37.37,0,0,1,.36-.36h2.28a.37.37,0,0,1,.36.36v12.58a.37.37,0,0,1-.36.36H91.89a.37.37,0,0,1-.36-.36Z"/><path class="a" d="M101.79,154.64a.34.34,0,0,1,.33-.5h2.52a.4.4,0,0,1,.33.21l3.13,6.94h.11l3.14-6.94a.38.38,0,0,1,.32-.21h2.53a.34.34,0,0,1,.32.5l-6,12.78a.37.37,0,0,1-.33.21H108a.35.35,0,0,1-.32-.21Z"/><path class="a" d="M121.78,154.5a.37.37,0,0,1,.36-.36h2.28a.37.37,0,0,1,.36.36v12.58a.37.37,0,0,1-.36.36h-2.28a.37.37,0,0,1-.36-.36Z"/><path class="a" d="M139.64,154a6.39,6.39,0,0,1,4.6,1.77.35.35,0,0,1,0,.53l-1.49,1.54a.33.33,0,0,1-.47,0,3.86,3.86,0,0,0-2.57-1,3.89,3.89,0,0,0,0,7.77,4,4,0,0,0,2.55-.91.38.38,0,0,1,.49,0l1.48,1.58a.37.37,0,0,1,0,.51,6.56,6.56,0,0,1-4.62,1.84,6.84,6.84,0,1,1,0-13.68Z"/><path class="a" d="M152.43,162.62a2,2,0,0,1,2-2.07,2.07,2.07,0,0,1,2.07,2.07,2,2,0,0,1-2.07,2A2,2,0,0,1,152.43,162.62Z"/><path class="a" d="M165.65,154.5a.36.36,0,0,1,.36-.36h2.26a.37.37,0,0,1,.36.36v10.15h4.52a.37.37,0,0,1,.37.36v2.07a.37.37,0,0,1-.37.36H166a.36.36,0,0,1-.36-.36Z"/><path class="a" d="M181.06,154.5a.37.37,0,0,1,.36-.36h2.28a.37.37,0,0,1,.36.36v12.58a.37.37,0,0,1-.36.36h-2.28a.37.37,0,0,1-.36-.36Z"/><path class="a" d="M193,154.6a.45.45,0,0,1,.46-.46h2.22a.46.46,0,0,1,.45.46v5l4.22-5.27a.61.61,0,0,1,.36-.19h2.4a.44.44,0,0,1,.34.71L199,160.41l4.85,6.31a.44.44,0,0,1-.36.7h-2.63a.51.51,0,0,1-.34-.13l-4.39-6V167a.45.45,0,0,1-.45.45h-2.22A.45.45,0,0,1,193,167Z"/><path class="a" d="M211.52,154.5a.36.36,0,0,1,.36-.36h7.86a.36.36,0,0,1,.36.36v2.08a.36.36,0,0,1-.36.36h-5.26v2.35h4.33a.37.37,0,0,1,.36.36v2.07a.36.36,0,0,1-.36.36h-4.33v2.57h5.26a.36.36,0,0,1,.36.36v2.07a.36.36,0,0,1-.36.36h-7.86a.36.36,0,0,1-.36-.36Z"/><path class="a" d="M228.35,154.5a.36.36,0,0,1,.36-.36h5.68a4.14,4.14,0,0,1,4.14,4.11,4.19,4.19,0,0,1-2.81,3.82l2.6,4.82a.36.36,0,0,1-.32.55h-2.53a.34.34,0,0,1-.3-.17l-2.53-5h-1.31v4.84a.37.37,0,0,1-.36.36h-2.26a.36.36,0,0,1-.36-.36Zm5.79,5.32a1.53,1.53,0,0,0,1.45-1.52,1.46,1.46,0,0,0-1.45-1.44h-2.81v3Z"/><path class="a" d="M78.88,39.33H75.73a.42.42,0,0,1-.42-.42V36.52a.42.42,0,0,1,.42-.42H85.5a.42.42,0,0,1,.42.42v2.39a.42.42,0,0,1-.42.42H82.35V51.08a.44.44,0,0,1-.42.42H79.29a.43.43,0,0,1-.41-.42Z"/><path class="a" d="M94.72,36.52a.42.42,0,0,1,.42-.42h6.57a4.7,4.7,0,0,1,1.54,9.17l3,5.59a.42.42,0,0,1-.38.64H103a.39.39,0,0,1-.35-.2l-2.93-5.83H98.17v5.61a.44.44,0,0,1-.42.42H95.14a.42.42,0,0,1-.42-.42Zm6.71,6.16a1.77,1.77,0,0,0,1.67-1.76,1.69,1.69,0,0,0-1.67-1.68H98.17v3.44Z"/><path class="a" d="M116.06,36.52a.44.44,0,0,1,.42-.42h2.64a.44.44,0,0,1,.42.42V51.08a.44.44,0,0,1-.42.42h-2.64a.44.44,0,0,1-.42-.42Z"/><path class="a" d="M127.94,50.93l6.89-14.81a.44.44,0,0,1,.37-.24h.22a.46.46,0,0,1,.38.24l6.88,14.81a.38.38,0,0,1-.37.57h-2.44c-.4,0-.58-.13-.77-.55l-.8-1.74h-6L131.53,51a.81.81,0,0,1-.79.53h-2.42A.39.39,0,0,1,127.94,50.93Zm9-4.71-1.67-3.63h0l-1.65,3.63Z"/><path class="a" d="M151.09,36.52a.42.42,0,0,1,.42-.42h2.61a.44.44,0,0,1,.42.42V48.27h5.24a.41.41,0,0,1,.42.41v2.4a.42.42,0,0,1-.42.42h-8.27a.42.42,0,0,1-.42-.42Z"/><path class="a" d="M8.83,153a2.5,2.5,0,0,1-2.5-2.5V8.88a2.49,2.49,0,0,1,2.5-2.5H39a2.5,2.5,0,0,1,0,5H11.33v139.1A2.5,2.5,0,0,1,8.83,153Z"/><path class="a" d="M307.87,184.94H8.83a2.5,2.5,0,0,1-2.5-2.5v-21a2.5,2.5,0,0,1,5,0v18.46h294V121.48a2.5,2.5,0,0,1,5,0v61A2.5,2.5,0,0,1,307.87,184.94Z"/><path class="a" d="M307.87,112.48a2.5,2.5,0,0,1-2.5-2.5V29a2.5,2.5,0,0,1,5,0v81A2.5,2.5,0,0,1,307.87,112.48Z"/><path class="a" d="M307.87,22a2.5,2.5,0,0,1-2.5-2.5v-8.1H87a2.5,2.5,0,1,1,0-5H307.87a2.49,2.49,0,0,1,2.5,2.5v10.6A2.5,2.5,0,0,1,307.87,22Z"/><path class="a" d="M75,11.38H50.54a2.5,2.5,0,1,1,0-5H75a2.5,2.5,0,0,1,0,5Z"/><path class="a" d="M56,57.08H31.74a1.5,1.5,0,0,1-1.5-1.5V50.72a1.5,1.5,0,0,1,3,0v3.36H54.51V32.8H33.24v3.36a1.5,1.5,0,0,1-3,0V31.3a1.5,1.5,0,0,1,1.5-1.5H56a1.5,1.5,0,0,1,1.5,1.5V55.58A1.5,1.5,0,0,1,56,57.08Z"/><path class="a" d="M42.37,51.15a1.53,1.53,0,0,1-1.06-.44,1.51,1.51,0,0,1,0-2.12l5.08-5.08-4.87-4.88a1.49,1.49,0,0,1,0-2.12,1.51,1.51,0,0,1,2.12,0l5.93,5.94a1.5,1.5,0,0,1,0,2.12l-6.14,6.14A1.49,1.49,0,0,1,42.37,51.15Z"/><path class="a" d="M48.51,45H28.24a1.5,1.5,0,0,1,0-3H48.51a1.5,1.5,0,0,1,0,3Z"/><path class="a" d="M84.54,141H8.21a1,1,0,0,1,0-2H84.54a1,1,0,0,1,0,2Z"/><path class="a" d="M157.54,141h-65a1,1,0,1,1,0-2h65a1,1,0,0,1,0,2Z"/><path class="a" d="M308.21,141H166.54a1,1,0,0,1,0-2H308.21a1,1,0,0,1,0,2Z"/><path class="a" d="M305.45,189.81a1.5,1.5,0,0,1,1.5-1.5h0a1.5,1.5,0,0,1,1.5,1.5h0a1.5,1.5,0,0,1-1.5,1.5h0A1.5,1.5,0,0,1,305.45,189.81Z"/><path class="a" d="M297.2,189.81a1.5,1.5,0,0,1,1.5-1.5h0a1.5,1.5,0,0,1,1.5,1.5h0a1.5,1.5,0,0,1-1.5,1.5h0A1.5,1.5,0,0,1,297.2,189.81Z"/><path class="a" d="M288.94,189.81a1.5,1.5,0,0,1,1.5-1.5h0a1.5,1.5,0,0,1,1.5,1.5h0a1.5,1.5,0,0,1-1.5,1.5h0A1.5,1.5,0,0,1,288.94,189.81Z"/><path class="a" d="M280.69,189.81a1.5,1.5,0,0,1,1.5-1.5h0a1.5,1.5,0,0,1,1.5,1.5h0a1.5,1.5,0,0,1-1.5,1.5h0A1.5,1.5,0,0,1,280.69,189.81Z"/><path class="a" d="M272.43,189.81a1.5,1.5,0,0,1,1.5-1.5h0a1.5,1.5,0,0,1,1.5,1.5h0a1.5,1.5,0,0,1-1.5,1.5h0A1.5,1.5,0,0,1,272.43,189.81Z"/><path class="a" d="M264.18,189.81a1.5,1.5,0,0,1,1.5-1.5h0a1.5,1.5,0,0,1,1.5,1.5h0a1.5,1.5,0,0,1-1.5,1.5h0A1.5,1.5,0,0,1,264.18,189.81Z"/><path class="a" d="M255.92,189.81a1.5,1.5,0,0,1,1.5-1.5h0a1.5,1.5,0,0,1,1.5,1.5h0a1.5,1.5,0,0,1-1.5,1.5h0A1.5,1.5,0,0,1,255.92,189.81Z"/><path class="a" d="M239.41,189.81a1.5,1.5,0,0,1,1.5-1.5h0a1.5,1.5,0,0,1,1.5,1.5h0a1.5,1.5,0,0,1-1.5,1.5h0A1.5,1.5,0,0,1,239.41,189.81Z"/><path class="a" d="M231.15,189.81a1.5,1.5,0,0,1,1.5-1.5h0a1.5,1.5,0,0,1,1.5,1.5h0a1.5,1.5,0,0,1-1.5,1.5h0A1.5,1.5,0,0,1,231.15,189.81Z"/><path class="a" d="M222.9,189.81a1.5,1.5,0,0,1,1.5-1.5h0a1.5,1.5,0,0,1,1.5,1.5h0a1.5,1.5,0,0,1-1.5,1.5h0A1.5,1.5,0,0,1,222.9,189.81Z"/><path class="a" d="M214.64,189.81a1.5,1.5,0,0,1,1.5-1.5h0a1.5,1.5,0,0,1,1.5,1.5h0a1.5,1.5,0,0,1-1.5,1.5h0A1.5,1.5,0,0,1,214.64,189.81Z"/><path class="a" d="M206.39,189.81a1.5,1.5,0,0,1,1.5-1.5h0a1.5,1.5,0,0,1,1.5,1.5h0a1.5,1.5,0,0,1-1.5,1.5h0A1.5,1.5,0,0,1,206.39,189.81Z"/><path class="a" d="M198.13,189.81a1.5,1.5,0,0,1,1.5-1.5h0a1.5,1.5,0,0,1,1.5,1.5h0a1.5,1.5,0,0,1-1.5,1.5h0A1.5,1.5,0,0,1,198.13,189.81Z"/><path class="a" d="M189.88,189.81a1.5,1.5,0,0,1,1.5-1.5h0a1.5,1.5,0,0,1,1.5,1.5h0a1.5,1.5,0,0,1-1.5,1.5h0A1.5,1.5,0,0,1,189.88,189.81Z"/><path class="a" d="M181.62,189.81a1.5,1.5,0,0,1,1.5-1.5h0a1.5,1.5,0,0,1,1.5,1.5h0a1.5,1.5,0,0,1-1.5,1.5h0A1.5,1.5,0,0,1,181.62,189.81Z"/><path class="a" d="M173.37,189.81a1.5,1.5,0,0,1,1.5-1.5h0a1.5,1.5,0,0,1,1.5,1.5h0a1.5,1.5,0,0,1-1.5,1.5h0A1.5,1.5,0,0,1,173.37,189.81Z"/><path class="a" d="M165.11,189.81a1.5,1.5,0,0,1,1.5-1.5h0a1.5,1.5,0,0,1,1.5,1.5h0a1.5,1.5,0,0,1-1.5,1.5h0A1.5,1.5,0,0,1,165.11,189.81Z"/><path class="a" d="M156.85,189.81a1.5,1.5,0,0,1,1.5-1.5h0a1.5,1.5,0,0,1,1.5,1.5h0a1.5,1.5,0,0,1-1.5,1.5h0A1.5,1.5,0,0,1,156.85,189.81Z"/><path class="a" d="M148.6,189.81a1.5,1.5,0,0,1,1.5-1.5h0a1.5,1.5,0,0,1,1.5,1.5h0a1.5,1.5,0,0,1-1.5,1.5h0A1.5,1.5,0,0,1,148.6,189.81Z"/><path class="a" d="M140.34,189.81a1.5,1.5,0,0,1,1.5-1.5h0a1.5,1.5,0,0,1,1.5,1.5h0a1.5,1.5,0,0,1-1.5,1.5h0A1.5,1.5,0,0,1,140.34,189.81Z"/><path class="a" d="M132.09,189.81a1.5,1.5,0,0,1,1.5-1.5h0a1.5,1.5,0,0,1,1.5,1.5h0a1.5,1.5,0,0,1-1.5,1.5h0A1.5,1.5,0,0,1,132.09,189.81Z"/><path class="a" d="M123.83,189.81a1.5,1.5,0,0,1,1.5-1.5h0a1.5,1.5,0,0,1,1.5,1.5h0a1.5,1.5,0,0,1-1.5,1.5h0A1.5,1.5,0,0,1,123.83,189.81Z"/><path class="a" d="M115.58,189.81a1.5,1.5,0,0,1,1.5-1.5h0a1.5,1.5,0,0,1,1.5,1.5h0a1.5,1.5,0,0,1-1.5,1.5h0A1.5,1.5,0,0,1,115.58,189.81Z"/><path class="a" d="M107.32,189.81a1.5,1.5,0,0,1,1.5-1.5h0a1.5,1.5,0,0,1,1.5,1.5h0a1.5,1.5,0,0,1-1.5,1.5h0A1.5,1.5,0,0,1,107.32,189.81Z"/><path class="a" d="M99.07,189.81a1.5,1.5,0,0,1,1.5-1.5h0a1.5,1.5,0,0,1,1.5,1.5h0a1.5,1.5,0,0,1-1.5,1.5h0A1.5,1.5,0,0,1,99.07,189.81Z"/><path class="a" d="M90.81,189.81a1.5,1.5,0,0,1,1.5-1.5h0a1.5,1.5,0,0,1,1.5,1.5h0a1.5,1.5,0,0,1-1.5,1.5h0A1.5,1.5,0,0,1,90.81,189.81Z"/><path class="a" d="M82.56,189.81a1.5,1.5,0,0,1,1.5-1.5h0a1.5,1.5,0,0,1,1.5,1.5h0a1.5,1.5,0,0,1-1.5,1.5h0A1.5,1.5,0,0,1,82.56,189.81Z"/><path class="a" d="M74.3,189.81a1.5,1.5,0,0,1,1.5-1.5h0a1.5,1.5,0,0,1,1.5,1.5h0a1.5,1.5,0,0,1-1.5,1.5h0A1.5,1.5,0,0,1,74.3,189.81Z"/><path class="a" d="M66,189.81a1.5,1.5,0,0,1,1.5-1.5h0a1.5,1.5,0,0,1,1.5,1.5h0a1.5,1.5,0,0,1-1.5,1.5h0A1.5,1.5,0,0,1,66,189.81Z"/><path class="a" d="M57.79,189.81a1.5,1.5,0,0,1,1.5-1.5h0a1.5,1.5,0,0,1,1.5,1.5h0a1.5,1.5,0,0,1-1.5,1.5h0A1.5,1.5,0,0,1,57.79,189.81Z"/><path class="a" d="M49.53,189.81a1.5,1.5,0,0,1,1.5-1.5h0a1.5,1.5,0,0,1,1.5,1.5h0a1.5,1.5,0,0,1-1.5,1.5h0A1.5,1.5,0,0,1,49.53,189.81Z"/><path class="a" d="M33,189.81a1.5,1.5,0,0,1,1.5-1.5h0a1.5,1.5,0,0,1,1.5,1.5h0a1.5,1.5,0,0,1-1.5,1.5h0A1.5,1.5,0,0,1,33,189.81Z"/><path class="a" d="M24.77,189.81a1.5,1.5,0,0,1,1.5-1.5h0a1.5,1.5,0,0,1,1.5,1.5h0a1.5,1.5,0,0,1-1.5,1.5h0A1.5,1.5,0,0,1,24.77,189.81Z"/><path class="a" d="M16.51,189.81a1.5,1.5,0,0,1,1.5-1.5h0a1.5,1.5,0,0,1,1.5,1.5h0a1.5,1.5,0,0,1-1.5,1.5h0A1.5,1.5,0,0,1,16.51,189.81Z"/><path class="a" d="M8.26,189.81a1.5,1.5,0,0,1,1.5-1.5h0a1.5,1.5,0,0,1,1.5,1.5h0a1.5,1.5,0,0,1-1.5,1.5h0A1.5,1.5,0,0,1,8.26,189.81Z"/><path class="a" d="M305.45,1.5A1.5,1.5,0,0,1,307,0h0a1.5,1.5,0,0,1,1.5,1.5h0A1.5,1.5,0,0,1,307,3h0A1.5,1.5,0,0,1,305.45,1.5Z"/><path class="a" d="M297.2,1.5A1.5,1.5,0,0,1,298.7,0h0a1.5,1.5,0,0,1,1.5,1.5h0A1.5,1.5,0,0,1,298.7,3h0A1.5,1.5,0,0,1,297.2,1.5Z"/><path class="a" d="M288.94,1.5a1.5,1.5,0,0,1,1.5-1.5h0a1.5,1.5,0,0,1,1.5,1.5h0a1.5,1.5,0,0,1-1.5,1.5h0A1.5,1.5,0,0,1,288.94,1.5Z"/><path class="a" d="M280.69,1.5a1.5,1.5,0,0,1,1.5-1.5h0a1.5,1.5,0,0,1,1.5,1.5h0a1.5,1.5,0,0,1-1.5,1.5h0A1.5,1.5,0,0,1,280.69,1.5Z"/><path class="a" d="M272.43,1.5a1.5,1.5,0,0,1,1.5-1.5h0a1.5,1.5,0,0,1,1.5,1.5h0a1.5,1.5,0,0,1-1.5,1.5h0A1.5,1.5,0,0,1,272.43,1.5Z"/><path class="a" d="M264.18,1.5a1.5,1.5,0,0,1,1.5-1.5h0a1.5,1.5,0,0,1,1.5,1.5h0a1.5,1.5,0,0,1-1.5,1.5h0A1.5,1.5,0,0,1,264.18,1.5Z"/><path class="a" d="M255.92,1.5a1.5,1.5,0,0,1,1.5-1.5h0a1.5,1.5,0,0,1,1.5,1.5h0a1.5,1.5,0,0,1-1.5,1.5h0A1.5,1.5,0,0,1,255.92,1.5Z"/><path class="a" d="M247.67,1.5a1.5,1.5,0,0,1,1.5-1.5h0a1.5,1.5,0,0,1,1.5,1.5h0a1.5,1.5,0,0,1-1.5,1.5h0A1.5,1.5,0,0,1,247.67,1.5Z"/><path class="a" d="M239.41,1.5a1.5,1.5,0,0,1,1.5-1.5h0a1.5,1.5,0,0,1,1.5,1.5h0a1.5,1.5,0,0,1-1.5,1.5h0A1.5,1.5,0,0,1,239.41,1.5Z"/><path class="a" d="M231.15,1.5a1.5,1.5,0,0,1,1.5-1.5h0a1.5,1.5,0,0,1,1.5,1.5h0a1.5,1.5,0,0,1-1.5,1.5h0A1.5,1.5,0,0,1,231.15,1.5Z"/><path class="a" d="M222.9,1.5A1.5,1.5,0,0,1,224.4,0h0a1.5,1.5,0,0,1,1.5,1.5h0A1.5,1.5,0,0,1,224.4,3h0A1.5,1.5,0,0,1,222.9,1.5Z"/><path class="a" d="M214.64,1.5a1.5,1.5,0,0,1,1.5-1.5h0a1.5,1.5,0,0,1,1.5,1.5h0a1.5,1.5,0,0,1-1.5,1.5h0A1.5,1.5,0,0,1,214.64,1.5Z"/><path class="a" d="M206.39,1.5a1.5,1.5,0,0,1,1.5-1.5h0a1.5,1.5,0,0,1,1.5,1.5h0a1.5,1.5,0,0,1-1.5,1.5h0A1.5,1.5,0,0,1,206.39,1.5Z"/><path class="a" d="M198.13,1.5a1.5,1.5,0,0,1,1.5-1.5h0a1.5,1.5,0,0,1,1.5,1.5h0a1.5,1.5,0,0,1-1.5,1.5h0A1.5,1.5,0,0,1,198.13,1.5Z"/><path class="a" d="M189.88,1.5a1.5,1.5,0,0,1,1.5-1.5h0a1.5,1.5,0,0,1,1.5,1.5h0a1.5,1.5,0,0,1-1.5,1.5h0A1.5,1.5,0,0,1,189.88,1.5Z"/><path class="a" d="M181.62,1.5a1.5,1.5,0,0,1,1.5-1.5h0a1.5,1.5,0,0,1,1.5,1.5h0a1.5,1.5,0,0,1-1.5,1.5h0A1.5,1.5,0,0,1,181.62,1.5Z"/><path class="a" d="M173.37,1.5a1.5,1.5,0,0,1,1.5-1.5h0a1.5,1.5,0,0,1,1.5,1.5h0a1.5,1.5,0,0,1-1.5,1.5h0A1.5,1.5,0,0,1,173.37,1.5Z"/><path class="a" d="M165.11,1.5a1.5,1.5,0,0,1,1.5-1.5h0a1.5,1.5,0,0,1,1.5,1.5h0a1.5,1.5,0,0,1-1.5,1.5h0A1.5,1.5,0,0,1,165.11,1.5Z"/><path class="a" d="M156.85,1.5a1.5,1.5,0,0,1,1.5-1.5h0a1.5,1.5,0,0,1,1.5,1.5h0a1.5,1.5,0,0,1-1.5,1.5h0A1.5,1.5,0,0,1,156.85,1.5Z"/><path class="a" d="M148.6,1.5A1.5,1.5,0,0,1,150.1,0h0a1.5,1.5,0,0,1,1.5,1.5h0A1.5,1.5,0,0,1,150.1,3h0A1.5,1.5,0,0,1,148.6,1.5Z"/><path class="a" d="M140.34,1.5a1.5,1.5,0,0,1,1.5-1.5h0a1.5,1.5,0,0,1,1.5,1.5h0a1.5,1.5,0,0,1-1.5,1.5h0A1.5,1.5,0,0,1,140.34,1.5Z"/><path class="a" d="M132.09,1.5a1.5,1.5,0,0,1,1.5-1.5h0a1.5,1.5,0,0,1,1.5,1.5h0a1.5,1.5,0,0,1-1.5,1.5h0A1.5,1.5,0,0,1,132.09,1.5Z"/><path class="a" d="M123.83,1.5a1.5,1.5,0,0,1,1.5-1.5h0a1.5,1.5,0,0,1,1.5,1.5h0a1.5,1.5,0,0,1-1.5,1.5h0A1.5,1.5,0,0,1,123.83,1.5Z"/><path class="a" d="M115.58,1.5a1.5,1.5,0,0,1,1.5-1.5h0a1.5,1.5,0,0,1,1.5,1.5h0a1.5,1.5,0,0,1-1.5,1.5h0A1.5,1.5,0,0,1,115.58,1.5Z"/><path class="a" d="M107.32,1.5a1.5,1.5,0,0,1,1.5-1.5h0a1.5,1.5,0,0,1,1.5,1.5h0a1.5,1.5,0,0,1-1.5,1.5h0A1.5,1.5,0,0,1,107.32,1.5Z"/><path class="a" d="M99.07,1.5a1.5,1.5,0,0,1,1.5-1.5h0a1.5,1.5,0,0,1,1.5,1.5h0a1.5,1.5,0,0,1-1.5,1.5h0A1.5,1.5,0,0,1,99.07,1.5Z"/><path class="a" d="M90.81,1.5A1.5,1.5,0,0,1,92.31,0h0a1.5,1.5,0,0,1,1.5,1.5h0A1.5,1.5,0,0,1,92.31,3h0A1.5,1.5,0,0,1,90.81,1.5Z"/><path class="a" d="M66,1.5A1.5,1.5,0,0,1,67.54,0h0A1.5,1.5,0,0,1,69,1.5h0A1.5,1.5,0,0,1,67.54,3h0A1.5,1.5,0,0,1,66,1.5Z"/><path class="a" d="M57.79,1.5A1.5,1.5,0,0,1,59.29,0h0a1.5,1.5,0,0,1,1.5,1.5h0A1.5,1.5,0,0,1,59.29,3h0A1.5,1.5,0,0,1,57.79,1.5Z"/><path class="a" d="M49.53,1.5A1.5,1.5,0,0,1,51,0h0a1.5,1.5,0,0,1,1.5,1.5h0A1.5,1.5,0,0,1,51,3h0A1.5,1.5,0,0,1,49.53,1.5Z"/><path class="a" d="M33,1.5A1.5,1.5,0,0,1,34.52,0h0A1.5,1.5,0,0,1,36,1.5h0A1.5,1.5,0,0,1,34.52,3h0A1.5,1.5,0,0,1,33,1.5Z"/><path class="a" d="M24.77,1.5A1.5,1.5,0,0,1,26.27,0h0a1.5,1.5,0,0,1,1.5,1.5h0A1.5,1.5,0,0,1,26.27,3h0A1.5,1.5,0,0,1,24.77,1.5Z"/><path class="a" d="M16.51,1.5A1.5,1.5,0,0,1,18,0h0a1.5,1.5,0,0,1,1.5,1.5h0A1.5,1.5,0,0,1,18,3h0A1.5,1.5,0,0,1,16.51,1.5Z"/><path class="a" d="M8.26,1.5A1.5,1.5,0,0,1,9.76,0h0a1.5,1.5,0,0,1,1.5,1.5h0A1.5,1.5,0,0,1,9.76,3h0A1.5,1.5,0,0,1,8.26,1.5Z"/><path class="a" d="M0,189.81a1.5,1.5,0,0,1,1.5-1.5h0a1.5,1.5,0,0,1,1.5,1.5H3a1.5,1.5,0,0,1-1.5,1.5h0A1.5,1.5,0,0,1,0,189.81Z"/><path class="a" d="M0,181.62a1.5,1.5,0,0,1,1.49-1.5h0a1.5,1.5,0,0,1,1.5,1.5H3a1.5,1.5,0,0,1-1.5,1.5h0A1.5,1.5,0,0,1,0,181.62Z"/><path class="a" d="M0,173.44a1.5,1.5,0,0,1,1.49-1.5h0a1.5,1.5,0,0,1,1.5,1.5H3a1.5,1.5,0,0,1-1.5,1.5h0A1.5,1.5,0,0,1,0,173.44Z"/><path class="a" d="M0,148.87a1.5,1.5,0,0,1,1.49-1.5h0a1.5,1.5,0,0,1,1.5,1.5H3a1.5,1.5,0,0,1-1.5,1.5h0A1.5,1.5,0,0,1,0,148.87Z"/><path class="a" d="M0,140.69a1.5,1.5,0,0,1,1.49-1.5h0a1.5,1.5,0,0,1,1.5,1.5H3a1.5,1.5,0,0,1-1.5,1.5h0A1.5,1.5,0,0,1,0,140.69Z"/><path class="a" d="M0,132.5A1.5,1.5,0,0,1,1.49,131h0A1.5,1.5,0,0,1,3,132.5H3a1.5,1.5,0,0,1-1.5,1.5h0A1.5,1.5,0,0,1,0,132.5Z"/><path class="a" d="M0,116.12a1.5,1.5,0,0,1,1.49-1.5h0a1.5,1.5,0,0,1,1.5,1.5H3a1.5,1.5,0,0,1-1.5,1.5h0A1.5,1.5,0,0,1,0,116.12Z"/><path class="a" d="M0,107.94a1.5,1.5,0,0,1,1.49-1.5h0a1.5,1.5,0,0,1,1.5,1.5H3a1.5,1.5,0,0,1-1.5,1.5h0A1.5,1.5,0,0,1,0,107.94Z"/><path class="a" d="M0,99.75a1.5,1.5,0,0,1,1.49-1.5h0A1.5,1.5,0,0,1,3,99.75H3a1.5,1.5,0,0,1-1.5,1.5h0A1.5,1.5,0,0,1,0,99.75Z"/><path class="a" d="M0,91.56a1.5,1.5,0,0,1,1.49-1.5h0A1.5,1.5,0,0,1,3,91.56H3a1.5,1.5,0,0,1-1.5,1.5h0A1.5,1.5,0,0,1,0,91.56Z"/><path class="a" d="M0,83.37a1.5,1.5,0,0,1,1.49-1.5h0A1.5,1.5,0,0,1,3,83.37H3a1.5,1.5,0,0,1-1.5,1.5h0A1.5,1.5,0,0,1,0,83.37Z"/><path class="a" d="M0,75.19a1.5,1.5,0,0,1,1.49-1.5h0A1.5,1.5,0,0,1,3,75.19H3a1.5,1.5,0,0,1-1.5,1.5h0A1.5,1.5,0,0,1,0,75.19Z"/><path class="a" d="M0,67a1.5,1.5,0,0,1,1.49-1.5h0A1.5,1.5,0,0,1,3,67H3a1.5,1.5,0,0,1-1.5,1.5h0A1.5,1.5,0,0,1,0,67Z"/><path class="a" d="M0,58.81a1.5,1.5,0,0,1,1.49-1.5h0A1.5,1.5,0,0,1,3,58.81H3a1.5,1.5,0,0,1-1.5,1.5h0A1.5,1.5,0,0,1,0,58.81Z"/><path class="a" d="M0,50.62a1.5,1.5,0,0,1,1.49-1.5h0A1.5,1.5,0,0,1,3,50.62H3a1.5,1.5,0,0,1-1.5,1.5h0A1.5,1.5,0,0,1,0,50.62Z"/><path class="a" d="M0,42.44a1.5,1.5,0,0,1,1.49-1.5h0A1.5,1.5,0,0,1,3,42.44H3a1.5,1.5,0,0,1-1.5,1.5h0A1.5,1.5,0,0,1,0,42.44Z"/><path class="a" d="M0,34.25a1.5,1.5,0,0,1,1.49-1.5h0A1.5,1.5,0,0,1,3,34.25H3a1.5,1.5,0,0,1-1.5,1.5h0A1.5,1.5,0,0,1,0,34.25Z"/><path class="a" d="M0,26.06a1.5,1.5,0,0,1,1.49-1.5h0A1.5,1.5,0,0,1,3,26.06H3a1.5,1.5,0,0,1-1.5,1.5h0A1.5,1.5,0,0,1,0,26.06Z"/><path class="a" d="M0,17.87a1.5,1.5,0,0,1,1.49-1.5h0A1.5,1.5,0,0,1,3,17.87H3a1.5,1.5,0,0,1-1.5,1.5h0A1.5,1.5,0,0,1,0,17.87Z"/><path class="a" d="M0,1.5A1.5,1.5,0,0,1,1.49,0h0A1.5,1.5,0,0,1,3,1.5H3A1.5,1.5,0,0,1,1.49,3h0A1.5,1.5,0,0,1,0,1.5Z"/><path class="a" d="M313.71,181.62a1.5,1.5,0,0,1,1.49-1.5h0a1.5,1.5,0,0,1,1.5,1.5h0a1.5,1.5,0,0,1-1.5,1.5h0A1.5,1.5,0,0,1,313.71,181.62Z"/><path class="a" d="M313.71,173.44a1.5,1.5,0,0,1,1.49-1.5h0a1.5,1.5,0,0,1,1.5,1.5h0a1.5,1.5,0,0,1-1.5,1.5h0A1.5,1.5,0,0,1,313.71,173.44Z"/><path class="a" d="M313.71,165.25a1.5,1.5,0,0,1,1.49-1.5h0a1.5,1.5,0,0,1,1.5,1.5h0a1.5,1.5,0,0,1-1.5,1.5h0A1.5,1.5,0,0,1,313.71,165.25Z"/><path class="a" d="M313.71,157.06a1.5,1.5,0,0,1,1.49-1.5h0a1.5,1.5,0,0,1,1.5,1.5h0a1.5,1.5,0,0,1-1.5,1.5h0A1.5,1.5,0,0,1,313.71,157.06Z"/><path class="a" d="M313.71,148.87a1.5,1.5,0,0,1,1.49-1.5h0a1.5,1.5,0,0,1,1.5,1.5h0a1.5,1.5,0,0,1-1.5,1.5h0A1.5,1.5,0,0,1,313.71,148.87Z"/><path class="a" d="M313.71,140.69a1.5,1.5,0,0,1,1.49-1.5h0a1.5,1.5,0,0,1,1.5,1.5h0a1.5,1.5,0,0,1-1.5,1.5h0A1.5,1.5,0,0,1,313.71,140.69Z"/><path class="a" d="M313.71,132.5a1.5,1.5,0,0,1,1.49-1.5h0a1.5,1.5,0,0,1,1.5,1.5h0a1.5,1.5,0,0,1-1.5,1.5h0A1.5,1.5,0,0,1,313.71,132.5Z"/><path class="a" d="M313.71,124.31a1.5,1.5,0,0,1,1.49-1.5h0a1.5,1.5,0,0,1,1.5,1.5h0a1.5,1.5,0,0,1-1.5,1.5h0A1.5,1.5,0,0,1,313.71,124.31Z"/><path class="a" d="M313.71,107.94a1.5,1.5,0,0,1,1.49-1.5h0a1.5,1.5,0,0,1,1.5,1.5h0a1.5,1.5,0,0,1-1.5,1.5h0A1.5,1.5,0,0,1,313.71,107.94Z"/><path class="a" d="M313.71,99.75a1.5,1.5,0,0,1,1.49-1.5h0a1.5,1.5,0,0,1,1.5,1.5h0a1.5,1.5,0,0,1-1.5,1.5h0A1.5,1.5,0,0,1,313.71,99.75Z"/><path class="a" d="M313.71,91.56a1.5,1.5,0,0,1,1.49-1.5h0a1.5,1.5,0,0,1,1.5,1.5h0a1.5,1.5,0,0,1-1.5,1.5h0A1.5,1.5,0,0,1,313.71,91.56Z"/><path class="a" d="M313.71,83.37a1.5,1.5,0,0,1,1.49-1.5h0a1.5,1.5,0,0,1,1.5,1.5h0a1.5,1.5,0,0,1-1.5,1.5h0A1.5,1.5,0,0,1,313.71,83.37Z"/><path class="a" d="M313.71,75.19a1.5,1.5,0,0,1,1.49-1.5h0a1.5,1.5,0,0,1,1.5,1.5h0a1.5,1.5,0,0,1-1.5,1.5h0A1.5,1.5,0,0,1,313.71,75.19Z"/><path class="a" d="M313.71,67a1.5,1.5,0,0,1,1.49-1.5h0a1.5,1.5,0,0,1,1.5,1.5h0a1.5,1.5,0,0,1-1.5,1.5h0A1.5,1.5,0,0,1,313.71,67Z"/><path class="a" d="M313.71,58.81a1.5,1.5,0,0,1,1.49-1.5h0a1.5,1.5,0,0,1,1.5,1.5h0a1.5,1.5,0,0,1-1.5,1.5h0A1.5,1.5,0,0,1,313.71,58.81Z"/><path class="a" d="M313.71,50.62a1.5,1.5,0,0,1,1.49-1.5h0a1.5,1.5,0,0,1,1.5,1.5h0a1.5,1.5,0,0,1-1.5,1.5h0A1.5,1.5,0,0,1,313.71,50.62Z"/><path class="a" d="M313.71,42.44a1.5,1.5,0,0,1,1.49-1.5h0a1.5,1.5,0,0,1,1.5,1.5h0a1.5,1.5,0,0,1-1.5,1.5h0A1.5,1.5,0,0,1,313.71,42.44Z"/><path class="a" d="M313.71,34.25a1.5,1.5,0,0,1,1.49-1.5h0a1.5,1.5,0,0,1,1.5,1.5h0a1.5,1.5,0,0,1-1.5,1.5h0A1.5,1.5,0,0,1,313.71,34.25Z"/><path class="a" d="M313.71,17.87a1.5,1.5,0,0,1,1.49-1.5h0a1.5,1.5,0,0,1,1.5,1.5h0a1.5,1.5,0,0,1-1.5,1.5h0A1.5,1.5,0,0,1,313.71,17.87Z"/><path class="a" d="M313.71,9.69a1.5,1.5,0,0,1,1.49-1.5h0a1.5,1.5,0,0,1,1.5,1.5h0a1.5,1.5,0,0,1-1.5,1.5h0A1.5,1.5,0,0,1,313.71,9.69Z"/><path class="a" d="M313.71,1.5A1.5,1.5,0,0,1,315.2,0h0a1.5,1.5,0,0,1,1.5,1.5h0A1.5,1.5,0,0,1,315.2,3h0A1.5,1.5,0,0,1,313.71,1.5Z"/><path class="a" d="M287.21,122.5h-5a1,1,0,0,1,0-2h3v-2.42a1,1,0,1,1,2,0Zm-15,0h-7a1,1,0,0,1,0-2h7a1,1,0,0,1,0,2Zm-14,0h-7a1,1,0,0,1,0-2h7a1,1,0,0,1,0,2Zm-14,0h-7a1,1,0,0,1,0-2h7a1,1,0,1,1,0,2Zm-14,0h-7a1,1,0,0,1,0-2h7a1,1,0,1,1,0,2Zm-14,0h-7a1,1,0,0,1,0-2h7a1,1,0,1,1,0,2Zm-14,0h-3.5a1,1,0,0,1,0-2h3.5a1,1,0,1,1,0,2Zm-14,0h-7a1,1,0,0,1,0-2h7a1,1,0,1,1,0,2Zm-14,0h-5.5a1,1,0,0,1,0-2h5.5a1,1,0,1,1,0,2Zm-17.67,0h-3.33a1,1,0,0,1,0-2h3.33a1,1,0,0,1,0,2Zm-10.33,0h-7a1,1,0,0,1,0-2h7a1,1,0,1,1,0,2Zm-14,0h-7a1,1,0,1,1,0-2h7a1,1,0,0,1,0,2Zm-14,0h-7a1,1,0,1,1,0-2h7a1,1,0,0,1,0,2Zm-14,0h-5.5a1,1,0,1,1,0-2h5.5a1,1,0,0,1,0,2Zm-28,0h-7a1,1,0,1,1,0-2h7a1,1,0,0,1,0,2Zm-14,0h-5a1,1,0,0,1,0-2h5a1,1,0,1,1,0,2Zm-14,0h-7a1,1,0,0,1,0-2h7a1,1,0,1,1,0,2ZM30.5,112.21a1,1,0,0,1-1-1v-7a1,1,0,1,1,2,0v7A1,1,0,0,1,30.5,112.21Zm255.71-.13a1,1,0,0,1-1-1v-7a1,1,0,1,1,2,0v7A1,1,0,0,1,286.21,112.08ZM30.5,96.71a1,1,0,0,1-1-1v-5.5a1,1,0,0,1,2,0v5.5A1,1,0,0,1,30.5,96.71Zm255.71,1.37a1,1,0,0,1-1-1v-4.5a1,1,0,1,1,2,0v4.5A1,1,0,0,1,286.21,98.08ZM30.5,84.21a1,1,0,0,1-1-1v-5.5a1,1,0,0,1,2,0v5.5A1,1,0,0,1,30.5,84.21Zm255.71-1.13a1,1,0,0,1-1-1v-4.5a1,1,0,1,1,2,0v4.5A1,1,0,0,1,286.21,83.08Zm-5.43-7.58h-7a1,1,0,0,1,0-2h7a1,1,0,0,1,0,2Zm-14,0h-4a1,1,0,0,1,0-2h4a1,1,0,0,1,0,2Zm-14,0h-7a1,1,0,1,1,0-2h7a1,1,0,0,1,0,2Zm-14,0h-5.5a1,1,0,1,1,0-2h5.5a1,1,0,0,1,0,2Zm-28,0h-7a1,1,0,1,1,0-2h7a1,1,0,0,1,0,2Zm-15.5,0h-5.5a1,1,0,1,1,0-2h5.5a1,1,0,0,1,0,2Zm-12.5,0h-7a1,1,0,0,1,0-2h7a1,1,0,0,1,0,2Zm-14,0h-7a1,1,0,0,1,0-2h7a1,1,0,0,1,0,2Zm-14,0h-4.5a1,1,0,0,1,0-2h4.5a1,1,0,0,1,0,2Zm-14,0h-7a1,1,0,0,1,0-2h7a1,1,0,0,1,0,2Zm-15.5,0h-5.5a1,1,0,0,1,0-2h5.5a1,1,0,0,1,0,2Zm-12.5,0h-5.5a1,1,0,0,1,0-2h5.5a1,1,0,0,1,0,2Zm-14,0h-7a1,1,0,0,1,0-2h7a1,1,0,0,1,0,2Zm-14,0h-7a1,1,0,0,1,0-2h7a1,1,0,0,1,0,2Zm-14,0h-7a1,1,0,0,1,0-2h7a1,1,0,0,1,0,2Zm-14,0h-7a1,1,0,0,1,0-2h7a1,1,0,0,1,0,2Zm-14,0h-7a1,1,0,0,1,0-2h7a1,1,0,0,1,0,2Z"/></svg>