<svg enable-background="new 0 0 88 88" version="1.1" viewBox="0 0 88 88" xml:space="preserve" xmlns="http://www.w3.org/2000/svg">
<linearGradient id="a" x1="122.59" x2="123.59" y1="-87.136" y2="-87.136" gradientTransform="matrix(87.818 0 0 87.704 -10766 7686.2)" gradientUnits="userSpaceOnUse">
	<stop stop-color="#D1EFEF" offset="0"/>
	<stop stop-color="#EFE6B3" offset="1"/>
</linearGradient>
<path d="M44,0C19.7,0,0,19.7,0,43.9S19.7,88,44,88c24.4,0,44-19.7,44-44.1C88,19.7,68.4,0,44,0z" fill="url(#a)"/>
<g fill="#28646E">
	<path d="M43.9,6.5C23.1,6.5,6.2,23.4,6.2,44.1s16.9,37.6,37.7,37.6s37.7-16.9,37.7-37.6S64.7,6.5,43.9,6.5 M43.9,85.2   c-22.7,0-41.2-18.4-41.2-41.1S21.2,3,43.9,3s41.2,18.4,41.2,41.1S66.6,85.2,43.9,85.2"/>
	<path d="m41.2 36.6c-0.3 0-0.6-0.1-0.9-0.4-0.4-0.5-0.4-1.2 0.1-1.7 3.3-2.9 4.8-5.3 5-5.8 1-1.7 2.5-2.6 4.2-2.3 0.6 0.1 1.1 0.7 1 1.3s-0.7 1.1-1.3 1c-1-0.1-1.6 0.8-1.8 1.2-0.3 0.5-1.9 3.2-5.5 6.4-0.3 0.2-0.5 0.3-0.8 0.3"/>
	<path d="m21.5 56.4c-0.3 0-0.7-0.1-0.9-0.4-0.4-0.5-0.3-1.2 0.1-1.6 1.2-1 3.5-2.5 4.3-2.9 0.6-0.3 1.3-0.1 1.6 0.5s0.1 1.3-0.5 1.6-2.8 1.7-3.9 2.6c-0.2 0.1-0.5 0.2-0.7 0.2"/>
	<path d="m50.9 45.3c0.5 0.4 1 0.2 1.5-0.2 3.4-3.2 7-8.3 8.2-10.9 0.3-0.6 0.8-0.9 1.3-0.7 0.7 0.3 0.6 1.4 0.1 2.6-1.6 3.2-3.7 6.8-8 11.2-0.4 0.4-0.4 1 0 1.3s1 0.3 1.6-0.3c2.2-2.3 3.7-4 5-5.8 0.3-0.5 0.7-0.7 1.1-0.6 0.6 0.1 0.7 0.7 0.5 1.3-0.3 1.1-3.2 4.9-4.4 6.2-3.2 3.5-6.4 5.5-12.5 8.7-2.1 1.1-3.7 2.2-4.7 3.8-0.9 1.5-1.1 2-1.2 2.2-0.3 0.7-0.1 1.6 0.7 2 0.2 0.1 0.4 0.1 0.6 0.1 0.6 0 1.1-0.3 1.3-0.9l1.1-1.9c0.6-0.9 1.8-2.3 3.6-3.2 6.1-2.8 8.6-5 12.2-8.5 1.6-1.6 3.9-5.1 4.5-6.1 1.7-2.9 0.8-5.3-0.7-5.8-0.1 0-0.2-0.2-0.1-0.3 1.2-2 1.7-3.5 2-4.6 0.3-1.5-0.1-3.3-2.2-3.7-0.1 0-0.2-0.1-0.1-0.2 0.1-0.5 0.3-1.1 0.3-1.5 0.4-1.9-0.8-3.7-2.3-4-1-0.2-2 0-2.8 0.6-0.1 0.1-0.3 0.1-0.4 0-0.3-0.3-0.8-0.7-1.5-0.7-1.3 0-2.5 0.4-3.5 2.3-0.7 1.4-1.6 3.3-4.5 6.5-2.7 3-6.4 5.8-8.7 7.4-0.4 0.3-1 0.2-0.9-0.3 0.1-0.9 1-6.6 1.2-8.3 0.3-2.8-1.2-4-2.9-4.2-1.4-0.2-3.5 0.2-4.6 3.3-0.7 1.8-2.1 4.8-3.2 9.7-0.8 3.4-1 7.4-0.2 11.9 0 0.3 0 0.6-0.2 0.8-0.9 1.5-2.2 3.5-3 5.2-0.3 0.7 0 1.5 0.6 1.9 0.2 0.1 0.5 0.2 0.7 0.2 0.5 0 1.1-0.3 1.3-0.8 0.4-0.9 1.3-2.7 1.7-3.4 0.6-1.3 1-2.1 1.2-2.6s0.2-1 0-2.3c-0.5-2.1-0.6-6.1 0.2-9.6 1.2-4.7 3.1-9.9 3.5-10.7 0.3-0.9 0.8-1.1 1.3-1.1s1.4 0.3 1.2 2c-0.5 3.2-1.2 7.2-1.4 8.5-0.1 0.7-0.2 2.2 1 2.9 1 0.6 2 0.2 3.2-0.5 2.6-1.7 7.1-5.3 9.9-8.4 3-3.3 3.9-5.3 4.7-7.1 0.3-0.8 1.2-0.8 1.6-0.7 0.3 0.1 0.7 0.5 0.4 1.4-0.7 2.2-3.4 7.2-8.6 11.9-0.6 0.5-0.5 1.2-0.2 1.5s0.8 0.5 1.4 0c4.7-4 7.4-8.8 8.6-11.3 0.6-1.3 0.8-2 1-2.6 0.3-0.7 0.8-1 1.2-0.9 0.6 0.1 0.9 0.7 0.8 1.7-0.2 0.8-0.6 2.2-1.3 3.6-1.5 3.2-4.7 7.4-8.1 11.1-0.5-0.1-0.5 0.5-0.1 0.9"/>
	<path d="m29.7 29.5c0.2-0.2 0.1-0.4 0.1-0.5-0.3-0.8-1.7-4.2-2.1-4.8-0.2-0.3-0.4-0.4-0.7-0.3s-0.8 0.4-1.4 1-1 0.9-1.2 1.3c-0.1 0.2-0.1 0.5 0.2 0.7 0.6 0.5 3.8 2.3 4.5 2.7 0.3-0.1 0.5 0 0.6-0.1z"/>
	<path d="m22.9 30.6c-0.4 0-0.6 0.2-0.6 0.4-0.1 0.4 0 0.9 0.1 1.7s0.3 1.3 0.5 1.7c0.1 0.2 0.4 0.4 0.7 0.2 0.7-0.3 3.9-2 4.6-2.5 0.1-0.1 0.3-0.2 0.3-0.4"/>
	<path d="m55.7 59.2c-0.2 0-0.3 0.2-0.4 0.4-0.3 0.8-1.2 4.3-1.3 5.1-0.1 0.4 0.1 0.6 0.4 0.6 0.3 0.1 0.9 0.1 1.7 0.1 0.9-0.1 1.4-0.1 1.7-0.3 0.3-0.1 0.4-0.3 0.3-0.7-0.2-0.7-1.6-4.1-2-4.9 0-0.1-0.1-0.3-0.4-0.3z"/>
	<path d="m57.8 57.6c-0.1 0.2 0 0.4 0.1 0.5 0.5 0.7 3.1 3.3 3.7 3.8 0.3 0.2 0.5 0.2 0.7 0 0.3-0.2 0.5-0.7 0.9-1.4s0.6-1.2 0.6-1.6c0-0.3-0.1-0.5-0.4-0.6-0.7-0.2-4.4-0.8-5.2-0.8-0.1-0.1-0.3-0.1-0.4 0.1z"/>
	<path d="m45.2 77.3c0 0.7-0.6 1.3-1.3 1.3s-1.3-0.6-1.3-1.3 0.6-1.3 1.3-1.3 1.3 0.5 1.3 1.3"/>
	<path d="m45.2 11c0 0.7-0.6 1.3-1.3 1.3s-1.3-0.6-1.3-1.3 0.6-1.3 1.3-1.3 1.3 0.5 1.3 1.3"/>
	<path d="m53.8 75.8c0.2 0.7-0.2 1.4-0.9 1.6s-1.4-0.2-1.6-0.9 0.2-1.4 0.9-1.6 1.4 0.2 1.6 0.9"/>
	<path d="m36.6 11.7c0.2 0.7-0.2 1.4-0.9 1.6s-1.4-0.2-1.6-0.9 0.2-1.4 0.9-1.6 1.4 0.3 1.6 0.9"/>
	<path d="m61.6 72.2c0.4 0.6 0.1 1.4-0.5 1.8s-1.4 0.1-1.8-0.5-0.1-1.4 0.5-1.8 1.5-0.2 1.8 0.5"/>
	<path d="m28.4 14.7c0.4 0.6 0.1 1.4-0.5 1.8s-1.4 0.1-1.8-0.5-0.1-1.4 0.5-1.8 1.5-0.1 1.8 0.5"/>
	<path d="m68.3 66.6c0.5 0.5 0.5 1.3 0 1.8s-1.3 0.5-1.8 0-0.5-1.3 0-1.8 1.3-0.5 1.8 0"/>
	<path d="m21.4 19.7c0.5 0.5 0.5 1.3 0 1.8s-1.3 0.5-1.8 0-0.5-1.3 0-1.8c0.4-0.5 1.2-0.5 1.8 0"/>
	<path d="m73.3 59.6c0.6 0.4 0.8 1.2 0.5 1.8-0.4 0.6-1.2 0.8-1.8 0.5-0.6-0.4-0.8-1.2-0.5-1.8 0.4-0.7 1.2-0.9 1.8-0.5"/>
	<path d="m15.8 26.4c0.6 0.4 0.8 1.2 0.5 1.8-0.4 0.6-1.2 0.8-1.8 0.5-0.6-0.4-0.8-1.2-0.5-1.8s1.2-0.9 1.8-0.5"/>
	<path d="m76.3 51.4c0.7 0.2 1.1 0.9 0.9 1.6s-0.9 1.1-1.6 0.9-1.1-0.9-0.9-1.6c0.2-0.6 0.9-1.1 1.6-0.9"/>
	<path d="m12.2 34.3c0.7 0.2 1.1 0.9 0.9 1.6s-0.9 1.1-1.6 0.9-1.1-0.9-0.9-1.6 0.9-1.1 1.6-0.9"/>
	<path d="m77.1 42.8c0.7 0 1.3 0.6 1.3 1.3s-0.6 1.3-1.3 1.3-1.3-0.6-1.3-1.3 0.6-1.3 1.3-1.3"/>
	<path d="m10.7 42.8c0.7 0 1.3 0.6 1.3 1.3s-0.6 1.3-1.3 1.3-1.3-0.6-1.3-1.3 0.6-1.3 1.3-1.3"/>
	<path d="m75.6 34.3c0.7-0.2 1.4 0.2 1.6 0.9s-0.2 1.4-0.9 1.6-1.4-0.2-1.6-0.9 0.2-1.4 0.9-1.6"/>
	<path d="m11.5 51.4c0.7-0.2 1.4 0.2 1.6 0.9s-0.2 1.4-0.9 1.6-1.4-0.2-1.6-0.9 0.2-1.4 0.9-1.6"/>
	<path d="m72 26.4c0.6-0.4 1.4-0.1 1.8 0.5s0.1 1.4-0.5 1.8-1.4 0.1-1.8-0.5c-0.3-0.6-0.1-1.4 0.5-1.8"/>
	<path d="m14.5 59.6c0.6-0.4 1.4-0.1 1.8 0.5s0.1 1.4-0.5 1.8-1.4 0.1-1.8-0.5c-0.3-0.7-0.1-1.5 0.5-1.8"/>
	<path d="m66.5 19.7c0.5-0.5 1.3-0.5 1.8 0s0.5 1.3 0 1.8-1.3 0.5-1.8 0c-0.5-0.4-0.5-1.2 0-1.8"/>
	<path d="m19.5 66.6c0.5-0.5 1.3-0.5 1.8 0s0.5 1.3 0 1.8-1.3 0.5-1.8 0c-0.5-0.4-0.5-1.3 0-1.8"/>
	<path d="m59.4 14.7c0.4-0.6 1.2-0.8 1.8-0.5s0.8 1.2 0.5 1.8c-0.4 0.6-1.2 0.8-1.8 0.5-0.7-0.3-0.9-1.1-0.5-1.8"/>
	<path d="m26.2 72.2c0.4-0.6 1.2-0.8 1.8-0.5 0.6 0.4 0.8 1.2 0.5 1.8-0.4 0.6-1.2 0.8-1.8 0.5-0.7-0.4-0.9-1.2-0.5-1.8"/>
	<path d="m51.2 11.7c0.2-0.7 0.9-1.1 1.6-0.9s1.1 0.9 0.9 1.6-0.9 1.1-1.6 0.9c-0.6-0.1-1-0.9-0.9-1.6"/>
	<path d="m34.1 75.8c0.2-0.7 0.9-1.1 1.6-0.9s1.1 0.9 0.9 1.6-0.9 1.1-1.6 0.9-1.1-0.9-0.9-1.6"/>
</g>
</svg>
